<svg width="100" height="100" viewBox="0 0 100 100" fill="none" xmlns="http://www.w3.org/2000/svg">
<mask id="mask0_401_12918" style="mask-type:luminance" maskUnits="userSpaceOnUse" x="0" y="0" width="100" height="100">
<path d="M100 0H0V100H100V0Z" fill="white"/>
</mask>
<g mask="url(#mask0_401_12918)">
<path d="M92.0652 69.7615C87.6915 74.1633 82.1949 76.7357 76.506 77.4975C74.2664 90.2847 63.1863 100 49.8418 100C36.4973 100 25.3861 90.2597 23.1652 77.4538C10.0627 75.5432 0 64.1983 0 50.4871C0 36.7757 9.9882 25.512 23.0163 23.5328C24.8216 10.246 36.1375 0 49.8418 0C63.5462 0 74.8309 10.221 76.6611 23.489C82.2942 24.2757 87.7349 26.8481 92.0652 31.2125C102.643 41.8581 102.643 59.1159 92.0652 69.7615Z" fill="#FFB500"/>
</g>
<path d="M47.2922 45.4699L47.0766 42.3801C47.0766 42.3801 46.9534 40.8196 44.8284 40.726H42.5186L40.2225 42.0663C39.7931 42.316 39.2473 42.2015 38.953 41.7976L37.4679 39.7585V38.791L38.5766 38.2292C38.5766 38.2292 39.6237 36.8872 37.4679 35.8261C37.4679 35.8261 34.6038 33.8287 34.0494 29.9587C34.0494 29.9587 33.4027 25.9951 36.7904 24.6531C36.7904 24.6531 37.9299 23.9664 36.852 21.3136C36.852 21.3136 36.2976 18.2551 38.8538 17.3188L40.4552 16.757C40.4552 16.757 41.1944 16.5698 41.0096 14.666C41.0096 14.666 40.9788 10.9208 45.8139 10.7959L49.14 4.92853C49.14 4.92853 50.2179 3.14958 51.2034 4.61643L54.3447 10.7959L54.6219 11.0144C54.6219 11.0144 57.6092 10.7335 58.4099 12.2316C58.4099 12.2316 59.8882 13.9794 59.3954 16.9131C59.3954 16.9131 62.3827 17.2876 62.8755 18.7232L63.9842 19.2538C63.9842 19.2538 64.3537 21.3136 64.8465 21.8442V22.8117C64.8465 22.8117 63.3682 23.2798 63.861 24.2473C63.861 24.2473 66.6019 26.9001 66.6019 29.1472C66.6019 29.1472 67.0023 31.3943 65.1852 33.3605L60.9968 37.449C60.9968 37.449 60.9045 38.3853 61.6436 38.6038C61.6436 38.6038 62.6907 40.5076 62.0439 41.4126C62.0439 41.4126 61.3356 42.8171 59.4262 41.8184C59.4262 41.8184 58.6563 41.5375 58.3175 40.5388C58.3175 40.5388 56.3106 40.5578 54.8648 41.078C54.2232 41.3086 53.7305 41.8392 53.5269 42.4963C53.402 42.8968 53.2822 43.3979 53.2445 43.9129C53.2103 44.388 53.1436 44.8613 53.0495 45.3294L53.0204 45.4699C53.0204 45.4699 57.7324 45.1266 57.64 46.4374L55.3302 49.8704L54.0367 52.6481L54.1599 52.8666L54.1907 53.1163L54.0778 53.3763L53.9649 53.5636C53.9649 53.5636 54.2523 55.2489 56.9214 58.2242C56.9214 58.2242 60.5554 62.6144 61.5204 65.1112C61.5204 65.1112 62.0542 65.4649 62.1158 65.7354L62.5059 65.881C62.5059 65.881 65.0929 65.7978 65.7088 66.5052C65.7088 66.5052 66.0989 67.275 65.7499 67.4623C65.7499 67.4623 65.2776 67.8784 64.6206 67.7744C64.6206 67.7744 65.0929 68.5858 63.6146 68.5858C63.6146 68.5858 62.2595 68.5858 62.1774 69.4389C62.1774 69.4389 62.5264 70.2712 61.2535 70.937C61.2535 70.937 60.925 73.3505 59.7958 73.8915C59.7958 73.8915 60.1653 75.5144 59.1182 76.0761L58.646 76.4923C58.646 76.4923 58.1122 78.1984 57.3115 78.4897L55.3405 81.8187C55.3405 81.8187 53.3489 84.7316 53.4105 86.1048L53.4516 87.2908C53.4516 87.2908 53.2463 88.4352 54.8888 89.8708L58.3175 93.4287C58.3175 93.4287 58.8205 93.8292 58.3483 94.4396C58.3483 94.4396 57.7016 95.5666 55.0941 95.7798C55.0941 95.7798 50.762 96.6537 45.4238 95.9671C45.4238 95.9671 41.7898 95.9463 41.2559 93.72C41.2559 93.72 41.0506 93.3039 42.0772 92.6589L46.553 87.811C46.553 87.811 47.2716 86.0632 46.2656 84.0658L42.7753 77.6574C42.7753 77.6574 42.2825 77.4702 42.303 76.6587C42.303 76.6587 41.8308 75.4312 41.3997 75.1399C41.3997 75.1399 40.6605 74.4949 41.0506 73.3921C41.0506 73.3921 39.8598 72.227 39.8188 71.4155C39.8188 71.4155 39.2439 70.3336 39.3465 69.9799C39.3465 69.9799 38.2789 69.106 38.4021 68.461L38.2378 68.2529C38.2378 68.2529 36.1847 68.2945 35.8973 67.3999C35.8973 67.3999 35.7535 67.1294 35.8767 66.9213C35.8767 66.9213 35.1171 67.0254 35.0555 66.3595C35.0555 66.3595 34.9939 65.4441 35.9589 65.3816L38.9975 65.1112C38.9975 65.1112 40.1473 61.9278 42.303 59.8055L45.7728 55.7275C45.7728 55.7275 46.9637 54.4583 46.9842 53.7092L46.8405 53.3555L46.7173 52.9394L46.8405 52.5857C46.8405 52.5857 47.1279 52.0239 45.9371 50.2346L43.4733 46.9679C43.3792 46.2692 43.5828 46.0317 43.6855 45.9467C43.7676 45.8791 43.8172 45.7404 44.1509 45.6363C44.6539 45.4803 44.7908 45.5531 44.9311 45.515C45.677 45.3069 47.1313 45.4543 47.2922 45.4699Z" fill="#FFE4BC" stroke="#3A3A3A" stroke-width="0.04" stroke-miterlimit="10"/>
<path d="M37.0321 30.3125C36.6574 29.0381 36.7857 27.9319 37.376 27.5349C37.5453 27.4204 37.9731 27.2141 39.388 27.7845C40.3068 28.1556 41.6875 28.8717 43.1247 30.3229C45.1094 31.932 47.0941 33.541 49.0788 35.15C49.0686 35.4361 49.0087 35.9372 48.6802 36.3863C48.0266 37.2792 46.805 37.3035 46.2455 37.3139C45.4636 37.3295 44.8596 37.1388 44.4952 37.0122C42.7312 36.3932 41.2187 35.3477 40.1272 34.4426C39.6789 34.0906 39.1673 33.6294 38.6643 33.033C37.8259 32.0395 37.3281 31.0512 37.0321 30.3125Z" fill="#563C1A" stroke="#3A3A3A" stroke-width="0.04" stroke-miterlimit="10"/>
<path d="M53.2976 33.579C53.2976 33.579 51.9426 34.765 53.1129 36.263C53.1129 36.263 54.0984 37.5739 56.8393 36.4815C56.8393 36.4815 63.3375 33.1421 64.4462 30.1772C64.4462 30.1772 64.9697 28.0237 63.3067 27.1498C63.0158 27.0909 62.5641 27.0337 62.0371 27.1186C60.9918 27.2885 60.4015 27.8954 59.0567 28.96C57.9976 29.7992 58.4356 29.3657 56.9864 30.4962C56.0266 31.2452 54.7605 32.2734 53.2993 33.579H53.2976Z" fill="#563C1A" stroke="#3A3A3A" stroke-width="0.04" stroke-miterlimit="10"/>
<path d="M52.6285 29.0779C52.7192 29.2357 52.9296 29.5478 53.3146 29.7039C53.8877 29.9397 54.6081 29.7333 55.1162 29.1768C55.9871 28.4971 56.9007 27.7221 57.8298 26.8395C59.2567 25.4854 60.4458 24.1433 61.4296 22.9036C61.4296 22.9036 62.5691 20.5005 59.6434 19.8139C59.3183 19.7983 58.8255 19.8139 58.278 20.015C57.775 20.1988 57.3045 20.5092 56.6253 21.2495C55.8896 22.0523 55.4909 22.7216 54.9537 23.5972C54.5704 24.2231 53.9767 25.1785 53.2068 26.3662C53.0203 26.5742 52.4557 27.266 52.4728 28.2422C52.4779 28.5786 52.5515 28.8612 52.6302 29.0745L52.6285 29.0779Z" fill="#563C1A" stroke="#3A3A3A" stroke-width="0.04" stroke-miterlimit="10"/>
<path d="M39.8086 23.6231C39.8086 23.6231 38.8231 22.0002 39.9318 20.8767C39.9318 20.8767 41.2868 19.441 43.227 21.0639C44.0175 21.7245 44.7908 22.2898 45.725 23.3232C46.7687 24.4779 47.4736 25.2668 48.1118 26.5204C48.5926 27.4619 49.1811 28.6201 48.7192 29.1784C48.3565 29.6171 47.5147 29.4801 47.1383 29.3986C47.1383 29.3986 41.5024 26.3089 39.8086 23.6249V23.6231Z" fill="#563C1A" stroke="#3A3A3A" stroke-width="0.04" stroke-miterlimit="10"/>
<path d="M50.5876 26.7737C51.3815 24.9583 53.8024 19.7186 55.8949 18.2119C56.1618 18.0627 56.6272 17.7506 56.9728 17.1802C57.6572 16.048 57.2996 14.8343 57.2346 14.6297C56.9882 14.3765 56.5981 14.0488 56.0489 13.8373C54.5843 13.2721 53.2241 13.9986 52.9795 14.1338C52.9795 14.1338 51.994 13.9257 51.994 12.6773L50.9674 9.14022C50.9674 9.14022 50.5157 7.93345 49.8587 9.14022C49.4224 10.2568 48.9861 11.3717 48.5498 12.4884C48.596 13.1455 48.2846 13.7662 47.7491 14.0766C47.1161 14.4459 46.4625 14.2118 46.3684 14.1754C46.3684 14.1754 43.7404 13.7177 43.5351 15.9648C43.5351 15.9648 43.34 17.5096 44.9124 18.6419C45.6361 19.1638 46.2537 19.8244 46.7705 20.5578C47.6721 21.8408 48.9485 23.9267 50.076 26.7633C50.1684 26.9939 50.4883 27.0008 50.5876 26.7737Z" fill="#563C1A" stroke="#3A3A3A" stroke-width="0.04" stroke-miterlimit="10"/>
<path d="M43.4735 46.9682C43.4735 46.9682 47.1674 48.1073 57.3629 46.8503C57.3629 46.8503 57.4348 46.7202 57.5254 46.5815C57.7479 46.2434 57.5152 46.0492 57.1781 46.1238C55.8094 46.4272 49.4515 47.3687 44.1031 46.0839C44.0295 46.0666 43.7404 46.0163 43.6685 46.0475C43.4889 46.1238 43.3999 46.3925 43.4735 46.9682Z" fill="#C18D40" stroke="#3A3A3A" stroke-width="0.04" stroke-miterlimit="10"/>
<path d="M50.7828 46.5814C50.7828 46.5814 51.231 44.2008 51.7426 42.5554C52.0472 41.5775 52.6477 40.7105 53.4827 40.1332C54.1568 39.6667 55.1235 39.1466 56.2202 39.2801C56.6599 39.3338 57.0739 39.5228 57.4178 39.8037L58.3178 40.5389C58.3178 40.5389 54.0883 40.4713 53.5665 42.3802C53.5665 42.3802 53.0601 44.3829 53.0943 45.4648L54.6906 45.4336C54.6906 45.4336 55.724 46.0474 54.9027 46.4531C54.9027 46.4531 51.2533 46.7808 50.7811 46.7583V46.5831L50.7828 46.5814Z" fill="#C18D40" stroke="#3A3A3A" stroke-width="0.04" stroke-miterlimit="10"/>
<path d="M61.2978 27.3371C62.1088 26.7753 62.3278 26.5742 62.7573 26.5361C63.2141 26.4962 63.6042 26.6696 63.8608 26.8222C63.8608 26.8222 64.1534 27.0094 64.2612 26.8222C64.2612 26.8222 64.6 26.3852 63.1987 26.2448C63.1987 26.2448 62.4134 26.0731 61.4279 26.6973L58.7177 28.5231C58.5706 28.6687 58.3465 28.8768 58.0573 29.1091C57.6244 29.4542 57.2994 29.6466 57.0581 29.8009C56.4131 30.2171 56.2061 30.4876 55.5987 30.9956C54.3309 32.0584 54.1375 31.8001 53.2975 32.5647C52.7448 33.0676 51.5232 34.179 51.7388 35.4239C51.8722 36.192 52.4967 36.6896 52.8355 36.9168C52.8355 36.9168 53.7132 37.2739 54.7757 36.9168C54.7757 36.9168 53.022 37.1057 52.637 35.2332C52.637 35.2332 52.4711 33.8114 54.4318 32.5873L58.1737 29.6154C58.7006 29.1542 59.2054 28.7572 59.669 28.4173C60.4082 27.8781 60.2798 28.0428 61.2978 27.3371Z" fill="#C18D40" stroke="#3A3A3A" stroke-width="0.04" stroke-miterlimit="10"/>
<path d="M66.3449 27.7254C66.3449 27.7254 65.9599 26.6695 64.4321 24.8003C64.4321 24.8003 63.7545 24.2941 63.8452 23.6283C63.8452 23.6283 63.9051 23.1653 64.8906 22.8064V21.8389C64.8906 21.8389 64.2593 20.731 64.0283 19.2485L63.3798 18.9381C63.3798 18.9381 64.521 21.2459 63.6433 22.1822C63.6433 22.1822 62.8032 23.2901 63.6775 24.4605C64.249 25.0778 64.6665 25.6326 64.9436 26.0331C65.7563 27.2018 66.2867 27.9872 66.3381 29.0795C66.3654 29.6569 66.2457 30.0817 66.1122 30.5637C65.7632 31.8208 65.1455 32.712 64.7212 33.2304C64.7212 33.2304 62.1086 35.878 61.0427 36.7762C60.4952 37.2374 60.4165 38.0731 60.8955 38.6072C60.9024 38.6141 60.9092 38.6228 60.9161 38.6314C60.9161 38.6314 62.3892 39.8625 62.0915 40.8265C61.6809 41.9362 59.9614 42.0315 59.9614 42.0315C60.1444 42.1061 60.8014 42.3454 61.4345 42.0333C61.5765 41.9639 61.6928 41.8772 61.7869 41.7923C61.8622 41.7281 62.278 41.3657 62.2814 40.8022C62.2814 40.7363 62.3071 40.6826 62.2968 40.6236C62.3396 40.3757 62.2335 39.8295 61.7185 38.6626C61.7185 38.6626 60.8271 38.2951 61.0393 37.4455L65.4073 33.1541C65.4073 33.1541 66.6426 32.015 66.682 29.8841C66.682 29.8841 66.7384 28.5594 66.3415 27.7271L66.3449 27.7254Z" fill="#C18D40" stroke="#3A3A3A" stroke-width="0.04" stroke-miterlimit="10"/>
<path d="M52.6373 27.1967C52.6784 26.9176 52.74 26.6176 52.8255 26.3038C53.0788 25.3779 53.4671 24.6375 53.8213 24.0914C54.4834 23.1152 55.0806 22.3402 55.5203 21.7974C56.5691 20.5005 57.8181 19.1585 58.9644 18.9435C59.4075 18.8603 59.8558 18.9435 59.9208 18.9539C60.2989 19.025 60.8858 19.2209 60.8892 19.4567C60.8892 19.54 60.8174 19.6041 60.8003 19.6214C60.6274 19.7775 60.3332 19.6509 60.3195 19.644C60.1963 19.592 60.0012 19.5243 59.7583 19.4966C59.1663 19.429 58.6958 19.6423 58.3331 19.8104C58.0183 19.9578 57.7308 20.1399 57.416 20.3948C57.0122 20.7207 56.4031 21.2929 55.8402 22.2188C55.8402 22.2188 52.9008 26.8066 52.6373 27.1967Z" fill="#C18D40" stroke="#3A3A3A" stroke-width="0.04" stroke-miterlimit="10"/>
<path d="M52.9794 14.1354C53.1095 13.9342 53.3131 13.6724 53.621 13.4384C54.29 12.9321 55.0086 12.887 55.2995 12.887C55.8555 12.9286 56.2473 13.1332 56.2798 13.3811C56.2867 13.428 56.2798 13.4921 56.2388 13.5736C56.1635 13.6013 56.078 13.6256 55.9839 13.6447C55.7033 13.7002 55.4586 13.6811 55.2824 13.6499C55.2824 13.6499 54.7092 13.3863 52.9794 14.1354Z" fill="#C18D40" stroke="#3A3A3A" stroke-width="0.04" stroke-miterlimit="10"/>
<path d="M50.866 8.93558C50.866 8.93558 51.5128 8.1432 50.7275 7.70627C50.7275 7.70627 49.8497 7.51901 49.1722 9.26675L47.9403 12.3721C47.9403 12.3721 48.0635 13.4489 46.2311 13.1368C46.2311 13.1368 43.5671 12.8247 43.0282 15.0562C43.0282 15.0562 42.3575 18.2153 45.7349 19.3354C45.7349 19.3354 43.29 17.8286 43.5363 15.9665C43.5363 15.9665 43.5877 13.9153 46.2174 14.158C46.2174 14.158 48.5751 14.8377 48.5494 12.49L50.0106 8.90264C50.0106 8.90264 50.4041 8.16921 50.866 8.93731V8.93558Z" fill="#C18D40" stroke="#3A3A3A" stroke-width="0.04" stroke-miterlimit="10"/>
<path d="M49.3865 4.59918C49.3865 4.59918 50.526 4.00619 50.8956 4.77083L54.1447 11.1064C54.1447 11.1064 54.7144 11.6214 55.161 11.3873L55.96 11.0613C55.96 11.0613 55.6383 11.0214 55.1849 10.9972C54.8171 10.9781 54.4766 11.0856 54.3911 10.7787L51.4465 5.09333C51.4465 5.09333 51.1574 4.17265 50.5414 4.03567C50.5414 4.03567 50.0932 3.78773 49.3865 4.59918Z" fill="#C18D40" stroke="#3A3A3A" stroke-width="0.04" stroke-miterlimit="10"/>
<path d="M40.152 24.1051C40.152 24.1051 38.4223 23.9335 38.9766 21.187C39.0553 20.8888 39.2641 20.2802 39.827 19.8017C40.6208 19.1255 41.685 19.0735 42.4464 19.3335C42.8126 19.4584 43.0743 19.6647 43.5859 20.0722C44.3456 20.6773 44.9068 21.2564 45.2797 21.676C45.2797 21.676 42.3164 19.2815 40.3283 20.5767C40.3283 20.5767 38.3282 21.8095 40.1503 24.1034L40.152 24.1051Z" fill="#C18D40" stroke="#3A3A3A" stroke-width="0.04" stroke-miterlimit="10"/>
<path d="M56.9999 11.2278C56.9999 11.2278 59.2652 13.3709 59.397 16.9132C59.397 16.9132 60.0677 12.1294 56.9999 11.2278Z" fill="#C18D40" stroke="#3A3A3A" stroke-width="0.04" stroke-miterlimit="10"/>
<path d="M59.8322 16.986C59.8322 16.986 62.5697 17.3969 62.8776 18.7233L61.8836 17.9466C61.6201 17.7402 61.3258 17.5755 61.0127 17.4611C60.626 17.3206 60.1401 17.1524 59.8322 16.986Z" fill="#C18D40" stroke="#3A3A3A" stroke-width="0.04" stroke-miterlimit="10"/>
<path d="M39.3258 41.9328C39.3258 41.9328 41.5431 39.6146 42.5697 39.6094C42.5697 39.6094 46.4091 38.9367 47.1071 41.1005C47.1071 41.1005 47.1362 42.1703 47.1157 42.453C47.1157 42.453 46.7752 40.9376 44.125 40.726C43.0864 40.6428 42.3678 40.837 41.4627 41.3589C40.9666 41.645 40.4242 41.9796 40.029 42.1253C39.8647 42.1859 39.6851 42.1894 39.5157 42.1426L39.259 42.0715L39.3241 41.9328H39.3258Z" fill="#C18D40" stroke="#3A3A3A" stroke-width="0.04" stroke-miterlimit="10"/>
<path d="M38.3458 32.6567C38.3458 32.6567 35.959 31.4049 36.2054 28.2423C36.2174 28.0862 36.3012 27.2332 37.0078 26.6922C37.8223 26.068 38.8112 26.3576 38.9977 26.4113C39.2988 26.4997 39.5075 26.6298 39.925 26.8899C40.4263 27.2037 45.3812 30.8049 45.631 31.0303C44.1647 29.8184 42.8199 29.0555 41.8532 28.5838C40.2672 27.8071 38.2038 26.7962 37.2782 27.6198C36.9377 27.9232 36.8042 28.3584 36.8179 28.7798C36.8778 30.6853 38.0002 32.2995 38.3475 32.6567H38.3458Z" fill="#C18D40" stroke="#3A3A3A" stroke-width="0.04" stroke-miterlimit="10"/>
<path d="M38.3453 32.6565C38.3453 32.6565 39.9091 36.9895 45.367 37.2461C45.367 37.2461 42.005 36.8022 38.3453 32.6565Z" fill="#C18D40" stroke="#3A3A3A" stroke-width="0.04" stroke-miterlimit="10"/>
<path d="M52.6372 27.1968C52.6372 27.1968 51.5217 28.4469 51.9939 29.8011C51.9939 29.8011 52.3635 30.7599 53.2053 30.5935C53.2053 30.5935 53.4722 30.4062 53.2053 30.1565C53.2053 30.1565 51.9819 29.352 52.6372 27.1968Z" fill="#C18D40" stroke="#3A3A3A" stroke-width="0.04" stroke-miterlimit="10"/>
<path d="M50.0023 47.4396L50.3206 52.3135L51.8912 52.0639L54.3344 49.151L54.55 47.1518C54.5757 47.1067 50.8219 47.4882 50.0023 47.4379V47.4396Z" fill="#FFDDA1" stroke="#3A3A3A" stroke-width="0.04" stroke-miterlimit="10"/>
<path d="M46.9008 53.5446C46.9008 53.5446 48.5913 53.9156 53.9653 53.5637C53.9653 53.5637 54.4992 53.0851 54.0372 52.6482C53.7001 52.7557 53.1338 52.91 52.4221 52.9759C49.8984 53.2082 47.1335 52.1107 46.841 52.5858C46.7691 52.7019 46.7263 52.9152 46.7263 52.9152C46.6818 53.1493 46.8358 53.418 46.8991 53.5463L46.9008 53.5446Z" fill="#C18D40" stroke="#3A3A3A" stroke-width="0.04" stroke-miterlimit="10"/>
<path d="M49.816 67.8785L46.6867 67.6704L43.814 67.3115L45.0887 63.3167L46.1358 61.0904L46.5464 60.5286H47.5319L49.2771 60.6326L50.189 60.7783L50.5637 62.4428L50.1668 64.1073L50.0983 66.0007L49.816 67.8785Z" fill="#FFDDA1" stroke="#3A3A3A" stroke-width="0.04" stroke-miterlimit="10"/>
<path d="M47.9545 57.829L50.3208 57.5169V53.7544L48.5876 53.7058L48.2163 55.6651L47.9545 56.747V57.829Z" fill="#FFDDA1" stroke="#3A3A3A" stroke-width="0.04" stroke-miterlimit="10"/>
<path d="M47.9545 59.6391L50.3208 59.0773V58.2866L47.9545 58.4531V59.6391Z" fill="#FFDDA1" stroke="#3A3A3A" stroke-width="0.04" stroke-miterlimit="10"/>
<path d="M65.5429 66.3613C65.5429 66.3613 65.5241 66.8572 64.3538 66.8364C64.3538 66.8364 63.5326 66.7532 63.9637 67.1485C63.9637 67.1485 64.6618 67.7727 63.7174 67.7727C63.7174 67.7727 60.9662 68.2512 59.4468 67.9807C59.4468 67.9807 58.5229 67.7519 58.3382 68.168C58.3382 68.168 58.3792 68.6049 57.0241 68.5217C57.0241 68.5217 53.2464 68.917 52.5072 68.5321C52.5072 68.5321 50.9469 67.9599 50.4541 68.1472C50.4541 68.1472 48.9759 68.6674 48.1341 68.4385C48.1341 68.4385 47.0459 68.1472 46.3684 68.2304C46.3684 68.2304 43.9867 68.7922 43.145 68.2928C43.145 68.2928 41.0918 68.1472 40.9892 67.6686C40.9892 67.6686 38.8539 68.1004 38.7923 67.5317C38.7923 67.5317 36.5339 67.3566 36.2875 67.0445C36.2875 67.0445 36.1643 66.4896 36.5955 66.3613L36.4517 66.129C36.4517 66.129 35.2866 66.311 35.2643 65.7007C35.2643 65.7007 34.5834 66.982 35.8769 66.9196C35.8769 66.9196 35.4611 68.1281 37.7503 68.2443C38.0703 68.2599 38.3851 68.3379 38.6743 68.4784C39.4527 68.8564 41.138 69.562 42.6402 69.4008C42.8147 69.3817 42.991 69.3834 43.1672 69.3921C43.9936 69.4355 46.1733 69.5326 47.4736 69.4459C47.6584 69.4337 47.8432 69.4355 48.028 69.4545C48.9433 69.5516 51.8058 69.8343 52.8837 69.6609C53.0188 69.6383 53.154 69.6227 53.2909 69.621C54.2319 69.6036 57.7308 69.5204 58.0695 69.2499C58.0695 69.2499 58.7419 68.6205 59.3767 68.7072C59.5102 68.7263 59.6453 68.7384 59.7788 68.7228C60.4152 68.6518 62.169 68.4801 62.5043 68.6656L62.8807 68.7055C62.8807 68.7055 64.2854 68.6604 64.5557 68.3518C64.5557 68.3518 64.8877 68.0224 64.6207 67.7727C64.6207 67.7727 65.7996 67.8576 65.8783 67.2959C65.8783 67.2959 65.9313 66.5728 65.5429 66.3613Z" fill="#C18D40" stroke="#3A3A3A" stroke-width="0.04" stroke-miterlimit="10"/>
<path d="M39.3463 69.9799C43.0454 70.4688 46.7667 70.9959 50.5017 71.0115C51.4376 71.0098 52.37 71.0254 53.3059 71.0115C56.0982 70.9404 58.9332 70.9786 61.6742 70.3752C61.2225 70.5018 60.7657 70.6041 60.3037 70.6804L59.6091 70.7861C56.5909 71.1641 53.5369 71.1867 50.5017 71.1849C49.5641 71.1884 48.6265 71.1433 47.694 71.0705C44.8949 70.8555 42.1112 70.4654 39.3463 69.9799Z" fill="#C18D40"/>
<path d="M39.6902 71.6896C43.2404 72.1578 46.8129 72.6467 50.3956 72.6675C51.2921 72.6589 52.1886 72.6831 53.0852 72.6675C55.7645 72.6016 58.4849 72.6224 61.1129 72.0295C59.3798 72.5201 57.5661 72.619 55.7799 72.7369C53.0886 72.8478 50.387 72.9189 47.7008 72.7282C45.0147 72.5254 42.3422 72.156 39.6902 71.6879V71.6896Z" fill="#C18D40"/>
<path d="M42.0562 76.0347C44.7714 76.7074 47.5842 76.8826 50.3714 76.9068C52.4519 76.9207 54.5769 76.7889 56.6471 76.5861L58.7327 76.352C58.0415 76.463 57.3503 76.5722 56.6574 76.671C54.5871 76.9328 52.4587 77.0837 50.3714 77.0802C47.5791 77.0386 44.7458 76.8427 42.0562 76.0347Z" fill="#C18D40"/>
<path d="M43.0906 78.2331C44.1993 78.7117 45.4072 78.8972 46.5963 79.0359C47.7905 79.1625 48.9933 79.2266 50.1961 79.2023C51.9225 79.2058 53.8832 79.0498 55.5993 78.8764C56.1981 78.8088 56.7953 78.7359 57.3958 78.6752C56.8021 78.7758 56.205 78.866 55.6096 78.9613C53.2331 79.2804 50.7847 79.4624 48.386 79.3324C46.5929 79.2127 44.7331 79.022 43.0923 78.2314L43.0906 78.2331Z" fill="#C18D40"/>
<path d="M44.4866 80.7959C45.5816 81.2502 46.7913 81.4132 47.9633 81.5293C50.0968 81.7062 52.2458 81.5536 54.3656 81.2814C54.8379 81.2138 55.3084 81.141 55.7823 81.0785C52.3621 81.8276 47.7477 82.294 44.4883 80.7959H44.4866Z" fill="#C18D40"/>
<path d="M46.1752 83.8995C48.4507 84.4162 50.8341 84.5271 53.1319 84.1058C53.4638 84.0572 53.7855 83.9636 54.1157 83.8995C51.5715 84.7716 48.7262 84.7265 46.1769 83.8995H46.1752Z" fill="#C18D40"/>
<path d="M40.9503 73.8257C44.0523 74.3268 47.185 74.7863 50.3297 74.8036C52.6925 74.847 55.0519 74.9389 57.4062 74.7152C58.1898 74.6458 58.97 74.5401 59.7348 74.3476C57.449 74.9839 55.0451 75.0082 52.6891 75.0117C51.8987 75.0047 51.1133 74.9718 50.328 74.977C47.1696 74.9406 44.0352 74.4655 40.9486 73.8257H40.9503Z" fill="#C18D40"/>
<path d="M53.4522 87.2908C49.2193 88.7732 46.8 86.885 46.8 86.885L46.5536 87.8109L44.5381 89.9939L42.0778 92.6588C41.6261 92.8669 41.2463 93.5518 41.2463 93.5518C41.5235 94.9857 42.8169 95.4122 42.8169 95.4122C43.3918 95.3151 43.5561 94.7811 43.5561 94.7811L45.794 91.7017C47.1901 90.4741 47.7102 87.3723 47.7102 87.3723" fill="#C18D40"/>
<path d="M53.4522 87.2908C49.2193 88.7732 46.8 86.885 46.8 86.885L46.5536 87.8109L44.5381 89.9939L42.0778 92.6588C41.6261 92.8669 41.2463 93.5518 41.2463 93.5518C41.5235 94.9857 42.8169 95.4122 42.8169 95.4122C43.3918 95.3151 43.5561 94.7811 43.5561 94.7811L45.794 91.7017C47.1901 90.4741 47.7102 87.3723 47.7102 87.3723" stroke="#3A3A3A" stroke-width="0.04" stroke-miterlimit="10" stroke-linecap="round"/>
<path d="M49.7268 87.8353C49.7268 87.8353 50.0844 90.3494 49.6943 91.7642C49.6943 91.7642 48.8731 94.698 48.9757 95.5822L45.1398 95.1938C45.1398 95.1938 48.9261 92.1648 48.0569 87.5007C48.0569 87.5007 49.0527 87.8561 49.7251 87.8353H49.7268Z" fill="#FFDDA1" stroke="#3A3A3A" stroke-width="0.04" stroke-miterlimit="10"/>
<path d="M52.5259 87.5702C52.5259 87.5702 53.7304 94.927 56.2198 94.7709L57.7391 94.1814L58.5861 93.7774C58.5861 93.7774 58.557 93.6664 58.3636 93.4653C57.5526 92.6175 55.3096 90.3496 54.7706 89.7652C54.7706 89.7652 53.4909 88.6018 53.4515 87.395L53.3471 87.3274L52.5242 87.5719L52.5259 87.5702Z" fill="#563C1A" stroke="#3A3A3A" stroke-width="0.04" stroke-miterlimit="10"/>
<path d="M52.5001 54.635C52.4488 54.687 52.382 54.7633 52.3222 54.8674C52.2195 55.0494 52.1938 55.2228 52.187 55.3268C52.1784 55.4742 52.2024 55.5869 52.211 55.6216C52.2435 55.7603 52.2674 55.8591 52.3547 55.9233C52.4916 56.0256 52.7379 55.9996 52.8355 55.8557C52.8697 55.8054 52.8799 55.7499 52.8816 55.7083C52.8816 55.7083 52.8902 54.8344 52.5685 54.6333L52.5309 54.5847L52.4984 54.6333L52.5001 54.635Z" fill="#563C1A" stroke="#3A3A3A" stroke-width="0.04" stroke-miterlimit="10"/>
<path d="M52.5001 56.2286C52.4488 56.2806 52.382 56.3569 52.3222 56.4609C52.2195 56.6429 52.1938 56.8163 52.187 56.9204C52.1784 57.0677 52.2024 57.1804 52.211 57.2151C52.2435 57.3538 52.2674 57.4527 52.3547 57.5168C52.4916 57.6191 52.7379 57.5931 52.8355 57.4492C52.8697 57.3989 52.8799 57.3434 52.8816 57.3018C52.8816 57.3018 52.8902 56.4279 52.5685 56.2268L52.5309 56.1783L52.4984 56.2268L52.5001 56.2286Z" fill="#563C1A" stroke="#3A3A3A" stroke-width="0.04" stroke-miterlimit="10"/>
<path d="M52.5001 57.8774C52.4488 57.9294 52.382 58.0057 52.3222 58.1097C52.2195 58.2918 52.1938 58.4651 52.187 58.5692C52.1784 58.7165 52.2024 58.8292 52.211 58.8639C52.2435 59.0026 52.2674 59.1015 52.3547 59.1656C52.4916 59.2679 52.7379 59.2419 52.8355 59.098C52.8697 59.0477 52.8799 58.9922 52.8816 58.9506C52.8816 58.9506 52.8902 58.0768 52.5685 57.8756L52.5309 57.8271L52.4984 57.8756L52.5001 57.8774Z" fill="#563C1A" stroke="#3A3A3A" stroke-width="0.04" stroke-miterlimit="10"/>
<path d="M44.8922 61.8411C44.822 61.8602 44.7279 61.8948 44.627 61.959C44.4508 62.07 44.3464 62.2087 44.2917 62.2971C44.2147 62.4237 44.1822 62.5329 44.1736 62.5676C44.1377 62.7063 44.112 62.8051 44.1565 62.9022C44.2283 63.0583 44.4576 63.1536 44.6116 63.0773C44.6663 63.0496 44.7006 63.0063 44.7211 62.9716C44.7211 62.9716 45.1403 62.2087 44.9538 61.8775L44.9435 61.8151L44.8922 61.8428V61.8411Z" fill="#563C1A" stroke="#3A3A3A" stroke-width="0.04" stroke-miterlimit="10"/>
<path d="M44.1385 63.2404C44.0684 63.2595 43.9743 63.2941 43.8733 63.3583C43.6971 63.4693 43.5927 63.608 43.538 63.6964C43.461 63.823 43.4285 63.9322 43.4199 63.9669C43.384 64.1056 43.3583 64.2044 43.4028 64.3015C43.4747 64.4576 43.704 64.5529 43.8579 64.4766C43.9127 64.4489 43.9469 64.4055 43.9674 64.3709C43.9674 64.3709 44.3866 63.608 44.2001 63.2768L44.1899 63.2144L44.1385 63.2421V63.2404Z" fill="#563C1A" stroke="#3A3A3A" stroke-width="0.04" stroke-miterlimit="10"/>
<path d="M43.3605 64.6882C43.2904 64.7072 43.1963 64.7419 43.0953 64.8061C42.9191 64.917 42.8147 65.0557 42.76 65.1442C42.683 65.2707 42.6505 65.38 42.6419 65.4147C42.606 65.5534 42.5803 65.6522 42.6248 65.7493C42.6967 65.9053 42.9259 66.0007 43.0799 65.9244C43.1347 65.8967 43.1689 65.8533 43.1894 65.8187C43.1894 65.8187 43.6086 65.0557 43.4221 64.7246L43.4118 64.6622L43.3605 64.6899V64.6882Z" fill="#563C1A" stroke="#3A3A3A" stroke-width="0.04" stroke-miterlimit="10"/>
<path d="M41.7852 92.8601C41.7852 92.8601 52.5283 97.0977 58.585 93.7756C58.585 93.7756 58.7903 95.0535 56.4497 95.6049C56.4463 95.8251 41.4088 98.1328 41.2463 93.4861L41.7852 92.8619V92.8601Z" fill="#D69B36" stroke="#3A3A3A" stroke-width="0.04" stroke-miterlimit="10"/>
<path d="M52.8016 29.2115C52.8751 29.3398 53.0479 29.5947 53.361 29.723C53.8281 29.9154 54.4167 29.7472 54.8307 29.293C55.5408 28.7381 56.2867 28.1053 57.0447 27.3857C58.2099 26.2812 59.18 25.1854 59.9824 24.1729C59.9824 24.1729 60.9131 22.2118 58.5247 21.6518C58.2595 21.6379 57.8574 21.6518 57.4108 21.8165C57.0002 21.9656 56.617 22.2188 56.0609 22.8239C55.4604 23.4776 55.1353 24.0255 54.6973 24.7398C54.3842 25.2496 53.9 26.0298 53.2721 27.0008C53.1198 27.1707 52.6578 27.7342 52.6732 28.5318C52.6784 28.8058 52.7382 29.0364 52.8016 29.2115Z" fill="#FFB500"/>
<path d="M50.579 26.7858C51.3198 25.0918 53.5782 20.2006 55.5321 18.7944C55.7819 18.6557 56.2165 18.3644 56.5382 17.8321C57.1781 16.7745 56.8427 15.6423 56.7828 15.4515C56.5536 15.2157 56.1891 14.9106 55.6759 14.7112C54.3088 14.1841 53.0393 14.8603 52.8117 14.9886C52.8117 14.9886 51.8912 14.7944 51.8912 13.6292L50.9331 10.3279C50.9331 10.3279 50.5122 9.2009 49.898 10.3279C49.4908 11.37 49.0836 12.4103 48.6764 13.4524C48.7192 14.0662 48.4283 14.6453 47.9287 14.9348C47.3367 15.2781 46.7276 15.0597 46.6404 15.0267C46.6404 15.0267 44.1869 14.6002 43.9952 16.6964C43.9952 16.6964 43.8139 18.139 45.2802 19.195C45.956 19.6822 46.5326 20.2977 47.0133 20.9826C47.8551 22.1807 49.0459 24.1261 50.0982 26.7737C50.1837 26.9887 50.4831 26.9956 50.5755 26.7824L50.579 26.7858Z" fill="#FFB500"/>
<path d="M53.19 34.1217C53.19 34.1217 52.0556 35.1152 53.036 36.3688C53.036 36.3688 53.8607 37.4663 56.1551 36.5509C56.1551 36.5509 61.5942 33.7559 62.5215 31.2747C62.5215 31.2747 62.9595 29.4715 61.5685 28.7415C61.3255 28.6912 60.9474 28.6444 60.506 28.7155C59.6317 28.8577 59.1372 29.3657 58.0114 30.2569C57.1252 30.9591 57.4913 30.5968 56.2782 31.5434C55.4741 32.1711 54.415 33.0311 53.1917 34.1234L53.19 34.1217Z" fill="#FFB500"/>
<path d="M38.7049 31.285C38.3832 30.1875 38.4927 29.2356 39.0009 28.8923C39.1463 28.7934 39.5159 28.6166 40.7341 29.1073C41.5262 29.4263 42.7154 30.0436 43.9524 31.2919C45.6616 32.6773 47.3708 34.0627 49.0801 35.448C49.0715 35.6942 49.0202 36.126 48.7362 36.5126C48.1733 37.2807 47.121 37.3015 46.6403 37.3119C45.9661 37.3258 45.446 37.1611 45.1329 37.0519C43.6136 36.5196 42.3116 35.618 41.3723 34.8394C40.9856 34.5378 40.5459 34.139 40.113 33.6257C39.391 32.7709 38.9632 31.9196 38.7066 31.2833L38.7049 31.285Z" fill="#FFB500"/>
<path d="M41.1504 24.4883C41.1504 24.4883 40.3103 23.1047 41.2547 22.1476C41.2547 22.1476 42.4096 20.9235 44.0641 22.3071C44.7382 22.8706 45.3969 23.3526 46.1942 24.2317C47.0839 25.2148 47.6845 25.8875 48.2285 26.9556C48.6375 27.7584 49.1405 28.7449 48.747 29.2218C48.4373 29.5945 47.7204 29.4801 47.3987 29.409C47.3987 29.409 42.5961 26.7753 41.1521 24.4883H41.1504Z" fill="#FFB500"/>
<path d="M40.9278 66.7757C40.7396 66.7288 49.7563 69.0488 60.1452 67.2542" stroke="#3A3A3A" stroke-width="0.04" stroke-miterlimit="10"/>
<path d="M42.6023 59.4553C42.4141 59.4085 47.6855 61.477 58.0744 59.6824" stroke="#3A3A3A" stroke-width="0.04" stroke-miterlimit="10"/>
<path d="M47.2922 45.4698C47.2922 45.4698 46.0381 45.9432 53.094 45.4646L47.2922 45.4698Z" fill="#C18D40"/>
<path d="M47.2922 45.4698C47.2922 45.4698 46.0381 45.9432 53.094 45.4646" stroke="#3A3A3A" stroke-width="0.04" stroke-miterlimit="10"/>
<path d="M47.954 53.6502C47.954 53.6502 46.9617 55.7777 46.6349 57.463C46.486 58.2311 46.1746 58.9559 45.7024 59.5749C44.2139 61.5324 41.2197 65.5758 40.9272 66.7739C40.9272 66.7739 38.6687 66.5329 38.7098 65.1354L38.9972 65.1094C38.9972 65.1094 39.4438 63.1432 42.2412 59.8662L46.1558 55.2783C46.1558 55.2783 47.0592 54.2207 46.9257 53.5601L47.954 53.6485V53.6502Z" fill="#563C1A" stroke="#3A3A3A" stroke-width="0.04" stroke-miterlimit="10"/>
<path d="M53.7781 53.5791C53.7781 53.5791 54.5806 59.5957 55.874 60.3655C55.874 60.3655 59.775 67.1276 60.1446 67.2524C60.5141 67.3773 62.3739 67.0253 62.3671 65.8272L62.1156 65.7336C62.1156 65.7336 61.7665 65.1302 61.5202 65.1094C61.5202 65.1094 59.5132 61.0677 57.4053 58.8241C57.4053 58.8241 54.1699 55.2471 53.9646 53.5618L53.7781 53.5791Z" fill="#563C1A" stroke="#3A3A3A" stroke-width="0.04" stroke-miterlimit="10"/>
</svg>
