<svg width="100" height="100" viewBox="0 0 100 100" fill="none" xmlns="http://www.w3.org/2000/svg">
<mask id="mask0_401_12917" style="mask-type:luminance" maskUnits="userSpaceOnUse" x="0" y="0" width="100" height="100">
<path d="M100 0H0V100H100V0Z" fill="white"/>
</mask>
<g mask="url(#mask0_401_12917)">
<path d="M92.0653 69.7615C87.6915 74.1633 82.1949 76.7358 76.506 77.4975C74.2663 90.2847 63.1863 100 49.8418 100C36.4973 100 25.3862 90.2598 23.1652 77.4538C10.0627 75.5432 0 64.1983 0 50.487C0 36.7757 9.98821 25.5119 23.0163 23.5327C24.8216 10.246 36.1374 0 49.8418 0C63.5461 0 74.831 10.221 76.6611 23.489C82.2942 24.2757 87.7349 26.8482 92.0653 31.2126C102.643 41.8582 102.643 59.1159 92.0653 69.7615Z" fill="#0060D4"/>
</g>
<mask id="mask1_401_12917" style="mask-type:luminance" maskUnits="userSpaceOnUse" x="23" y="17" width="55" height="66">
<path d="M77.8245 17H23V82.7895H77.8245V17Z" fill="white"/>
</mask>
<g mask="url(#mask1_401_12917)">
<path d="M72.3723 45.9276C70.659 44.9168 68.7845 44.5125 66.7588 44.6338C66.7286 44.4114 66.7085 44.3003 66.7085 44.1891C66.7387 39.7318 66.7991 35.2743 66.7891 30.8169C66.7891 29.7051 66.6984 28.5731 66.4363 27.4916C65.9627 25.5106 64.8137 24.0147 62.8184 23.3476C60.9842 22.731 59.2003 22.7613 57.6079 24.0955C57.2351 18.7183 54.7257 17.182 50.896 17.0102C49.1828 16.9293 47.53 17.3033 46.1089 18.3342C44.1638 19.7291 43.7104 21.8213 43.6298 24.0854C43.4887 24.0349 43.408 24.0349 43.3677 23.9843C41.856 22.3065 38.3287 22.4076 36.3131 24.2977C34.8921 25.6218 34.3781 27.3096 34.3781 29.1795C34.368 34.2131 34.3579 39.2365 34.3781 44.2699C34.3781 44.8461 34.2572 45.0684 33.6323 45.0684C31.395 45.0785 29.3189 45.7254 27.4243 46.9282C25.973 47.8581 24.7233 48.9902 23.8364 50.5063C26.7389 52.0527 27.3738 52.5076 28.4018 53.9327C30.9214 57.44 31.788 61.4627 31.6267 65.6776C31.4656 69.8014 32.3221 73.5715 34.6502 76.9778C36.686 79.9695 39.3264 82.0618 43.0049 82.6177C45.1012 82.931 47.1873 82.7794 49.2734 82.4661C49.8479 82.3751 50.4424 82.2841 51.0271 82.3246C52.186 82.4054 53.3349 82.6783 54.4837 82.7087C60.4399 82.8097 64.9649 80.3536 67.7666 74.9866C69.3993 71.8533 70.1148 68.4673 70.1047 64.9296C70.1047 61.8873 70.3769 58.8955 71.5459 56.0553C72.6041 53.4779 74.2771 51.4867 76.988 50.5164C77.0687 50.4861 77.1291 50.4153 77.2199 50.3446C75.7686 48.6465 74.2771 47.0495 72.3723 45.9175V45.9276ZM70.6288 52.8613C69.238 54.8525 68.4822 57.1065 68.1698 59.4818C67.9279 61.3313 67.8271 63.2113 67.8171 65.0812C67.7767 69.5892 66.7689 73.7232 63.6347 77.1495C61.2461 79.7573 58.2228 80.768 54.7861 80.6871C53.6977 80.6568 52.6193 80.4446 51.5309 80.3738C50.8356 80.3233 50.1301 80.3233 49.4448 80.4244C47.0361 80.7781 44.6275 80.9095 42.2692 80.1616C38.5303 78.9891 36.2527 76.2501 34.7509 72.7832C33.6424 70.2057 33.3401 67.4666 33.4106 64.6567C33.4913 60.8361 32.9672 57.1267 31.0927 53.7205C30.2058 52.1033 28.9662 50.8803 27.1723 50.294C27.0917 50.2637 27.0312 50.2031 26.8901 50.1121C29.4399 47.2921 32.554 46.2914 36.2929 46.8979V29.6849C36.2929 27.3905 37.4317 25.7127 39.4171 25.1568C41.3622 24.611 43.3878 25.3994 44.4058 27.2894C44.4259 27.3298 44.4662 27.35 44.6174 27.4916C44.6174 26.5617 44.6174 25.733 44.6174 24.9142C44.6174 23.8428 44.8189 22.8321 45.3329 21.8719C46.6229 19.4562 49.344 18.213 51.9844 18.8497C54.6148 19.4764 56.5094 21.8314 56.5498 24.5706C56.57 25.5005 56.5498 26.4303 56.5498 27.5017C56.7009 27.3298 56.8017 27.2591 56.8521 27.158C57.9506 25.3893 59.7949 24.6211 61.7199 25.1366C63.6044 25.6521 64.8541 27.2692 64.8743 29.3716C64.8944 33.9402 64.8743 38.5189 64.8743 43.0874V46.908C68.6434 46.3016 71.7475 47.3022 74.3476 50.1828C72.7149 50.668 71.5258 51.5878 70.6288 52.8714V52.8613Z" fill="#ECEBFF"/>
<path d="M71.1529 50.7993C71.0219 50.8398 70.901 50.8802 70.78 50.9307C69.5404 51.4058 68.6132 52.2043 67.8876 53.2858C66.6682 55.1355 66.003 57.2276 65.731 59.4411C65.5192 61.1594 65.4386 62.8979 65.4185 64.6364C65.4084 66.2941 65.2572 67.9012 64.9146 69.4274V47.6053C67.1418 47.6761 69.0869 48.5656 70.78 50.3748C70.9111 50.5062 71.0319 50.6477 71.1529 50.7993Z" fill="#ECEBFF"/>
<path d="M43.4786 29.9375V45.7658C43.0251 46.16 42.6019 46.5845 42.2188 47.0394H37.6334V29.9375C37.6334 28.3203 38.9435 27.0063 40.5559 27.0063C41.3622 27.0063 42.0979 27.3298 42.622 27.8655C43.1461 28.3911 43.4786 29.1289 43.4786 29.9375Z" fill="white"/>
<path d="M63.6447 29.9375V47.0394H58.1924C58.0615 46.8877 57.9304 46.7361 57.7994 46.5946V29.9375C57.7994 28.3203 59.1095 27.0063 60.7221 27.0063C61.5284 27.0063 62.2641 27.3298 62.788 27.8655C63.3222 28.3911 63.6447 29.1289 63.6447 29.9375Z" fill="white"/>
<path d="M55.8141 25.1769V44.9269C54.2016 43.8858 52.2768 43.2793 50.2006 43.2793C48.4169 43.2793 46.7338 43.7342 45.2725 44.5327V25.1769C45.2725 22.2558 47.6307 19.8906 50.5433 19.8906C51.9945 19.8906 53.3147 20.4769 54.2721 21.4371C55.2296 22.3973 55.8141 23.7113 55.8141 25.1769Z" fill="#ECEBFF"/>
<path d="M43.4685 61.5839V78.797C43.2972 78.7464 43.1258 78.706 42.9545 78.6453C40.5962 77.8671 38.9031 76.3408 37.6534 74.3598V47.757C37.6534 47.757 37.6837 47.757 37.7039 47.757H41.6746C40.5156 49.4348 39.8303 51.4765 39.8303 53.6699C39.8303 56.8334 41.2413 59.6736 43.4584 61.5738L43.4685 61.5839Z" fill="white"/>
<path d="M36.1721 47.6053V71.3276C35.3355 69.0635 35.1138 66.6883 35.1642 64.2523C35.2449 60.7147 34.7712 57.2579 33.1285 54.1045C32.4634 52.8208 31.5664 51.8101 30.3469 51.2036C30.1353 51.0924 29.9136 51.0015 29.6817 50.9206C29.6112 50.8903 29.5508 50.8398 29.4298 50.7488C29.7221 50.4051 30.0345 50.0817 30.3469 49.7987C32.0299 48.2522 33.965 47.5447 36.1721 47.6155V47.6053Z" fill="#ECEBFF"/>
<path d="M55.7839 62.4532V79.0497C55.1994 79.1205 54.5846 79.1508 53.9698 79.1306C53.0124 79.1103 52.0651 78.9082 51.1077 78.8374C50.503 78.797 49.8782 78.7869 49.2735 78.8779C47.9331 79.08 46.5927 79.2114 45.2624 79.1002V62.8171C46.7338 63.6156 48.4168 64.0806 50.2108 64.0806C52.2667 64.0806 54.1714 63.4842 55.7839 62.4532Z" fill="#ECEBFF"/>
<path d="M63.7053 47.6458V72.8842C63.1913 73.9253 62.5462 74.9056 61.74 75.8355C60.5912 77.1596 59.281 78.039 57.8398 78.5545V60.7148C59.543 58.8651 60.5811 56.3889 60.5811 53.6699C60.5811 51.4766 59.9058 49.4349 58.7469 47.757H62.8385C63.1308 47.7065 63.4231 47.6661 63.7154 47.6357L63.7053 47.6458Z" fill="white"/>
<path d="M54.7055 53.68C54.7055 54.5593 54.4536 55.378 54.0202 56.0755C53.2241 57.349 51.8131 58.198 50.2006 58.198C48.8502 58.198 47.6308 57.6017 46.8144 56.6516C46.119 55.8632 45.7058 54.8221 45.7058 53.6901C45.7058 52.558 46.1291 51.517 46.8144 50.7286C47.2074 50.2737 47.6812 49.9099 48.2153 49.6471C48.8099 49.354 49.4852 49.1821 50.2006 49.1821C50.9162 49.1821 51.5813 49.3438 52.186 49.6471C52.9418 50.0211 53.5768 50.5972 54.0202 51.3047C54.4536 52.0021 54.7055 52.8208 54.7055 53.7002V53.68Z" fill="#0C0392"/>
<path d="M57.8398 49.5359C57.2654 48.4847 56.4792 47.5751 55.5319 46.8473C54.0907 45.7355 52.2868 45.0785 50.3216 45.0785C48.3563 45.0785 46.6834 45.6951 45.2725 46.726C44.5872 47.2314 43.9825 47.8277 43.4685 48.5151C42.3901 49.9503 41.7552 51.7394 41.7552 53.6699C41.7552 55.6004 42.3901 57.3996 43.4685 58.8347C43.9723 59.5119 44.5771 60.1083 45.2623 60.6137C46.6834 61.6547 48.437 62.2713 50.3316 62.2713C52.4077 62.2713 54.3023 61.5334 55.7839 60.3104C56.6203 59.6231 57.3157 58.7741 57.8398 57.8241C58.515 56.591 58.8979 55.186 58.8979 53.68C58.8979 52.174 58.515 50.769 57.8398 49.546V49.5359ZM55.7839 57.1671C54.6248 59.0268 52.5589 60.27 50.2107 60.27C48.2354 60.27 46.4617 59.4008 45.2623 58.006C44.2546 56.8538 43.6398 55.3376 43.6398 53.68C43.6398 52.0224 44.2546 50.5062 45.2623 49.354C45.8268 48.697 46.5221 48.1512 47.3183 47.7671C48.195 47.3325 49.1727 47.0899 50.2107 47.0899C51.2487 47.0899 52.2363 47.3325 53.1031 47.7671C54.2016 48.3129 55.1388 49.1518 55.7839 50.1929C56.4188 51.2037 56.7816 52.4064 56.7816 53.68C56.7816 54.9535 56.4188 56.1563 55.7839 57.1671Z" fill="#ECEBFF"/>
<path d="M77.1292 52.4267C77.5132 52.4267 77.8245 52.1145 77.8245 51.7293C77.8245 51.3441 77.5132 51.0319 77.1292 51.0319C76.7451 51.0319 76.4338 51.3441 76.4338 51.7293C76.4338 52.1145 76.7451 52.4267 77.1292 52.4267Z" fill="white"/>
<path d="M75.557 53.4273C75.9411 53.4273 76.2524 53.1151 76.2524 52.7299C76.2524 52.3447 75.9411 52.0325 75.557 52.0325C75.1729 52.0325 74.8616 52.3447 74.8616 52.7299C74.8616 53.1151 75.1729 53.4273 75.557 53.4273Z" fill="white"/>
<path d="M74.0956 54.8828C74.4797 54.8828 74.7911 54.5705 74.7911 54.1853C74.7911 53.8002 74.4797 53.4879 74.0956 53.4879C73.7116 53.4879 73.4002 53.8002 73.4002 54.1853C73.4002 54.5705 73.7116 54.8828 74.0956 54.8828Z" fill="white"/>
<path d="M73.0475 56.6414C73.4316 56.6414 73.7429 56.3292 73.7429 55.944C73.7429 55.5588 73.4316 55.2466 73.0475 55.2466C72.6635 55.2466 72.3522 55.5588 72.3522 55.944C72.3522 56.3292 72.6635 56.6414 73.0475 56.6414Z" fill="white"/>
<path d="M32.9067 36.3052C33.2908 36.3052 33.6021 35.993 33.6021 35.6078C33.6021 35.2227 33.2908 34.9104 32.9067 34.9104C32.5226 34.9104 32.2113 35.2227 32.2113 35.6078C32.2113 35.993 32.5226 36.3052 32.9067 36.3052Z" fill="white"/>
<path d="M32.9067 33.9704C33.2908 33.9704 33.6021 33.6581 33.6021 33.273C33.6021 32.8878 33.2908 32.5756 32.9067 32.5756C32.5226 32.5756 32.2113 32.8878 32.2113 33.273C32.2113 33.6581 32.5226 33.9704 32.9067 33.9704Z" fill="white"/>
<path d="M32.9067 31.6254C33.2908 31.6254 33.6021 31.3133 33.6021 30.9281C33.6021 30.5429 33.2908 30.2307 32.9067 30.2307C32.5226 30.2307 32.2113 30.5429 32.2113 30.9281C32.2113 31.3133 32.5226 31.6254 32.9067 31.6254Z" fill="white"/>
<path d="M23.6954 52.4874C24.0795 52.4874 24.3908 52.1752 24.3908 51.7899C24.3908 51.4048 24.0795 51.0925 23.6954 51.0925C23.3113 51.0925 23 51.4048 23 51.7899C23 52.1752 23.3113 52.4874 23.6954 52.4874Z" fill="white"/>
<path d="M25.4489 53.4273C25.833 53.4273 26.1444 53.1151 26.1444 52.7299C26.1444 52.3447 25.833 52.0325 25.4489 52.0325C25.0649 52.0325 24.7535 52.3447 24.7535 52.7299C24.7535 53.1151 25.0649 53.4273 25.4489 53.4273Z" fill="white"/>
<path d="M26.9606 54.5895C27.3447 54.5895 27.656 54.2773 27.656 53.8921C27.656 53.507 27.3447 53.1947 26.9606 53.1947C26.5767 53.1947 26.2653 53.507 26.2653 53.8921C26.2653 54.2773 26.5767 54.5895 26.9606 54.5895Z" fill="white"/>
<path d="M28.039 56.409C28.4231 56.409 28.7344 56.0967 28.7344 55.7116C28.7344 55.3264 28.4231 55.0142 28.039 55.0142C27.6549 55.0142 27.3436 55.3264 27.3436 55.7116C27.3436 56.0967 27.6549 56.409 28.039 56.409Z" fill="white"/>
</g>
</svg>
