<svg width="100" height="100" viewBox="0 0 100 100" fill="none" xmlns="http://www.w3.org/2000/svg">
<mask id="mask0_401_12919" style="mask-type:luminance" maskUnits="userSpaceOnUse" x="0" y="0" width="100" height="100">
<path d="M100 0H0V100H100V0Z" fill="white"/>
</mask>
<g mask="url(#mask0_401_12919)">
<path d="M92.0653 69.7615C87.6915 74.1634 82.195 76.7357 76.5059 77.4975C74.2664 90.2848 63.1863 100 49.8418 100C36.4973 100 25.3862 90.2598 23.1652 77.4538C10.0627 75.5433 0 64.1982 0 50.487C0 36.7757 9.98821 25.512 23.0163 23.5327C24.8216 10.246 36.1375 0 49.8418 0C63.5462 0 74.8309 10.221 76.6611 23.489C82.2941 24.2757 87.735 26.8481 92.0653 31.2126C102.643 41.8582 102.643 59.1158 92.0653 69.7615Z" fill="#5B9200"/>
</g>
<path d="M64.7284 60.8424V64.6544C64.6852 64.6112 64.6408 64.5692 64.5953 64.5272V60.2286C64.6412 60.4356 64.6856 60.6401 64.7284 60.8424Z" fill="#741104"/>
<path d="M66.0363 62.7955V62.8188H65.9943L66.0363 62.7955Z" fill="#741104" stroke="#DC9A79" stroke-miterlimit="10"/>
<path d="M71.7499 63.9062L71.7324 63.87C71.5128 63.3899 71.2129 62.9507 70.8456 62.5714C70.8025 62.5282 70.7581 62.4862 70.7126 62.4442C70.6344 62.373 70.5516 62.3053 70.4652 62.2412C70.3249 62.1353 70.1758 62.0416 70.0195 61.9611C69.7264 61.8095 69.4115 61.7044 69.0861 61.6496L68.9531 61.6297C68.8994 61.6227 68.8457 61.6169 68.7909 61.6122L68.7057 61.6064C68.5528 61.5947 68.4035 61.5901 68.26 61.5901C68.1164 61.5901 67.9578 61.5982 67.8142 61.6099L67.6812 61.6239C67.5972 61.6332 67.5144 61.6449 67.4338 61.6577C67.2787 61.6834 67.1293 61.7149 66.9881 61.7523C66.6752 61.8355 66.3723 61.9528 66.085 62.1023C66.0395 62.1256 65.9952 62.149 65.952 62.1735C65.8645 62.2225 65.7828 62.2715 65.7046 62.324C65.5485 62.4247 65.3995 62.5362 65.2589 62.6577C64.7642 63.0813 64.6288 63.3391 64.6288 63.3391L64.6708 64.1559L64.8715 68.1348L64.9438 69.5676L64.9625 69.9445V69.9609L67.0628 87.8132L67.071 87.8903L67.1071 88.1936C66.8236 88.5227 64.5401 89.5938 63.8832 89.5355C63.8372 89.5402 63.7923 89.5525 63.7502 89.5716L63.5028 89.637C63.3558 89.6755 63.2076 89.7128 63.0571 89.7537C62.8401 89.8066 62.6203 89.8571 62.3978 89.9054L62.2648 89.9345L62.0174 89.987L61.5717 90.0769C61.231 90.1434 60.8868 90.2052 60.5426 90.2647L60.4096 90.2869L60.1622 90.3277L59.7165 90.3989L59.4283 90.4433L59.2953 90.4631L59.0479 90.4981L58.6022 90.5599C58.1168 90.6265 57.6395 90.6848 57.181 90.7373L57.048 90.7525L56.8006 90.7805L56.3549 90.8283L56.0667 90.8575L55.9325 90.8715L55.6863 90.8948L55.2405 90.9357C54.6501 90.9893 54.1297 91.0302 53.7073 91.0593C53.544 91.0722 53.3946 91.0815 53.2616 91.0908L52.9734 91.1095L52.8404 91.1165L52.5382 91.1329C52.5382 91.0022 52.5382 90.8738 52.5382 90.7501C52.5408 90.1705 52.5053 89.5913 52.432 89.0162C52.432 89.0104 52.432 89.0046 52.432 88.9987C52.378 88.5664 52.2874 88.1393 52.1613 87.7222C52.1193 87.5857 52.075 87.4585 52.0283 87.3418C51.9583 87.1627 51.8756 86.9888 51.7809 86.8214C51.6605 86.607 51.5104 86.4106 51.3352 86.238C51.2032 86.0971 51.0391 85.9902 50.8568 85.9265V59.582L50.8125 59.5925C50.6778 59.6251 50.5402 59.6438 50.4017 59.6485C50.1588 59.6536 49.9174 59.6091 49.6923 59.5178V86.0642C49.5062 86.1834 49.342 86.3338 49.2069 86.5087C49.0214 86.7503 48.8713 87.017 48.7612 87.301C48.6373 87.6129 48.5409 87.935 48.473 88.2636C48.4146 88.532 48.3715 88.8027 48.34 89.0641C48.261 89.7221 48.2353 90.3855 48.2629 91.0477C47.7981 91.1008 47.3306 91.1281 46.8628 91.1294H46.7297H46.4824C46.3354 91.1294 46.186 91.1224 46.0366 91.1154L45.7484 91.1014L45.6154 91.0932L45.3681 91.0768L44.9223 91.0383C44.4883 90.9963 44.0515 90.9423 43.612 90.8761L43.479 90.8563L43.2316 90.819C43.0822 90.7945 42.9341 90.7688 42.7859 90.742L42.4977 90.6906L42.3647 90.6661L42.1173 90.6183L41.6716 90.5284C41.1278 90.4118 40.5923 90.2951 40.073 90.1609L39.94 90.1271L39.6926 90.0629C39.5421 90.0244 39.3939 89.9847 39.2469 89.9462L38.9587 89.868L38.8257 89.8318L38.5783 89.7618L38.1326 89.6323C37.7825 89.5285 37.443 89.4258 37.1245 89.3243L36.9914 89.2823L36.7452 89.2041L36.2983 89.0571C35.6309 88.8354 35.0802 88.6382 34.6916 88.4947C34.6916 88.378 34.6916 88.2543 34.6916 88.1306C34.7535 82.4657 36.1782 73.0086 36.1782 73.0086H36.1665V64.8723C36.2038 64.9715 36.2318 65.0579 36.2517 65.1267C36.2715 65.1956 36.2878 65.2551 36.296 65.2854V64.8968L36.3217 63.1839V63.1454C36.299 63.0985 36.2737 63.053 36.2458 63.0089C36.219 62.9634 36.1828 62.9086 36.1385 62.8456C36.1245 62.8246 36.1093 62.8036 36.0918 62.7814L36.0662 62.7476L36.0101 62.6764C35.9903 62.6519 35.9705 62.6274 35.9471 62.6017C35.9238 62.576 35.8783 62.5235 35.8409 62.485C35.8293 62.471 35.8165 62.4582 35.8024 62.4442C35.6223 62.2604 35.4223 62.0973 35.2062 61.9576C35.1864 61.9436 35.1654 61.9308 35.1444 61.9179C35.0895 61.8841 35.0277 61.8514 34.974 61.8188L34.9145 61.7873L34.8596 61.7593L34.736 61.6997L34.6391 61.6577L34.5224 61.6122L34.5014 61.6041C34.4221 61.5749 34.3393 61.5469 34.2541 61.5212C34.1078 61.4763 33.959 61.4405 33.8083 61.4139C33.764 61.4057 33.7197 61.3975 33.673 61.3917L33.5633 61.3765L33.4945 61.3684C33.4595 61.3684 33.4245 61.3602 33.3883 61.3579C33.3521 61.3555 33.2903 61.3497 33.2401 61.3474H33.1748H33.1071H33.0102C32.9589 61.3474 32.9087 61.3474 32.8597 61.3474H32.8492C32.7757 61.3474 32.7034 61.3474 32.6334 61.3474C32.5633 61.3474 32.4852 61.3532 32.414 61.3579C32.232 61.3684 32.064 61.387 31.8948 61.4115L31.8061 61.4255C31.6894 61.4442 31.5809 61.4664 31.4747 61.4921L31.3685 61.5177C31.3643 61.5167 31.3599 61.5167 31.3557 61.5177C31.3102 61.5282 31.2658 61.5411 31.2227 61.5539L31.1235 61.5842C31.0745 61.5994 31.0255 61.6157 30.9788 61.6332L30.959 61.6414L30.8621 61.6776C30.7839 61.7079 30.7081 61.7406 30.6369 61.7756L30.5331 61.8269C30.4852 61.8514 30.4386 61.8759 30.3931 61.9028L30.3172 61.9471C30.214 62.0103 30.1146 62.0797 30.0197 62.1548C29.9952 62.1735 29.9718 62.1933 29.9485 62.2132C29.9252 62.233 29.896 62.2587 29.8703 62.282L29.798 62.3508C29.7746 62.3742 29.7513 62.3975 29.7303 62.4208C29.7093 62.4442 29.6871 62.4675 29.6673 62.4909C29.6474 62.5142 29.6276 62.5364 29.6101 62.5597C29.5926 62.583 29.5529 62.6332 29.5296 62.6694C29.5199 62.6817 29.5109 62.6945 29.5028 62.7079C29.4622 62.7689 29.4255 62.8324 29.3931 62.8981C29.5599 62.2692 29.7758 61.4489 30.0278 60.4804C30.1667 59.9483 30.316 59.3708 30.4736 58.7559L30.5331 58.5225C30.5945 58.2829 30.6571 58.0383 30.7209 57.7886C30.7653 57.6182 30.8084 57.4455 30.8539 57.2705C30.8995 57.0955 30.9368 56.9449 30.9788 56.7804L31.2262 55.8003C31.2705 55.626 31.3148 55.4499 31.3592 55.2717C31.5179 54.6428 31.6789 53.9882 31.8434 53.329C31.9904 52.7347 32.139 52.1291 32.2891 51.5122C32.3312 51.3372 32.3743 51.1622 32.4175 50.9836L32.5342 50.4912L32.6672 49.9405C32.7314 49.671 32.7967 49.4014 32.8609 49.1237C32.9441 48.776 33.0266 48.426 33.1082 48.0736C33.1269 47.9931 33.1468 47.9126 33.1654 47.8321C33.1911 47.7247 33.2168 47.6162 33.2413 47.5077C33.3661 46.9779 33.4886 46.4459 33.6112 45.915L33.6182 45.8846C33.6788 45.6209 33.743 45.3666 33.8107 45.118C33.8258 45.0597 33.8422 45.0013 33.8585 44.943C33.9017 44.7913 33.946 44.6431 33.9915 44.4973C34.0755 44.2266 34.1631 43.9652 34.2564 43.712C34.3342 43.4926 34.4167 43.2803 34.5038 43.0749C34.5469 42.9687 34.5913 42.8661 34.6368 42.7645C34.8072 42.3783 34.9868 42.0154 35.1759 41.6759C35.1899 41.6491 35.205 41.6222 35.2202 41.5954C35.3509 41.362 35.4839 41.1415 35.6216 40.9303C35.6356 40.907 35.6508 40.8848 35.6659 40.8615C35.7336 40.7588 35.8001 40.6584 35.869 40.5616L35.9133 40.4986C35.9425 40.4577 35.9705 40.4169 36.002 40.3819L36.0463 40.3212C36.1117 40.2325 36.177 40.1474 36.2435 40.0634C36.3905 39.8755 36.5399 39.6993 36.6904 39.5313C36.7721 39.4403 36.8538 39.3516 36.9366 39.2664L36.9809 39.2197C37.0101 39.1894 37.0404 39.1591 37.0696 39.1311L37.114 39.0867C37.4164 38.7865 37.7384 38.5067 38.0778 38.2489L38.1221 38.2151C38.2563 38.1148 38.3905 38.0202 38.5235 37.9316L38.5678 37.9012C38.6355 37.8557 38.7043 37.8114 38.7708 37.7705L38.8152 37.7425L38.9039 37.6877L38.9482 37.6609L39.1921 37.5208L39.2364 37.4963C39.3729 37.4217 39.5059 37.3528 39.6378 37.2898L39.6821 37.2688C39.7498 37.235 39.8187 37.2046 39.8852 37.1743L39.9295 37.1545L40.0182 37.116L40.0625 37.0973C40.3241 36.986 40.5913 36.8883 40.863 36.8044H40.8781C41.1352 36.7238 41.3966 36.6576 41.6611 36.6061C41.8443 36.5687 41.9948 36.5465 42.1068 36.5337L42.2445 36.5185H42.3273C42.3268 36.5263 42.3268 36.5341 42.3273 36.5419C42.3331 36.5659 42.3401 36.5897 42.3483 36.6131C42.3847 36.725 42.4291 36.8342 42.4813 36.9398C42.5648 37.1076 42.6611 37.2687 42.7695 37.4217C42.9039 37.6097 43.053 37.7868 43.2153 37.9514C43.2911 38.0284 43.374 38.1078 43.4626 38.1848L43.5956 38.3015C43.998 38.6303 44.4378 38.9103 44.906 39.1357C45.0472 39.2046 45.1954 39.2722 45.3517 39.3388C45.4322 39.3726 45.5139 39.4053 45.5991 39.4379C45.6423 39.4554 45.6866 39.4718 45.7321 39.4881C45.8255 39.5231 45.9211 39.557 46.0203 39.5896C46.1638 39.6386 46.312 39.6841 46.466 39.7285C46.5466 39.753 46.6294 39.7751 46.7134 39.7973L46.8464 39.8323L46.9631 39.8603C46.9631 39.8603 47.9969 40.2407 48.2758 42.2278C48.2758 42.2278 48.2758 42.2348 48.2758 42.2371C48.2828 42.2838 48.2886 42.3317 48.2944 42.3807C48.3049 42.4728 48.3166 42.5837 48.3295 42.7097C48.3656 43.0668 48.41 43.5533 48.4625 44.1297C48.5418 45.0025 48.6387 46.083 48.7507 47.2335C48.8102 47.8379 48.8674 48.4621 48.9385 49.0852C48.9479 49.1739 48.9572 49.2638 48.9677 49.3524C48.9782 49.4411 48.9899 49.5555 49.0015 49.657C49.0015 49.7048 49.0121 49.7515 49.0179 49.7982C49.0307 49.9148 49.0447 50.0385 49.0587 50.1564C49.0692 50.2439 49.0797 50.3291 49.0902 50.4154C49.0902 50.4586 49.1007 50.5017 49.1054 50.5449C49.1346 50.797 49.1661 51.0455 49.1964 51.2905C49.5359 53.9555 49.9443 56.1387 50.3912 56.0582C50.7518 55.9928 51.068 54.2916 51.3247 52.1166C51.5032 50.6149 51.6526 48.888 51.7704 47.3163C51.8871 45.81 51.9676 44.4459 52.0178 43.565C52.0551 42.9221 52.0738 42.5347 52.0738 42.5347C52.0825 42.3549 52.1083 42.1764 52.1508 42.0014C52.2672 41.4892 52.4991 41.0103 52.8287 40.6013C52.8696 40.5499 52.9139 40.4997 52.9617 40.4496C53.0515 40.3514 53.1478 40.2594 53.25 40.1742C53.3897 40.0573 53.5388 39.9519 53.6957 39.8592C53.8765 39.7482 54.0666 39.6534 54.2639 39.5756C54.6396 39.4309 54.964 39.2979 55.2359 39.1766C55.4004 39.1042 55.5486 39.0354 55.6816 38.9712C55.7703 38.9292 55.852 38.8884 55.9278 38.8487L56.062 38.7798C56.1728 38.7215 56.2685 38.6632 56.3502 38.6177C56.5102 38.5307 56.6597 38.4258 56.7959 38.305L56.8088 38.2921C56.8929 38.2733 56.9723 38.2376 57.0421 38.1871C57.0883 38.1557 57.1327 38.1218 57.1751 38.0856C57.7737 37.5629 58.4271 36.2677 58.4271 36.2677C58.4435 36.2677 58.4995 36.2828 58.5917 36.305C58.6838 36.3272 58.8472 36.3739 59.0374 36.4334L59.2848 36.515L59.4178 36.5617C59.5088 36.5944 59.6045 36.6294 59.706 36.6691C59.8075 36.7087 59.9113 36.7496 60.0222 36.7962L60.1074 36.8324L60.1237 36.8394L60.1517 36.8511C60.2182 36.8791 60.2859 36.9094 60.3547 36.9409L60.3991 36.9608L60.4877 37.0016L60.5321 37.0214C60.8378 37.1638 61.1661 37.3326 61.5169 37.5278L61.5612 37.5524C61.6919 37.6259 61.8261 37.704 61.9626 37.7857L62.007 37.8126C62.0735 37.8522 62.1423 37.8942 62.21 37.9374L62.2543 37.9654L62.343 38.0226C62.3582 38.0307 62.3722 38.0412 62.3873 38.0506C62.5892 38.1813 62.7934 38.3201 63.0023 38.4695L63.0466 38.501C63.1796 38.5967 63.3126 38.6947 63.448 38.7985L63.4923 38.8324L63.6417 38.949C63.6592 38.963 63.6778 38.977 63.6953 38.9934C63.7128 39.0097 63.7245 39.0179 63.7397 39.0319C63.7548 39.0459 63.7992 39.0832 63.8284 39.1124C63.8575 39.1416 63.8575 39.1404 63.8727 39.1556C64.2951 39.5745 64.7432 40.2489 65.204 41.1147L65.2484 41.1987C65.3814 41.4519 65.5156 41.7214 65.6498 42.0049L65.6941 42.0983C65.7618 42.2418 65.8295 42.39 65.8971 42.5417L65.9415 42.6397L66.0302 42.8427L66.0745 42.9442C66.3604 43.6035 66.6486 44.3211 66.9333 45.0807L66.9776 45.1974C67.1122 45.5575 67.246 45.9274 67.379 46.307L67.4233 46.433C67.491 46.6267 67.5599 46.8228 67.6264 47.0165L67.6707 47.146C67.6999 47.2335 67.7302 47.321 67.7594 47.4097L67.8037 47.5415C67.9383 47.946 68.0721 48.3583 68.2051 48.7784C68.2203 48.825 68.2343 48.8717 68.2495 48.9184C68.3848 49.3501 68.5186 49.7869 68.6508 50.2287C68.666 50.2777 68.68 50.3267 68.6952 50.3757C68.7629 50.6091 68.8317 50.8355 68.8982 51.0665C68.9134 51.1167 68.9274 51.1668 68.9426 51.217C68.9717 51.3197 69.0021 51.4224 69.0312 51.5262C69.0464 51.5776 69.0604 51.6289 69.0756 51.6802C69.3906 52.7887 69.6905 53.9124 69.9693 55.0197C69.9845 55.078 69.9997 55.1364 70.0137 55.1935C70.1525 55.7536 70.2879 56.309 70.4151 56.8563C70.4303 56.9193 70.4454 56.9823 70.4594 57.0453C70.5294 57.344 70.5971 57.6415 70.6624 57.9356C70.6776 58.0021 70.6928 58.0686 70.7068 58.1339C70.7371 58.2705 70.7663 58.4058 70.7955 58.54C70.8106 58.61 70.8246 58.6788 70.8398 58.7477C71.2004 60.4337 71.4886 62.0078 71.6811 63.3613C71.7126 63.5538 71.7336 63.7289 71.7499 63.9062Z" fill="#DB0101"/>
<path d="M58.4005 36.3086C58.4005 36.3086 57.7471 37.6038 57.1485 38.1265C57.106 38.1627 57.0616 38.1966 57.0155 38.228C56.9456 38.2785 56.8662 38.3142 56.7821 38.333L56.7693 38.3459C56.6331 38.4667 56.4835 38.5716 56.3235 38.6586C56.2419 38.7076 56.1462 38.7624 56.0353 38.8207L55.9011 38.8896C55.8253 38.9293 55.7436 38.9701 55.6549 39.0063C55.5219 39.0704 55.3737 39.1393 55.2092 39.2116C54.9338 39.3283 54.613 39.466 54.2373 39.6107C54.0428 39.6847 53.855 39.7753 53.676 39.8814C53.5191 39.9741 53.3701 40.0795 53.2303 40.1964C53.1281 40.2816 53.0319 40.3736 52.9421 40.4718C52.8942 40.522 52.8499 40.5721 52.8091 40.6235C52.4794 41.0325 52.2476 41.5114 52.1311 42.0237C52.0886 42.1986 52.0629 42.3771 52.0541 42.5569C52.0541 42.5569 52.0355 42.9443 51.9981 43.5872C51.9479 44.4682 51.8639 45.8322 51.7507 47.3386C51.6341 48.9103 51.4836 50.6372 51.305 52.1389C51.0483 54.3138 50.7321 56.0151 50.3716 56.0804C49.9247 56.1609 49.5163 53.9801 49.1767 51.3128C49.1464 51.0677 49.1149 50.8192 49.0857 50.5672C49.1021 50.6897 49.1172 50.811 49.1324 50.9324C49.472 53.5974 49.8803 55.7805 50.3272 55.7C50.6878 55.6347 51.004 53.9334 51.2607 51.7585C51.4392 50.2568 51.5886 48.5299 51.7064 46.9582C51.8231 45.4518 51.9036 44.0878 51.9538 43.2068C51.9911 42.5639 52.0098 42.1765 52.0098 42.1765C52.0185 41.9967 52.0443 41.8182 52.0868 41.6433C52.1832 41.2187 52.3581 40.8158 52.6025 40.4555L52.1977 40.1124L50.2887 38.4975L48.2293 40.6363L47.9796 40.8954C48.1049 41.2606 48.189 41.6386 48.2305 42.0225C48.2386 42.089 48.2468 42.166 48.255 42.25C47.9761 40.2664 46.9423 39.8826 46.9423 39.8826L46.8256 39.8546L46.6926 39.8195C46.6086 39.7974 46.5257 39.7752 46.4452 39.7507C46.2912 39.7064 46.143 39.6609 45.9995 39.6119C45.9003 39.5792 45.8046 39.5453 45.7113 39.5103C45.6658 39.494 45.6214 39.4777 45.5783 39.4602C45.4931 39.4275 45.4114 39.3948 45.3309 39.361C45.1745 39.2945 45.0264 39.2268 44.8852 39.158C44.417 38.9326 43.9771 38.6525 43.5748 38.3237L43.4418 38.207C43.3531 38.1288 43.2703 38.0495 43.1944 37.9736C43.0321 37.8091 42.8831 37.6319 42.7487 37.4439C42.6403 37.291 42.5439 37.1299 42.4605 36.962C42.4083 36.8565 42.3638 36.7473 42.3275 36.6353C42.3193 36.6119 42.3123 36.5882 42.3065 36.5641C42.306 36.5563 42.306 36.5485 42.3065 36.5408H42.2237L44.2644 35.9025C44.2846 35.9009 44.3049 35.9009 44.3251 35.9025C44.5662 36.069 44.819 36.2246 45.0835 36.3693C46.2044 37.0019 47.4392 37.4072 48.717 37.5617L50.3097 38.0681C50.3097 38.0681 51.6399 37.5956 52.0915 37.5221C52.3496 37.4804 52.6045 37.4211 52.8546 37.3447C53.7274 37.1478 54.5721 36.8425 55.3691 36.4358C55.6386 36.2981 55.8941 36.1534 56.1392 36.0005C56.3447 35.9102 56.537 35.7924 56.7109 35.6505L58.4005 36.3086Z" fill="#F3F3F3"/>
<path d="M47.0986 37.0171L49.0215 37.6169C47.6361 37.4904 46.2932 37.0721 45.0811 36.3894L47.0986 37.0171Z" fill="#F3F3F3"/>
<path d="M54.5416 36.6354C54.8111 36.5817 55.09 36.5187 55.3665 36.4557C54.3453 36.9745 53.2486 37.3289 52.1169 37.5058C51.6472 37.5816 51.1734 37.6299 50.6981 37.6505L52.6117 36.9574C52.6117 36.9574 53.2348 36.8757 54.048 36.724C54.2067 36.7007 54.3724 36.6692 54.5416 36.6354Z" fill="#F3F3F3"/>
<path d="M52.816 40.5908C52.5231 41.0179 52.1883 41.2909 52.1159 41.6153C52.0734 41.7902 52.0476 41.9688 52.0389 42.1486C52.0389 42.1486 52.0202 42.5359 51.9829 43.1789C51.9327 44.0598 51.8487 45.4238 51.7355 46.9302C51.6188 48.5019 51.4683 50.2288 51.2898 51.7305C51.0331 53.9055 50.7169 55.6067 50.3563 55.672C49.9095 55.7525 49.5011 53.5717 49.1615 50.9044C49.1464 50.7877 49.1312 50.6617 49.1148 50.5392C49.1148 50.496 49.1055 50.4528 49.0997 50.4097C49.0892 50.3233 49.0787 50.2381 49.0682 50.1506C49.0542 50.0339 49.0402 49.9173 49.0273 49.7924C49.0273 49.7457 49.0157 49.6991 49.011 49.6512C48.9993 49.5497 48.9877 49.4482 48.9772 49.3467C48.9667 49.2452 48.9573 49.1682 48.948 49.0795C48.8826 48.4564 48.8196 47.8321 48.7601 47.2277C48.6434 46.0772 48.5513 44.9968 48.4719 44.124C48.4194 43.5476 48.3751 43.061 48.3389 42.704C48.3261 42.5779 48.3144 42.4706 48.3039 42.3749C48.2981 42.3259 48.2922 42.2781 48.2852 42.2314C48.2852 42.2314 48.2852 42.2314 48.2852 42.2221C48.2771 42.138 48.2689 42.061 48.2607 41.9887C48.2046 41.6155 48.1026 41.2507 47.9574 40.9024L48.2596 40.6025L50.2992 38.4637L52.2279 40.0786L52.816 40.5908Z" fill="#F3F3F3"/>
<path d="M60.0283 36.7998V36.8068L59.6689 38.935L59.3807 40.6409L59.2477 41.4274L59.0003 42.8917L58.5546 45.5299L58.1859 47.7119L57.1357 47.6722H57.0027L56.7554 47.6629L56.3096 47.6465L56.0144 47.6267H55.8802L55.634 47.6174L55.1883 47.5999L54.8616 47.5882C54.8616 47.5882 53.9398 54.6265 53.9083 55.5494C53.8761 55.8452 53.7903 56.1327 53.6551 56.3977C53.5286 56.6742 53.3812 56.9406 53.2141 57.1946C53.1254 57.33 53.0297 57.4653 52.9259 57.5984C52.8831 57.6552 52.8387 57.7112 52.7928 57.7664C52.5874 58.0188 52.3606 58.253 52.1149 58.4665C52.0717 58.505 52.0274 58.5412 51.9819 58.5773C51.9014 58.6427 51.8185 58.7033 51.7345 58.7617C51.593 58.8597 51.444 58.9463 51.2888 59.0207C51.1356 59.0959 50.9754 59.1557 50.8104 59.1992C50.6617 59.2383 50.509 59.2606 50.3553 59.2658C50.1124 59.2709 49.871 59.2264 49.6459 59.1351C49.4758 59.0677 49.3131 58.9829 49.1605 58.8819C49.0037 58.7804 48.8547 58.6673 48.7148 58.5435C48.6156 58.4595 48.5199 58.3685 48.4266 58.2751C48.3811 58.2296 48.3367 58.1841 48.2936 58.1374C47.7174 57.4997 47.2206 56.7944 46.814 56.0372L46.7825 55.9777L46.681 55.0442L46.4337 52.7759L45.9879 48.692L45.8911 47.8041L45.6997 47.7901L45.5667 47.7796L45.3193 47.7609L44.8736 47.7282L43.5633 47.6302L43.4303 47.6197L43.1829 47.601L42.7372 47.5684L42.603 47.5579L42.4489 46.5941L42.3159 45.7609L42.0686 44.2137L41.6228 41.4239L40.8842 36.8044C41.1413 36.7238 41.4027 36.6576 41.6672 36.6061C41.8504 36.5687 42.0009 36.5465 42.1129 36.5337L42.2506 36.5185H42.3334C42.3329 36.5263 42.3329 36.5341 42.3334 36.5419C42.3392 36.5659 42.3463 36.5897 42.3544 36.6131C42.3908 36.725 42.4352 36.8342 42.4874 36.9398C42.5709 37.1076 42.6673 37.2687 42.7757 37.4217C42.9101 37.6097 43.0591 37.7868 43.2214 37.9514C43.2972 38.0284 43.3801 38.1078 43.4688 38.1848L43.6018 38.3015C44.0041 38.6303 44.4439 38.9103 44.9121 39.1357C45.0533 39.2046 45.2015 39.2722 45.3578 39.3388C45.4384 39.3726 45.52 39.4053 45.6052 39.4379C45.6484 39.4554 45.6927 39.4718 45.7382 39.4881C45.8316 39.5231 45.9273 39.557 46.0264 39.5896C46.17 39.6386 46.3181 39.6841 46.4722 39.7285C46.5527 39.753 46.6355 39.7751 46.7195 39.7973L46.8525 39.8323L46.9692 39.8603C46.9692 39.8603 48.003 40.2407 48.2819 42.2278C48.2819 42.2278 48.2819 42.2348 48.2819 42.2371C48.2819 42.2675 48.2819 42.2978 48.2912 42.3293C48.3274 42.6864 48.3717 43.1729 48.4242 43.7493C48.5036 44.6221 48.6004 45.7026 48.7125 46.8531C48.7836 47.58 48.8606 48.335 48.9458 49.0852C48.9552 49.1739 48.9645 49.2638 48.975 49.3524C48.9855 49.4411 48.9972 49.5555 49.0088 49.657C49.0088 49.7048 49.0193 49.7515 49.0252 49.7982C49.038 49.9148 49.052 50.0385 49.066 50.1564C49.0765 50.2439 49.087 50.3291 49.0975 50.4154C49.0975 50.4586 49.108 50.5017 49.1127 50.5449C49.1418 50.797 49.1734 51.0455 49.2037 51.2905C49.5432 53.9555 49.9516 56.1387 50.3985 56.0582C50.7591 55.9928 51.0753 54.2916 51.332 52.1166C51.5105 50.6149 51.6598 48.888 51.7777 47.3163C51.8944 45.81 51.9749 44.4459 52.0251 43.565C52.0624 42.9221 52.0811 42.5347 52.0811 42.5347C52.0898 42.3549 52.1156 42.1764 52.1581 42.0014C52.2745 41.4892 52.5064 41.0103 52.836 40.6013C52.8768 40.5499 52.9212 40.4997 52.969 40.4496C53.0588 40.3514 53.1551 40.2594 53.2572 40.1742C53.397 40.0573 53.5461 39.9519 53.7029 39.8592C53.8815 39.7486 54.0693 39.6537 54.2642 39.5756C54.6399 39.4309 54.9643 39.2979 55.2362 39.1766C55.4007 39.1042 55.5489 39.0354 55.6819 38.9712C55.7706 38.9292 55.8522 38.8884 55.9281 38.8487L56.0623 38.7798C56.1731 38.7215 56.2688 38.6632 56.3505 38.6177C56.5105 38.5307 56.66 38.4258 56.7962 38.305L56.809 38.2921C56.8932 38.2733 56.9726 38.2376 57.0424 38.1871C57.0885 38.1557 57.1329 38.1218 57.1754 38.0856C57.774 37.5629 58.4274 36.2677 58.4274 36.2677C58.4438 36.2677 58.4998 36.2828 58.5919 36.305C58.6841 36.3272 58.8475 36.3739 59.0377 36.4334L59.285 36.515L59.4181 36.5617C59.5091 36.5944 59.6047 36.6294 59.7063 36.6691C59.8078 36.7087 59.9175 36.7531 60.0283 36.7998Z" fill="#FFBE3D" stroke="#DB0101" stroke-miterlimit="10"/>
<path d="M58.5531 41.9944L58.5286 42.2091L58.4516 42.8742L58.4049 43.2721L58.3746 43.5381L58.2976 44.202L58.2194 44.8671L58.1424 45.531L58.0666 46.195L57.9884 46.8601L57.9686 47.0351H54.2499L54.202 47.524L54.1379 48.1879L54.0725 48.8518L54.0072 49.5169L53.943 50.1808L53.8777 50.8448L53.8135 51.5098L53.7552 52.1026L53.7482 52.1738L53.684 52.8377L53.6186 53.5028L53.5533 54.1667L53.4891 54.8306L53.4238 55.4945L53.3888 55.8563C53.3888 55.8563 53.3269 55.9729 53.2161 56.1596C53.1799 56.2203 53.1391 56.2903 53.0912 56.365C53.0072 56.5015 52.9057 56.6567 52.7914 56.8236C52.677 56.9904 52.558 57.1491 52.4261 57.316C52.3818 57.3731 52.3351 57.4326 52.2873 57.4875C52.1242 57.685 51.9488 57.872 51.7622 58.0476C51.7249 58.0837 51.6864 58.1187 51.6456 58.1526C51.4762 58.303 51.292 58.4359 51.096 58.5493C50.8935 58.6679 50.6693 58.7449 50.4367 58.7757C50.2097 58.7946 49.9816 58.7569 49.7728 58.666C49.5339 58.5642 49.3104 58.4295 49.1089 58.2658C49.0622 58.2296 49.0167 58.1911 48.9712 58.1491C48.7851 57.9871 48.609 57.8141 48.4438 57.631C48.3994 57.582 48.3563 57.533 48.3143 57.484C48.1182 57.2576 47.9409 57.0278 47.7915 56.8201L47.7799 56.8037C47.5803 56.526 47.4298 56.2903 47.3493 56.1561C47.3015 56.0803 47.277 56.0395 47.277 56.0395L47.2116 55.4934L47.1334 54.8295L47.1159 54.6871L47.0541 54.1655L46.9748 53.5016L46.8954 52.8365L46.8161 52.1726L46.7379 51.5087L46.6585 50.8436L46.4999 49.5157H47.1159V48.8507H46.4462V49.1109L46.4147 48.8507L46.3365 48.1867L46.2572 47.5228L46.1953 47.0036L45.7811 46.9919L45.1172 46.9732L44.4533 46.9557L43.7882 46.9371L43.1242 46.9184L42.8757 46.9114L42.8675 46.8589L42.759 46.1938L42.6517 45.5299L42.5432 44.866L42.4603 44.3549L42.4346 44.2009L42.22 42.873L42.1114 42.2079L42.0764 41.9932H47.5477C47.5477 41.9932 47.5547 42.0679 47.5663 42.2079C47.578 42.348 47.6002 42.5848 47.6258 42.873C47.643 43.0675 47.6636 43.2888 47.6877 43.5369C47.7064 43.7423 47.7274 43.9636 47.7507 44.2009C47.7577 44.2802 47.7659 44.3619 47.774 44.4459C47.7869 44.5813 47.8009 44.7213 47.8149 44.866C47.8359 45.0799 47.858 45.3012 47.8814 45.5299C47.9039 45.7461 47.9265 45.9674 47.949 46.1938C47.9712 46.4108 47.9946 46.6337 48.0191 46.8589C48.0436 47.0841 48.0657 47.2988 48.0902 47.5228C48.1147 47.7468 48.1392 47.9639 48.1637 48.1867C48.1882 48.4096 48.2151 48.6278 48.2396 48.8507C48.2641 49.0735 48.2921 49.2941 48.3189 49.5157C48.3458 49.7374 48.3726 49.9603 48.4006 50.1797C48.4134 50.2812 48.4251 50.3815 48.4379 50.4807C48.4543 50.5974 48.4694 50.7234 48.4858 50.8436C48.5153 51.0684 48.5449 51.2901 48.5745 51.5087C48.6048 51.7339 48.6363 51.9567 48.6678 52.1726C48.6993 52.3885 48.7343 52.6218 48.7682 52.8365C48.802 53.0512 48.8393 53.2881 48.8755 53.5016C48.9152 53.735 48.9548 53.9567 48.9922 54.1655C49.0284 54.3557 49.0645 54.5354 49.1007 54.7034C49.11 54.7462 49.1194 54.7882 49.1287 54.8295C49.1847 55.0838 49.2454 55.3067 49.2979 55.4934C49.3476 55.6976 49.4303 55.8923 49.5429 56.0698C49.5674 56.1013 49.5919 56.1305 49.6153 56.1585C49.6621 56.2144 49.712 56.2678 49.7646 56.3183C50.005 56.5517 50.2314 56.6322 50.4285 56.603C50.6257 56.5739 50.8451 56.4093 51.0201 56.1585C51.0446 56.1235 51.0691 56.0861 51.0936 56.0476C51.2006 55.8706 51.2931 55.6853 51.3702 55.4934C51.4192 55.3767 51.4659 55.2483 51.5102 55.1177C51.5399 55.0231 51.5641 54.9269 51.5825 54.8295C51.6187 54.6568 51.6572 54.4327 51.6992 54.1655C51.7191 54.0337 51.7389 53.8913 51.7599 53.7408C51.7704 53.6638 51.7809 53.5833 51.7914 53.5016C51.8186 53.2939 51.8462 53.0722 51.8742 52.8365C51.8999 52.6253 51.9256 52.4025 51.9513 52.1726C51.9769 51.9427 52.0003 51.7362 52.0248 51.5087C52.0493 51.2812 52.0714 51.07 52.0948 50.8436C52.1181 50.6172 52.1403 50.4037 52.1624 50.1797C52.1846 49.9556 52.2068 49.7386 52.229 49.5157C52.2511 49.2929 52.271 49.0724 52.292 48.8507C52.313 48.629 52.3351 48.4073 52.3561 48.1867C52.3771 47.9662 52.397 47.7433 52.4168 47.5228L52.4238 47.4516C52.4425 47.2521 52.46 47.0549 52.4775 46.8589C52.4985 46.6333 52.5183 46.4116 52.537 46.1938C52.5557 45.976 52.5755 45.7547 52.5965 45.5299C52.6163 45.2965 52.6362 45.0795 52.6537 44.866C52.6712 44.6524 52.6933 44.4121 52.712 44.2009C52.7319 43.9675 52.7505 43.7423 52.768 43.5369C52.7879 43.2907 52.8065 43.0702 52.8229 42.873C52.8474 42.586 52.866 42.3585 52.8777 42.2079C52.8894 42.0574 52.8952 41.9932 52.8952 41.9932L58.5531 41.9944Z" stroke="#DB0101" stroke-width="2" stroke-miterlimit="10"/>
<path d="M67.3512 64.9388C67.3777 65.7392 67.2375 66.5363 66.9393 67.2795C66.7245 67.8031 66.4187 68.2846 66.0362 68.7018C65.9919 68.7508 65.9475 68.7975 65.9032 68.8407C65.8192 68.9259 65.7352 69.0029 65.6558 69.074C65.5151 69.1969 65.3662 69.3099 65.2101 69.4124C65.1157 69.4766 65.0171 69.5343 64.9149 69.5851L64.4925 64.4266C64.6092 64.2679 65.0071 63.709 65.2101 63.4931C65.3505 63.3465 65.4993 63.2082 65.6558 63.0789C65.734 63.0136 65.8169 62.9494 65.9032 62.8864C65.9324 62.8642 65.9627 62.8432 65.9942 62.821H66.0362C66.2088 62.7953 66.3852 62.8188 66.545 62.889C66.7049 62.9592 66.8415 63.0732 66.9393 63.2178C67.175 63.5398 67.3326 64.0789 67.3512 64.9388Z" fill="#FFD1BC"/>
<path d="M43.1268 41.9946H42.4628V42.2093H43.1268V41.9946Z" fill="#DB0101"/>
<path d="M42.4629 41.9946V42.2093H42.114L42.079 41.9946H42.4629Z" fill="#FFBE3D"/>
<path d="M43.7907 41.9946H43.1268V42.2093H43.7907V41.9946Z" fill="#FFBE3D"/>
<path d="M44.4559 41.9946H43.7908V42.2093H44.4559V41.9946Z" fill="#DB0101"/>
<path d="M45.1197 41.9946H44.4557V42.2093H45.1197V41.9946Z" fill="#FFBE3D"/>
<path d="M45.7838 41.9946H45.1199V42.2093H45.7838V41.9946Z" fill="#DB0101"/>
<path d="M46.4487 41.9946H45.7836V42.2093H46.4487V41.9946Z" fill="#FFBE3D"/>
<path d="M47.1128 41.9946H46.4489V42.2093H47.1128V41.9946Z" fill="#DB0101"/>
<path d="M47.5688 42.2093H47.1126V41.9946H47.5501C47.5501 41.9946 47.5571 42.0693 47.5688 42.2093Z" fill="#FFBE3D"/>
<path d="M43.1268 42.2103H42.4628V42.8742H43.1268V42.2103Z" fill="#FFBE3D"/>
<path d="M42.4629 42.2092V42.8743H42.2225L42.114 42.2092H42.4629Z" fill="#DB0101"/>
<path d="M43.7907 42.2103H43.1268V42.8742H43.7907V42.2103Z" fill="#DB0101"/>
<path d="M44.4547 42.2103H43.7908V42.8742H44.4547V42.2103Z" fill="#FFBE3D"/>
<path d="M45.1197 42.2103H44.4557V42.8742H45.1197V42.2103Z" fill="#DB0101"/>
<path d="M45.7838 42.2103H45.1199V42.8742H45.7838V42.2103Z" fill="#FFBE3D"/>
<path d="M46.4475 42.2103H45.7836V42.8742H46.4475V42.2103Z" fill="#DB0101"/>
<path d="M47.1128 42.2103H46.4489V42.8742H47.1128V42.2103Z" fill="#FFBE3D"/>
<path d="M47.6283 42.8743H47.1126V42.2092H47.5688C47.5816 42.3597 47.6026 42.5861 47.6283 42.8743Z" fill="#DB0101"/>
<path d="M43.1268 42.8743H42.4628V43.5383H43.1268V42.8743Z" fill="#DB0101"/>
<path d="M42.4629 42.8743V43.5383H42.3299L42.2226 42.8743H42.4629Z" fill="#FFBE3D"/>
<path d="M43.7907 42.8743H43.1268V43.5383H43.7907V42.8743Z" fill="#FFBE3D"/>
<path d="M44.4547 42.8743H43.7908V43.5383H44.4547V42.8743Z" fill="#DB0101"/>
<path d="M45.1197 42.8743H44.4557V43.5383H45.1197V42.8743Z" fill="#FFBE3D"/>
<path d="M45.7838 42.8743H45.1199V43.5383H45.7838V42.8743Z" fill="#DB0101"/>
<path d="M46.4475 42.8743H45.7836V43.5383H46.4475V42.8743Z" fill="#FFBE3D"/>
<path d="M47.1128 42.8743H46.4489V43.5383H47.1128V42.8743Z" fill="#DB0101"/>
<path d="M47.6901 43.5429H47.1067V42.879H47.6224C47.6442 43.0704 47.6668 43.2917 47.6901 43.5429Z" fill="#FFBE3D"/>
<path d="M43.1268 43.5383H42.4628V44.2022H43.1268V43.5383Z" fill="#FFBE3D"/>
<path d="M42.4627 43.5383V44.2022H42.437L42.3297 43.5383H42.4627Z" fill="#DB0101"/>
<path d="M43.7907 43.5383H43.1268V44.2022H43.7907V43.5383Z" fill="#DB0101"/>
<path d="M44.4547 43.5383H43.7908V44.2022H44.4547V43.5383Z" fill="#FFBE3D"/>
<path d="M45.1197 43.5383H44.4557V44.2022H45.1197V43.5383Z" fill="#DB0101"/>
<path d="M45.7838 43.5383H45.1199V44.2022H45.7838V43.5383Z" fill="#FFBE3D"/>
<path d="M46.4475 43.5383H45.7836V44.2022H46.4475V43.5383Z" fill="#DB0101"/>
<path d="M47.1128 43.5383H46.4489V44.2022H47.1128V43.5383Z" fill="#FFBE3D"/>
<path d="M47.7532 44.2023H47.1126V43.5431H47.696C47.7108 43.7453 47.7298 43.9651 47.7532 44.2023Z" fill="#DB0101"/>
<path d="M43.1268 44.2021V44.8672H42.5457L42.4628 44.3561V44.2021H43.1268Z" fill="#DB0101"/>
<path d="M42.4628 44.2021V44.3561L42.4371 44.2021H42.4628Z" fill="#FFBE3D"/>
<path d="M43.7907 44.2021H43.1268V44.866H43.7907V44.2021Z" fill="#FFBE3D"/>
<path d="M44.4547 44.2021H43.7908V44.866H44.4547V44.2021Z" fill="#DB0101"/>
<path d="M45.1197 44.2021H44.4557V44.866H45.1197V44.2021Z" fill="#FFBE3D"/>
<path d="M45.7838 44.2021H45.1199V44.866H45.7838V44.2021Z" fill="#DB0101"/>
<path d="M46.4475 44.2021H45.7836V44.866H46.4475V44.2021Z" fill="#FFBE3D"/>
<path d="M47.1128 44.2021H46.4489V44.866H47.1128V44.2021Z" fill="#DB0101"/>
<path d="M47.7765 44.4472V44.8672H47.1126V44.2021H47.7532C47.7602 44.2815 47.7683 44.3596 47.7765 44.4472Z" fill="#FFBE3D"/>
<path d="M43.1269 44.8674V45.5313H42.6543L42.5458 44.8674H43.1269Z" fill="#FFBE3D"/>
<path d="M43.7907 44.8674H43.1268V45.5313H43.7907V44.8674Z" fill="#DB0101"/>
<path d="M44.4547 44.8674H43.7908V45.5313H44.4547V44.8674Z" fill="#FFBE3D"/>
<path d="M45.1197 44.8674H44.4557V45.5313H45.1197V44.8674Z" fill="#DB0101"/>
<path d="M45.7838 44.8674H45.1199V45.5313H45.7838V44.8674Z" fill="#FFBE3D"/>
<path d="M46.4475 44.8674H45.7836V45.5313H46.4475V44.8674Z" fill="#DB0101"/>
<path d="M47.1128 44.8674H46.4489V45.5313H47.1128V44.8674Z" fill="#FFBE3D"/>
<path d="M47.7765 44.8674H47.1126V45.5313H47.7765V44.8674Z" fill="#DB0101"/>
<path d="M43.1269 45.531V46.1949H42.7617L42.6544 45.531H43.1269Z" fill="#DB0101"/>
<path d="M43.7907 45.531H43.1268V46.1949H43.7907V45.531Z" fill="#FFBE3D"/>
<path d="M44.4547 45.531H43.7908V46.1949H44.4547V45.531Z" fill="#DB0101"/>
<path d="M45.1197 45.531H44.4557V46.1949H45.1197V45.531Z" fill="#FFBE3D"/>
<path d="M45.7838 45.531H45.1199V46.1949H45.7838V45.531Z" fill="#DB0101"/>
<path d="M46.4475 45.531H45.7836V46.1949H46.4475V45.531Z" fill="#FFBE3D"/>
<path d="M47.1128 45.531H46.4489V46.1949H47.1128V45.531Z" fill="#DB0101"/>
<path d="M47.7765 45.531H47.1126V46.1949H47.7765V45.531Z" fill="#FFBE3D"/>
<path d="M43.1268 46.1952V46.8603H42.8701L42.7616 46.1952H43.1268Z" fill="#FFBE3D"/>
<path d="M43.7907 46.1952H43.1268V46.8591H43.7907V46.1952Z" fill="#DB0101"/>
<path d="M44.4547 46.1952H43.7908V46.8591H44.4547V46.1952Z" fill="#FFBE3D"/>
<path d="M45.1197 46.1952H44.4557V46.8591H45.1197V46.1952Z" fill="#DB0101"/>
<path d="M45.7838 46.1952H45.1199V46.8591H45.7838V46.1952Z" fill="#FFBE3D"/>
<path d="M46.4475 46.1952H45.7836V46.8591H46.4475V46.1952Z" fill="#DB0101"/>
<path d="M47.1128 46.1952H46.4489V46.8591H47.1128V46.1952Z" fill="#FFBE3D"/>
<path d="M47.7765 46.1952H47.1126V46.8591H47.7765V46.1952Z" fill="#DB0101"/>
<path d="M43.1269 46.8601V46.9196L42.8784 46.9126L42.8702 46.8601H43.1269Z" fill="#DB0101"/>
<path d="M43.7907 46.8601V46.9383L43.1268 46.9196V46.8601H43.7907Z" fill="#FFBE3D"/>
<path d="M44.4559 46.8601V46.9569L43.7908 46.9383V46.8601H44.4559Z" fill="#DB0101"/>
<path d="M45.1197 46.8601V46.9744L44.4557 46.9569V46.8601H45.1197Z" fill="#FFBE3D"/>
<path d="M45.7838 46.8601V46.9931L45.1199 46.9744V46.8601H45.7838Z" fill="#DB0101"/>
<path d="M46.4487 46.8601V47.524H46.2597L46.1978 47.0048L45.7836 46.9931V46.8601H46.4487Z" fill="#FFBE3D"/>
<path d="M47.1128 46.8601H46.4489V47.524H47.1128V46.8601Z" fill="#DB0101"/>
<path d="M47.7765 46.8601H47.1126V47.524H47.7765V46.8601Z" fill="#FFBE3D"/>
<path d="M46.4488 47.5243V48.1882H46.3391L46.2598 47.5243H46.4488Z" fill="#DB0101"/>
<path d="M47.1128 47.5243H46.4489V48.1882H47.1128V47.5243Z" fill="#FFBE3D"/>
<path d="M47.7765 47.5243H47.1126V48.1882H47.7765V47.5243Z" fill="#DB0101"/>
<path d="M46.4487 48.1881V48.852H46.4173L46.3391 48.1881H46.4487Z" fill="#FFBE3D"/>
<path d="M47.1128 48.1881H46.4489V48.852H47.1128V48.1881Z" fill="#DB0101"/>
<path d="M47.7765 48.1881H47.1126V48.852H47.7765V48.1881Z" fill="#FFBE3D"/>
<path d="M47.1128 48.8519V49.517H46.4967L46.4489 49.1121V48.8519H47.1128Z" fill="#FFBE3D"/>
<path d="M47.7765 48.853H47.1126V49.5169H47.7765V48.853Z" fill="#DB0101"/>
<path d="M47.1126 49.5172V50.1811H46.5759L46.4965 49.5172H47.1126Z" fill="#DB0101"/>
<path d="M47.7765 49.5172H47.1126V50.1811H47.7765V49.5172Z" fill="#FFBE3D"/>
<path d="M47.1126 50.181V50.8449H46.6552L46.5759 50.181H47.1126Z" fill="#FFBE3D"/>
<path d="M47.7765 50.181H47.1126V50.8449H47.7765V50.181Z" fill="#DB0101"/>
<path d="M47.1126 50.8448V51.5099H46.7346L46.6552 50.8448H47.1126Z" fill="#DB0101"/>
<path d="M47.7765 50.8448H47.1126V51.5087H47.7765V50.8448Z" fill="#FFBE3D"/>
<path d="M47.1128 51.5099V52.1738H46.8129L46.7348 51.5099H47.1128Z" fill="#FFBE3D"/>
<path d="M47.7765 51.5099H47.1126V52.1738H47.7765V51.5099Z" fill="#DB0101"/>
<path d="M47.1127 52.174V52.838H46.8922L46.8128 52.174H47.1127Z" fill="#DB0101"/>
<path d="M47.7765 52.174H47.1126V52.838H47.7765V52.174Z" fill="#FFBE3D"/>
<path d="M47.1127 52.8381V53.5032H46.9715L46.8922 52.8381H47.1127Z" fill="#FFBE3D"/>
<path d="M47.7765 52.8381H47.1126V53.502H47.7765V52.8381Z" fill="#DB0101"/>
<path d="M47.1127 53.5031V54.1671H47.0509L46.9715 53.5031H47.1127Z" fill="#DB0101"/>
<path d="M47.7765 53.5031H47.1126V54.1671H47.7765V53.5031Z" fill="#FFBE3D"/>
<path d="M47.1127 54.1666V54.6882L47.0509 54.1666H47.1127Z" fill="#FFBE3D"/>
<path d="M47.7765 54.1666H47.1126V54.8305H47.7765V54.1666Z" fill="#DB0101"/>
<path d="M47.7766 54.8308V55.4947H47.2084L47.1302 54.8308H47.7766Z" fill="#FFBE3D"/>
<path d="M47.7766 55.4949V56.1599H47.3461C47.2982 56.0841 47.2737 56.0433 47.2737 56.0433L47.2084 55.4972L47.7766 55.4949Z" fill="#DB0101"/>
<path d="M47.7765 56.1599V56.8075C47.577 56.5298 47.4265 56.2941 47.346 56.1599H47.7765Z" fill="#FFBE3D"/>
<path d="M53.0973 41.9946V42.2093H52.8861C52.8978 42.0693 52.9036 41.9946 52.9036 41.9946H53.0973Z" fill="#FFBE3D"/>
<path d="M53.7553 41.9946H53.0914V42.2093H53.7553V41.9946Z" fill="#DB0101"/>
<path d="M53.0973 42.2092V42.8743H52.8313C52.8558 42.5873 52.8744 42.3597 52.8861 42.2092H53.0973Z" fill="#DB0101"/>
<path d="M53.7553 42.2103H53.0914V42.8742H53.7553V42.2103Z" fill="#FFBE3D"/>
<path d="M53.0973 42.8743V43.5429H52.7764C52.7962 43.2967 52.8149 43.0762 52.8312 42.879L53.0973 42.8743Z" fill="#FFBE3D"/>
<path d="M53.7553 42.8743H53.0914V43.5383H53.7553V42.8743Z" fill="#DB0101"/>
<path d="M53.0972 43.5431V44.207H52.7203C52.7401 43.9736 52.7588 43.7484 52.7763 43.5431H53.0972Z" fill="#DB0101"/>
<path d="M53.7553 43.5383H53.0914V44.2022H53.7553V43.5383Z" fill="#FFBE3D"/>
<path d="M47.8174 44.8674H47.7766V44.4474C47.7894 44.5827 47.8034 44.7227 47.8174 44.8674Z" fill="#DB0101"/>
<path d="M53.0973 44.2021V44.8672H52.6621C52.6831 44.6339 52.7017 44.4133 52.7204 44.2021H53.0973Z" fill="#FFBE3D"/>
<path d="M53.7553 44.2021H53.0914V44.866H53.7553V44.2021Z" fill="#DB0101"/>
<path d="M47.8839 45.5267H47.7766V44.8627H47.8174C47.8369 45.0798 47.859 45.3011 47.8839 45.5267Z" fill="#FFBE3D"/>
<path d="M53.0974 44.8674V45.5267H52.605C52.6248 45.2933 52.6447 45.0763 52.6622 44.8627L53.0974 44.8674Z" fill="#DB0101"/>
<path d="M53.7553 44.8674H53.0914V45.5313H53.7553V44.8674Z" fill="#FFBE3D"/>
<path d="M47.9515 46.1951H47.7766V45.5265H47.8839C47.9065 45.7458 47.9289 45.9687 47.9515 46.1951Z" fill="#DB0101"/>
<path d="M53.0974 45.5265V46.1904H52.5455C52.5665 45.964 52.5863 45.7427 52.605 45.5265H53.0974Z" fill="#FFBE3D"/>
<path d="M53.7553 45.531H53.0914V46.1949H53.7553V45.531Z" fill="#DB0101"/>
<path d="M48.0215 46.8603H47.7766V46.1952H47.9515C47.9737 46.4122 47.997 46.6351 48.0215 46.8603Z" fill="#FFBE3D"/>
<path d="M53.0973 46.1952V46.8603H52.4859C52.5069 46.6347 52.5268 46.413 52.5454 46.1952H53.0973Z" fill="#DB0101"/>
<path d="M53.7553 46.1952H53.0914V46.8591H53.7553V46.1952Z" fill="#FFBE3D"/>
<path d="M48.0928 47.524H47.7766V46.8601H48.0215C48.0448 47.0787 48.0687 47.3 48.0928 47.524Z" fill="#DB0101"/>
<path d="M52.4263 47.4529V47.524H52.4193L52.4263 47.4529Z" stroke="#DC9A79" stroke-miterlimit="10"/>
<path d="M53.0974 46.8601V47.524H52.4323V47.4528C52.451 47.2533 52.4685 47.0561 52.486 46.8601H53.0974Z" fill="#FFBE3D"/>
<path d="M53.7553 46.8601H53.0914V47.524H53.7553V46.8601Z" fill="#DB0101"/>
<path d="M48.1663 48.1882H47.7766V47.5243H48.0928C48.1177 47.7436 48.1422 47.9649 48.1663 48.1882Z" fill="#FFBE3D"/>
<path d="M52.4265 47.5243V48.1882H52.3588C52.3787 47.9653 52.3997 47.7448 52.4195 47.5243H52.4265Z" fill="#FFBE3D"/>
<path d="M53.0903 47.5243H52.4264V48.1882H53.0903V47.5243Z" fill="#DB0101"/>
<path d="M53.7553 47.5243H53.0914V48.1882H53.7553V47.5243Z" fill="#FFBE3D"/>
<path d="M48.2421 48.852H47.7754V48.1881H48.1651C48.1966 48.4086 48.2176 48.6291 48.2421 48.852Z" fill="#DB0101"/>
<path d="M52.4262 48.1881V48.852H52.2943C52.3169 48.6303 52.3383 48.409 52.3585 48.1881H52.4262Z" fill="#DB0101"/>
<path d="M53.0903 48.1881H52.4264V48.852H53.0903V48.1881Z" fill="#FFBE3D"/>
<path d="M53.7553 48.1881H53.0914V48.852H53.7553V48.1881Z" fill="#DB0101"/>
<path d="M48.3214 49.517H47.7766V48.8519H48.2433C48.2682 49.0736 48.2941 49.2953 48.3214 49.517Z" fill="#FFBE3D"/>
<path d="M52.4264 48.8519V49.517H52.2315C52.2525 49.2965 52.2735 49.0736 52.2945 48.8519H52.4264Z" fill="#FFBE3D"/>
<path d="M53.0903 48.853H52.4264V49.5169H53.0903V48.853Z" fill="#DB0101"/>
<path d="M53.7553 48.853H53.0914V49.5169H53.7553V48.853Z" fill="#FFBE3D"/>
<path d="M48.4032 50.1811H47.7766V49.5172H48.3214C48.3486 49.7404 48.3759 49.9618 48.4032 50.1811Z" fill="#DB0101"/>
<path d="M52.4264 49.5172V50.1811H52.1639C52.1865 49.9618 52.2086 49.7404 52.2304 49.5172H52.4264Z" fill="#DB0101"/>
<path d="M53.0903 49.5172H52.4264V50.1811H53.0903V49.5172Z" fill="#FFBE3D"/>
<path d="M53.7553 49.5172H53.0914V50.1811H53.7553V49.5172Z" fill="#DB0101"/>
<path d="M48.4404 50.482V50.8449H47.7766V50.181H48.4032C48.416 50.2825 48.4299 50.3829 48.4404 50.482Z" fill="#FFBE3D"/>
<path d="M52.4262 50.181V50.8449H52.0972C52.1194 50.6267 52.1427 50.405 52.1649 50.181H52.4262Z" fill="#FFBE3D"/>
<path d="M53.0903 50.181H52.4264V50.8449H53.0903V50.181Z" fill="#DB0101"/>
<path d="M53.7553 50.181H53.0914V50.8449H53.7553V50.181Z" fill="#FFBE3D"/>
<path d="M48.5772 51.5099H48.4407V50.8448H48.4885C48.5181 51.0696 48.5477 51.2913 48.5772 51.5099Z" fill="#FFBE3D"/>
<path d="M48.4404 50.8448H47.7766V51.5087H48.4404V50.8448Z" fill="#DB0101"/>
<path d="M52.4262 50.8448V51.5099H52.0272C52.0505 51.2929 52.0739 51.0712 52.0972 50.8448H52.4262Z" fill="#DB0101"/>
<path d="M53.0903 50.8448H52.4264V51.5087H53.0903V50.8448Z" fill="#FFBE3D"/>
<path d="M53.7553 50.8448H53.0914V51.5087H53.7553V50.8448Z" fill="#DB0101"/>
<path d="M48.6703 52.1776H48.4369V51.5135H48.5734C48.6073 51.7352 48.6388 51.9582 48.6703 52.1776Z" fill="#DB0101"/>
<path d="M48.4404 51.5099H47.7766V52.1738H48.4404V51.5099Z" fill="#FFBE3D"/>
<path d="M52.4263 51.5099V52.1773H51.9596C51.9845 51.9626 52.009 51.7413 52.0331 51.5134L52.4263 51.5099Z" fill="#FFBE3D"/>
<path d="M53.0903 51.5099H52.4264V52.1738H53.0903V51.5099Z" fill="#DB0101"/>
<path d="M53.7553 51.5099H53.0914V52.1738H53.7553V51.5099Z" fill="#FFBE3D"/>
<path d="M48.7709 52.8379H48.4407V52.1774H48.6741C48.7044 52.403 48.7367 52.6232 48.7709 52.8379Z" fill="#FFBE3D"/>
<path d="M48.4404 52.174H47.7766V52.838H48.4404V52.174Z" fill="#DB0101"/>
<path d="M52.4264 52.1774V52.8414H51.8768C51.9025 52.6302 51.9281 52.4073 51.9538 52.1774H52.4264Z" fill="#DB0101"/>
<path d="M53.0903 52.174H52.4264V52.838H53.0903V52.174Z" fill="#FFBE3D"/>
<path d="M53.7483 52.174L53.6841 52.838H53.0914V52.174H53.7483Z" fill="#DB0101"/>
<path d="M48.8783 53.5032H48.4407V52.8381H48.7709C48.8059 53.0684 48.8417 53.2901 48.8783 53.5032Z" fill="#DB0101"/>
<path d="M48.4404 52.8381H47.7766V53.502H48.4404V52.8381Z" fill="#FFBE3D"/>
<path d="M52.4265 52.8381V53.5032H51.7941C51.8213 53.2955 51.8489 53.0738 51.8769 52.8381H52.4265Z" fill="#FFBE3D"/>
<path d="M53.0903 52.8381H52.4264V53.502H53.0903V52.8381Z" fill="#DB0101"/>
<path d="M53.6841 52.8381L53.6188 53.5032H53.0914V52.8381H53.6841Z" fill="#FFBE3D"/>
<path d="M48.9973 54.1671H48.4407V53.5031H48.8783C48.9179 53.7353 48.9576 53.9582 48.9973 54.1671Z" fill="#FFBE3D"/>
<path d="M48.4404 53.5031H47.7766V54.1671H48.4404V53.5031Z" fill="#DB0101"/>
<path d="M51.7622 53.7424V54.1671H51.7016C51.7214 54.0353 51.7412 53.8929 51.7622 53.7424Z" stroke="#DC9A79" stroke-miterlimit="10"/>
<path d="M52.4263 53.5031V54.1671H51.7624V53.7423C51.7729 53.6653 51.7834 53.5848 51.7939 53.5031H52.4263Z" fill="#DB0101"/>
<path d="M53.0903 53.5031H52.4264V54.1671H53.0903V53.5031Z" fill="#FFBE3D"/>
<path d="M53.6188 53.5031L53.5534 54.1671H53.0914V53.5031H53.6188Z" fill="#DB0101"/>
<path d="M49.1058 54.7045V54.8305H48.4407V54.1666H48.9973C49.0334 54.3568 49.0696 54.5365 49.1058 54.7045Z" fill="#DB0101"/>
<path d="M48.4404 54.1666H47.7766V54.8305H48.4404V54.1666Z" fill="#FFBE3D"/>
<path d="M49.1299 54.8308H49.1019V54.7048C49.1136 54.7476 49.1229 54.7896 49.1299 54.8308Z" fill="#FFBE3D"/>
<path d="M51.7623 54.1666V54.8305H51.5872C51.6234 54.6578 51.6619 54.4338 51.7039 54.1666H51.7623Z" fill="#DB0101"/>
<path d="M52.4263 54.1666H51.7624V54.8305H52.4263V54.1666Z" fill="#FFBE3D"/>
<path d="M53.0903 54.1666H52.4264V54.8305H53.0903V54.1666Z" fill="#DB0101"/>
<path d="M53.5534 54.1666L53.4893 54.8305H53.0914V54.1666H53.5534Z" fill="#FFBE3D"/>
<path d="M49.1046 54.8308H48.4407V55.4947H49.1046V54.8308Z" fill="#FFBE3D"/>
<path d="M48.4404 54.8308H47.7766V55.4947H48.4404V54.8308Z" fill="#DB0101"/>
<path d="M49.3028 55.4947H49.1057V54.8308H49.1337C49.1897 55.0852 49.2467 55.308 49.3028 55.4947Z" fill="#DB0101"/>
<path d="M51.7622 54.8308V55.4947H51.3748C51.4238 55.378 51.4705 55.2497 51.5148 55.119C51.5446 55.0244 51.5687 54.9282 51.5872 54.8308H51.7622Z" fill="#FFBE3D"/>
<path d="M52.4263 54.8308H51.7624V55.4947H52.4263V54.8308Z" fill="#DB0101"/>
<path d="M53.0903 54.8308H52.4264V55.4947H53.0903V54.8308Z" fill="#FFBE3D"/>
<path d="M53.4893 54.8308L53.4239 55.4947H53.0914V54.8308H53.4893Z" fill="#DB0101"/>
<path d="M49.1046 55.4957H48.4407V56.1596H49.1046V55.4957Z" fill="#DB0101"/>
<path d="M48.4404 55.4957H47.7766V56.1596H48.4404V55.4957Z" fill="#FFBE3D"/>
<path d="M49.6202 56.1599H49.1057V55.4949H49.3028C49.3524 55.6991 49.4353 55.8938 49.5479 56.0713C49.5724 56.1028 49.5969 56.1319 49.6202 56.1599Z" fill="#FFBE3D"/>
<path d="M51.0984 56.0491V56.1599H51.0249C51.0494 56.1249 51.0739 56.0876 51.0984 56.0491Z" fill="#FFBE3D"/>
<path d="M51.7622 55.4949V56.1599H51.0983V56.0491C51.2053 55.8721 51.2978 55.6868 51.3748 55.4949H51.7622Z" fill="#DB0101"/>
<path d="M52.4263 55.4957H51.7624V56.1596H52.4263V55.4957Z" fill="#FFBE3D"/>
<path d="M53.0903 55.4957H52.4264V56.1596H53.0903V55.4957Z" fill="#DB0101"/>
<path d="M53.424 55.4949L53.389 55.8566C53.389 55.8566 53.3271 55.9733 53.2163 56.1599H53.0972V55.4949H53.424Z" fill="#FFBE3D"/>
<path d="M49.1046 56.1599H48.4407V56.8238H49.1046V56.1599Z" fill="#FFBE3D"/>
<path d="M48.4404 56.1599H47.7766V56.8238H48.4404V56.1599Z" fill="#DB0101"/>
<path d="M49.7696 56.3197V56.8238H49.1057V56.1599H49.6202C49.6671 56.2158 49.7169 56.2692 49.7696 56.3197Z" fill="#DB0101"/>
<path d="M50.4333 56.6044V56.8237H49.7694V56.3197C50.0097 56.5495 50.2314 56.6336 50.4333 56.6044Z" fill="#FFBE3D"/>
<path d="M51.0985 56.1599V56.8238H50.4334V56.6045C50.6527 56.5729 50.8499 56.4108 51.0249 56.1599H51.0985Z" fill="#DB0101"/>
<path d="M51.7622 56.1599H51.0983V56.8238H51.7622V56.1599Z" fill="#FFBE3D"/>
<path d="M52.4263 56.1599H51.7624V56.8238H52.4263V56.1599Z" fill="#DB0101"/>
<path d="M53.0974 56.1599V56.3653C53.0134 56.5018 52.9119 56.657 52.7975 56.8238H52.4323V56.1599H53.0974Z" fill="#FFBE3D"/>
<path d="M53.214 56.1599C53.1778 56.2206 53.137 56.2906 53.0891 56.3653V56.1599H53.214Z" fill="#DB0101"/>
<path d="M49.1046 56.8237H48.4407V57.4876H49.1046V56.8237Z" fill="#DB0101"/>
<path d="M48.4405 56.8237V57.4876H48.3133C48.1173 57.2613 47.9399 57.0314 47.7905 56.8237H48.4405Z" fill="#FFBE3D"/>
<path d="M49.7696 56.8237H49.1057V57.4876H49.7696V56.8237Z" fill="#FFBE3D"/>
<path d="M50.4335 56.8237H49.7696V57.4876H50.4335V56.8237Z" fill="#DB0101"/>
<path d="M51.0973 56.8237H50.4334V57.4876H51.0973V56.8237Z" fill="#FFBE3D"/>
<path d="M51.7622 56.8237H51.0983V57.4876H51.7622V56.8237Z" fill="#DB0101"/>
<path d="M52.4263 56.8239V57.3116C52.382 57.3688 52.3353 57.4283 52.2875 57.4831H51.7624V56.8192L52.4263 56.8239Z" fill="#FFBE3D"/>
<path d="M52.7916 56.8237C52.6819 56.9824 52.5583 57.1493 52.4264 57.3161V56.8237H52.7916Z" fill="#DB0101"/>
<path d="M49.1058 57.4875V58.1526H48.9681C48.782 57.9907 48.6059 57.8177 48.4407 57.6345V57.4875H49.1058Z" fill="#FFBE3D"/>
<path d="M48.4406 57.4875V57.6345C48.3963 57.5855 48.3531 57.5365 48.3111 57.4875H48.4406Z" fill="#DB0101"/>
<path d="M49.7696 57.4875H49.1057V58.1515H49.7696V57.4875Z" fill="#DB0101"/>
<path d="M50.4335 57.4875H49.7696V58.1515H50.4335V57.4875Z" fill="#FFBE3D"/>
<path d="M51.0973 57.4875H50.4334V58.1515H51.0973V57.4875Z" fill="#DB0101"/>
<path d="M51.7625 57.4875V58.0476C51.7251 58.0838 51.6866 58.1188 51.6458 58.1526H51.0962V57.4875H51.7625Z" fill="#FFBE3D"/>
<path d="M52.2875 57.4875C52.1243 57.685 51.949 57.8721 51.7624 58.0476V57.4875H52.2875Z" fill="#DB0101"/>
<path d="M49.1057 58.1528V58.2695C49.059 58.2333 49.0135 58.1948 48.968 58.1528H49.1057Z" fill="#DB0101"/>
<path d="M49.7696 58.1529V58.6663C49.5307 58.5646 49.3072 58.4298 49.1057 58.2661V58.1494L49.7696 58.1529Z" fill="#FFBE3D"/>
<path d="M50.4333 58.1528V58.7759C50.2063 58.7948 49.9782 58.7571 49.7694 58.6662V58.1528H50.4333Z" fill="#DB0101"/>
<path d="M51.0985 58.1528V58.5495C50.896 58.6681 50.6719 58.7451 50.4392 58.7759V58.1528H51.0985Z" fill="#FFBE3D"/>
<path d="M51.6479 58.1528C51.4785 58.3032 51.2944 58.4361 51.0983 58.5495V58.1528H51.6479Z" fill="#DB0101"/>
<path d="M55.0831 41.9946H54.4192V42.2093H55.0831V41.9946Z" fill="#DB0101"/>
<path d="M54.4193 41.9946H53.7554V42.2093H54.4193V41.9946Z" fill="#FFBE3D"/>
<path d="M55.7483 41.9946H55.0832V42.2093H55.7483V41.9946Z" fill="#FFBE3D"/>
<path d="M56.4121 41.9946H55.7482V42.2093H56.4121V41.9946Z" fill="#DB0101"/>
<path d="M57.0761 41.9946H56.4122V42.2093H57.0761V41.9946Z" fill="#FFBE3D"/>
<path d="M57.7414 41.9946H57.0763V42.2093H57.7414V41.9946Z" fill="#DB0101"/>
<path d="M58.4052 41.9946H57.7413V42.2093H58.4052V41.9946Z" fill="#FFBE3D"/>
<path d="M58.5534 41.9946L58.5289 42.2093H58.4052V41.9946H58.5534Z" fill="#DB0101"/>
<path d="M55.0831 42.2103H54.4192V42.8742H55.0831V42.2103Z" fill="#FFBE3D"/>
<path d="M54.4193 42.2103H53.7554V42.8742H54.4193V42.2103Z" fill="#DB0101"/>
<path d="M55.7471 42.2103H55.0832V42.8742H55.7471V42.2103Z" fill="#DB0101"/>
<path d="M56.4121 42.2103H55.7482V42.8742H56.4121V42.2103Z" fill="#FFBE3D"/>
<path d="M57.0761 42.2103H56.4122V42.8742H57.0761V42.2103Z" fill="#DB0101"/>
<path d="M57.7402 42.2103H57.0763V42.8742H57.7402V42.2103Z" fill="#FFBE3D"/>
<path d="M58.4052 42.2103H57.7413V42.8742H58.4052V42.2103Z" fill="#DB0101"/>
<path d="M58.5289 42.2092L58.4519 42.8743H58.4052V42.2092H58.5289Z" fill="#FFBE3D"/>
<path d="M55.0831 42.8743H54.4192V43.5383H55.0831V42.8743Z" fill="#DB0101"/>
<path d="M54.4193 42.8743H53.7554V43.5383H54.4193V42.8743Z" fill="#FFBE3D"/>
<path d="M55.7471 42.8743H55.0832V43.5383H55.7471V42.8743Z" fill="#FFBE3D"/>
<path d="M56.4121 42.8743H55.7482V43.5383H56.4121V42.8743Z" fill="#DB0101"/>
<path d="M57.0761 42.8743H56.4122V43.5383H57.0761V42.8743Z" fill="#FFBE3D"/>
<path d="M57.7402 42.8743H57.0763V43.5383H57.7402V42.8743Z" fill="#DB0101"/>
<path d="M58.4052 42.8743V43.2722L58.3749 43.5383H57.7413V42.8743H58.4052Z" fill="#FFBE3D"/>
<path d="M58.4519 42.8743L58.4052 43.2722V42.8743H58.4519Z" fill="#DB0101"/>
<path d="M55.0831 43.5383H54.4192V44.2022H55.0831V43.5383Z" fill="#FFBE3D"/>
<path d="M54.4193 43.5383H53.7554V44.2022H54.4193V43.5383Z" fill="#DB0101"/>
<path d="M55.7471 43.5383H55.0832V44.2022H55.7471V43.5383Z" fill="#DB0101"/>
<path d="M56.4121 43.5383H55.7482V44.2022H56.4121V43.5383Z" fill="#FFBE3D"/>
<path d="M57.0761 43.5383H56.4122V44.2022H57.0761V43.5383Z" fill="#DB0101"/>
<path d="M57.7402 43.5383H57.0763V44.2022H57.7402V43.5383Z" fill="#FFBE3D"/>
<path d="M58.3749 43.5383L58.2979 44.2022H57.7413V43.5383H58.3749Z" fill="#DB0101"/>
<path d="M55.0831 44.2021H54.4192V44.866H55.0831V44.2021Z" fill="#DB0101"/>
<path d="M54.4193 44.2021H53.7554V44.866H54.4193V44.2021Z" fill="#FFBE3D"/>
<path d="M55.7471 44.2021H55.0832V44.866H55.7471V44.2021Z" fill="#FFBE3D"/>
<path d="M56.4121 44.2021H55.7482V44.866H56.4121V44.2021Z" fill="#DB0101"/>
<path d="M57.0761 44.2021H56.4122V44.866H57.0761V44.2021Z" fill="#FFBE3D"/>
<path d="M57.7402 44.2021H57.0763V44.866H57.7402V44.2021Z" fill="#DB0101"/>
<path d="M58.2979 44.2021L58.2197 44.8672H57.7413V44.2021H58.2979Z" fill="#FFBE3D"/>
<path d="M55.0831 44.8674H54.4192V45.5313H55.0831V44.8674Z" fill="#FFBE3D"/>
<path d="M54.4193 44.8674H53.7554V45.5313H54.4193V44.8674Z" fill="#DB0101"/>
<path d="M55.7471 44.8674H55.0832V45.5313H55.7471V44.8674Z" fill="#DB0101"/>
<path d="M56.4121 44.8674H55.7482V45.5313H56.4121V44.8674Z" fill="#FFBE3D"/>
<path d="M57.0761 44.8674H56.4122V45.5313H57.0761V44.8674Z" fill="#DB0101"/>
<path d="M57.7402 44.8674H57.0763V45.5313H57.7402V44.8674Z" fill="#FFBE3D"/>
<path d="M58.2197 44.8674L58.1427 45.5313H57.7413V44.8674H58.2197Z" fill="#DB0101"/>
<path d="M55.0831 45.531H54.4192V46.1949H55.0831V45.531Z" fill="#DB0101"/>
<path d="M54.4193 45.531H53.7554V46.1949H54.4193V45.531Z" fill="#FFBE3D"/>
<path d="M55.7471 45.531H55.0832V46.1949H55.7471V45.531Z" fill="#FFBE3D"/>
<path d="M56.4121 45.531H55.7482V46.1949H56.4121V45.531Z" fill="#DB0101"/>
<path d="M57.0761 45.531H56.4122V46.1949H57.0761V45.531Z" fill="#FFBE3D"/>
<path d="M57.7402 45.531H57.0763V46.1949H57.7402V45.531Z" fill="#DB0101"/>
<path d="M58.1427 45.531L58.0668 46.1949H57.7413V45.531H58.1427Z" fill="#FFBE3D"/>
<path d="M55.0831 46.1952H54.4192V46.8591H55.0831V46.1952Z" fill="#FFBE3D"/>
<path d="M54.4193 46.1952H53.7554V46.8591H54.4193V46.1952Z" fill="#DB0101"/>
<path d="M55.7471 46.1952H55.0832V46.8591H55.7471V46.1952Z" fill="#DB0101"/>
<path d="M56.4121 46.1952H55.7482V46.8591H56.4121V46.1952Z" fill="#FFBE3D"/>
<path d="M57.0761 46.1952H56.4122V46.8591H57.0761V46.1952Z" fill="#DB0101"/>
<path d="M57.7402 46.1952H57.0763V46.8591H57.7402V46.1952Z" fill="#FFBE3D"/>
<path d="M58.0668 46.1952L57.9887 46.8603H57.7413V46.1952H58.0668Z" fill="#DB0101"/>
<path d="M55.0831 46.8601H54.4192V47.0351H55.0831V46.8601Z" fill="#DB0101"/>
<path d="M54.4193 46.8601V47.0351H54.2501L54.2023 47.524H53.7554V46.8601H54.4193Z" fill="#FFBE3D"/>
<path d="M55.7483 46.8601H55.0832V47.0351H55.7483V46.8601Z" fill="#FFBE3D"/>
<path d="M56.4121 46.8601H55.7482V47.0351H56.4121V46.8601Z" fill="#DB0101"/>
<path d="M57.0761 46.8601H56.4122V47.0351H57.0761V46.8601Z" fill="#FFBE3D"/>
<path d="M57.7414 46.8601H57.0763V47.0351H57.7414V46.8601Z" fill="#DB0101"/>
<path d="M57.9887 46.8601L57.9688 47.0351H57.7413V46.8601H57.9887Z" fill="#FFBE3D"/>
<path d="M54.2023 47.5243L54.1381 48.1882H53.7554V47.5243H54.2023Z" fill="#DB0101"/>
<path d="M54.1381 48.1881L54.0728 48.852H53.7554V48.1881H54.1381Z" fill="#FFBE3D"/>
<path d="M54.0728 48.8519L54.0074 49.517H53.7554V48.8519H54.0728Z" fill="#DB0101"/>
<path d="M54.0074 49.5172L53.9432 50.1811H53.7554V49.5172H54.0074Z" fill="#FFBE3D"/>
<path d="M53.9432 50.181L53.8779 50.8449H53.7554V50.181H53.9432Z" fill="#DB0101"/>
<path d="M53.8779 50.8448L53.8137 51.5099H53.7554V50.8448H53.8779Z" fill="#FFBE3D"/>
<path d="M53.8137 51.5099L53.7554 52.1026V51.5099H53.8137Z" fill="#DB0101"/>
<path d="M46.4487 48.8519V49.1121L46.4172 48.8519H46.4487Z" fill="#DB0101"/>
<path d="M48.4885 50.8448H48.4407V50.4819C48.457 50.6033 48.4722 50.7246 48.4885 50.8448Z" fill="#DB0101"/>
<path d="M35.6264 40.9398V62.1573C35.4894 62.0217 35.3402 61.899 35.1806 61.7909V41.6854C35.1946 41.6586 35.2098 41.6317 35.225 41.6049C35.3615 41.3727 35.4887 41.151 35.6264 40.9398Z" fill="#741104"/>
<path d="M36.0069 40.3923V62.6121C35.9649 62.5514 35.9205 62.4919 35.8739 62.4336V40.5708L35.9182 40.5078C35.945 40.467 35.9754 40.4262 36.0069 40.3923Z" fill="#741104"/>
<path d="M34.2612 43.7217V62.2018C34.1242 62.0662 33.975 61.9435 33.8154 61.8354V45.1277C33.8306 45.0693 33.847 45.011 33.8633 44.9527C33.9065 44.801 33.9508 44.6528 33.9963 44.5069C34.078 44.2362 34.1678 43.9749 34.2612 43.7217Z" fill="#741104"/>
<path d="M34.6415 42.774V62.6567C34.5995 62.5961 34.5552 62.5365 34.5085 62.4782V43.0844C34.5517 42.9782 34.596 42.8755 34.6415 42.774Z" fill="#741104"/>
<path d="M32.8657 49.1296V62.198C32.7288 62.0624 32.5796 61.9398 32.42 61.8316V50.9802L32.5367 50.4878L32.6697 49.9371C32.7362 49.671 32.8015 49.4015 32.8657 49.1296Z" fill="#741104"/>
<path d="M33.2463 47.517V62.6566C33.2043 62.5959 33.1599 62.5364 33.1132 62.478V48.083C33.1319 48.0024 33.1517 47.9219 33.1704 47.8414C33.1961 47.7341 33.2218 47.6267 33.2463 47.517Z" fill="#741104"/>
<path d="M30.9813 56.7806V62.6847C30.8443 62.5491 30.6951 62.4265 30.5355 62.3184V58.5227C30.597 58.2831 30.6596 58.0385 30.7234 57.7888C30.7677 57.6184 30.8109 57.4457 30.8564 57.2707C30.9019 57.0957 30.9393 56.9451 30.9813 56.7806Z" fill="#741104"/>
<path d="M31.3616 55.2719V63.1457C31.3196 63.085 31.2753 63.0254 31.2286 62.967V55.8005C31.2729 55.627 31.3173 55.4508 31.3616 55.2719Z" fill="#741104"/>
<path d="M36.6952 39.5363V88.8218L36.2483 88.6654V40.0684C36.3953 39.8805 36.5447 39.7044 36.6952 39.5363Z" fill="#741104"/>
<path d="M37.0746 39.136V88.9418L36.9415 88.8998V39.2713L36.9859 39.2246C37.0151 39.1943 37.0454 39.164 37.0746 39.136Z" fill="#741104"/>
<path d="M38.5283 37.9421V89.3792L38.0826 89.2496V38.2537L38.1269 38.2198C38.2611 38.1195 38.3953 38.025 38.5283 37.9421Z" fill="#741104"/>
<path d="M38.9089 37.6925V89.4854L38.7758 89.4492V37.7753L38.8202 37.7473L38.9089 37.6925Z" fill="#741104"/>
<path d="M39.6425 37.2944V89.6848C39.4919 89.6463 39.3438 89.6066 39.1967 89.5681V37.5278L39.2411 37.5033C39.3776 37.4263 39.5106 37.3586 39.6425 37.2944Z" fill="#741104"/>
<path d="M40.0289 37.1255V89.7842L39.8959 89.7503V37.1791L39.9402 37.1593L40.0289 37.1255Z" fill="#741104"/>
<path d="M42.0674 44.2139V90.2369L41.6217 90.147V41.424L42.0674 44.2139Z" fill="#741104"/>
<path d="M42.4477 46.5942V90.3092L42.3147 90.2847V45.7611L42.4477 46.5942Z" fill="#741104"/>
<path d="M43.1792 47.6011V90.4375C43.0298 90.413 42.8817 90.3874 42.7335 90.3605V47.5685L43.1792 47.6011Z" fill="#741104"/>
<path d="M43.5621 47.627V90.4949L43.429 90.475V47.62L43.5621 47.627Z" fill="#741104"/>
<path d="M45.3182 47.7612V90.7002L44.8725 90.6617V47.7285L45.3182 47.7612Z" fill="#741104"/>
<path d="M45.6983 47.79V90.7198L45.5653 90.7116V47.7795L45.6983 47.79Z" fill="#741104"/>
<path d="M46.4324 52.7793V90.7477C46.2854 90.7477 46.136 90.7407 45.9867 90.7337V48.6919L46.4324 52.7793Z" fill="#741104"/>
<path d="M48.4299 58.2773V87.8819C48.3715 88.1503 48.3283 88.421 48.2968 88.6824V58.1396C48.3353 58.1863 48.3797 58.2318 48.4299 58.2773Z" fill="#741104"/>
<path d="M49.1591 58.8844V86.132C48.9736 86.3735 48.8235 86.6403 48.7134 86.9243V58.546C48.8533 58.6698 49.0023 58.7829 49.1591 58.8844Z" fill="#741104"/>
<path d="M46.8128 56.0384V90.7491H46.6798V55.0443L46.7813 55.9777L46.8128 56.0384Z" fill="#741104"/>
<path d="M55.6374 35.5747H55.1917V35.633H55.6374V35.5747Z" fill="#741104"/>
<path d="M55.6374 47.6176V90.5123L55.1917 90.5532V47.6001L55.6374 47.6176Z" fill="#741104"/>
<path d="M56.0145 47.6267V90.4748L55.8803 90.4888V47.6267H56.0145Z" fill="#741104"/>
<path d="M56.7515 47.6584V90.398L56.3058 90.4458V47.6421L56.7515 47.6584Z" fill="#741104"/>
<path d="M52.9247 57.5999V90.7271L52.7916 90.7342V57.768C52.8399 57.7135 52.8842 57.6575 52.9247 57.5999Z" fill="#741104"/>
<path d="M53.6583 56.3977V90.6824C53.495 90.6953 53.3456 90.7046 53.2126 90.7139V57.1946C53.3813 56.9408 53.5303 56.6743 53.6583 56.3977Z" fill="#741104"/>
<path d="M57.1321 47.6723V90.3547L56.999 90.3699V47.6642L57.1321 47.6723Z" fill="#741104"/>
<path d="M58.9991 42.8916V90.1152L58.5534 90.1771V45.5263L58.9991 42.8916Z" fill="#741104"/>
<path d="M59.3793 40.6411V90.0607L59.2463 90.0805V41.424L59.3793 40.6411Z" fill="#741104"/>
<path d="M60.1133 36.8358V89.9449L59.6676 90.0161V38.9349L60.0282 36.7997L60.1133 36.8358Z" fill="#741104"/>
<path d="M61.965 37.7915V89.6042L61.5192 89.6941V37.5371L61.5636 37.5616C61.6978 37.6293 61.8319 37.7086 61.965 37.7915Z" fill="#741104"/>
<path d="M67.203 89.0921C67.1248 89.1715 67.0361 89.24 66.9393 89.2952C66.5336 89.5119 66.1024 89.6769 65.6558 89.7865C65.5146 89.8273 65.3652 89.8658 65.21 89.9031C64.6896 90.0315 64.0957 90.1528 63.4598 90.2672C63.3139 90.2929 63.1658 90.3184 63.0141 90.3429C62.678 90.4001 62.3303 90.4539 61.9744 90.5076L61.5287 90.5717C61.062 90.6359 60.5953 90.6988 60.1192 90.7572L59.6735 90.812L59.3853 90.8458L59.2522 90.8611L59.0049 90.8903L58.5591 90.9393C58.0772 90.993 57.6012 91.0419 57.1379 91.0874L57.0049 91.1014L56.7576 91.126L56.3118 91.168L56.0236 91.1947L55.8895 91.2065L55.6432 91.2298L55.1975 91.2682C54.6363 91.3172 54.1182 91.3605 53.6643 91.3955L53.2186 91.4305L52.9304 91.4515L52.7974 91.462C52.5232 91.483 52.2945 91.4981 52.1194 91.5109L51.9864 91.5191L51.7391 91.5367H51.7297C51.7297 91.5367 51.7111 91.0968 51.6539 90.4702C51.5851 89.6467 51.4647 88.8283 51.2933 88.0199C51.06 86.9814 50.7006 86.1366 50.1697 86.209C49.703 86.2732 49.3798 86.9721 49.1651 87.8425C48.9586 88.7748 48.8275 89.7222 48.773 90.6756V90.7234C48.7415 91.2099 48.7333 91.5331 48.7333 91.5331C48.0787 91.5331 47.4416 91.5192 46.8221 91.4947H46.689L46.4417 91.4829L45.996 91.4596L45.7078 91.4422L45.5747 91.4329L45.3274 91.4165C45.1769 91.4059 45.0287 91.3943 44.8816 91.3815C44.4328 91.3449 43.996 91.3033 43.5713 91.2567L43.4383 91.2415L43.1909 91.2122L42.7452 91.1574L42.457 91.12L42.324 91.1014L42.0766 91.0665C41.9261 91.0443 41.7779 91.0233 41.6309 91C41.0685 90.9136 40.5341 90.8202 40.0323 90.7245L39.8993 90.6989L39.6519 90.6498L39.2062 90.5577L38.918 90.4958L38.785 90.4656L38.5376 90.4095C38.3848 90.3745 38.2354 90.3395 38.0919 90.3045C37.575 90.1797 37.1106 90.056 36.7046 89.9405C36.547 89.8961 36.3977 89.8518 36.2577 89.8098C35.232 89.5029 34.6754 89.2789 34.6754 89.2789C34.6579 88.9172 34.6498 88.5275 34.6509 88.1121L34.6976 88.1283C35.0827 88.2708 35.6159 88.461 36.2577 88.6745L36.7046 88.8214L36.9507 88.8997L37.0838 88.9417C37.4023 89.0431 37.7395 89.1458 38.0919 89.2496L38.5376 89.3792L38.785 89.4492L38.918 89.4854L39.2062 89.5636C39.3532 89.6033 39.5014 89.6429 39.6519 89.6803L39.8993 89.7445L40.0323 89.7783C40.5516 89.9078 41.0825 90.0315 41.6309 90.1458L42.0766 90.2356L42.324 90.2835L42.457 90.308L42.7452 90.3594C42.8934 90.3862 43.0416 90.4118 43.1909 90.4363L43.4383 90.4736L43.5713 90.4936C44.01 90.5589 44.4468 90.613 44.8816 90.6557L45.3274 90.6942L45.5747 90.7105L45.7078 90.7188L45.996 90.7327C46.1453 90.7397 46.2947 90.7444 46.4417 90.7467H46.689H46.8221C47.2899 90.7454 47.7574 90.7182 48.2223 90.6651C48.1946 90.0029 48.2204 89.3395 48.2993 88.6814C48.3308 88.42 48.3739 88.1494 48.4323 87.881C48.5002 87.5524 48.5967 87.2302 48.7205 86.9184C48.8306 86.6343 48.9807 86.3677 49.1662 86.1261C49.3013 85.9512 49.4655 85.8007 49.6516 85.6815V59.1375C49.8767 59.2289 50.1181 59.2733 50.361 59.2682C50.5147 59.263 50.6674 59.2407 50.8161 59.2017V85.5392C50.8312 85.5429 50.846 85.5476 50.8604 85.5532C51.0229 85.6235 51.1703 85.7246 51.2945 85.8508C51.4697 86.0234 51.6198 86.2198 51.7402 86.4342C51.8349 86.6016 51.9176 86.7755 51.9876 86.9546C52.0343 87.0713 52.0786 87.1985 52.1206 87.335C52.2819 87.8751 52.3874 88.4303 52.4356 88.9919C52.4362 88.9977 52.4362 89.0035 52.4356 89.0094C52.4887 89.5865 52.5082 90.1662 52.494 90.7456H52.5418L52.7962 90.7316L52.9292 90.7245L53.2174 90.7058C53.3504 90.6965 53.4998 90.6873 53.6631 90.6744C54.0855 90.6452 54.6059 90.6044 55.1964 90.5507L55.6421 90.5098L55.8883 90.4865L56.0225 90.4725L56.3107 90.4434L56.7564 90.3955L57.0038 90.3675L57.1368 90.3523C57.5953 90.2998 58.0702 90.2356 58.558 90.1749L59.0037 90.1132L59.2511 90.0781L59.3841 90.0583L59.6723 90.014L60.118 89.9427L60.3654 89.902L60.4984 89.8798C60.8426 89.8203 61.1868 89.763 61.5275 89.6919L61.9733 89.6021L62.2206 89.5496L62.3536 89.5204C62.5769 89.4714 62.7966 89.4209 63.0129 89.3687C63.1634 89.3326 63.3116 89.2952 63.4586 89.2521L63.706 89.1867L63.839 89.1505C64.3244 89.0164 64.7865 88.8716 65.2147 88.7141C65.3675 88.658 65.5169 88.5974 65.6604 88.5425C65.7444 88.5075 65.8273 88.4738 65.9078 88.4376L66.0408 88.3781C66.354 88.2383 66.656 88.0744 66.9439 87.888C66.9848 87.8624 67.0244 87.8343 67.0606 87.8074L67.077 87.9546L67.1038 88.1879L67.203 89.0921Z" fill="#FFBE3D"/>
<path d="M62.3492 38.0285V89.5227L62.2162 89.5519V37.9421L62.2605 37.9701L62.3492 38.0285Z" fill="#741104"/>
<path d="M63.454 38.8042V89.2588C63.307 89.2973 63.1588 89.3347 63.0083 89.3755V38.4752L63.0526 38.5067C63.1856 38.6024 63.3186 38.7004 63.454 38.8042Z" fill="#741104"/>
<path d="M63.832 39.1181V89.1573L63.699 89.1935V38.9991C63.7142 39.0108 63.7282 39.0236 63.7433 39.0376C63.7585 39.0516 63.8052 39.089 63.832 39.1181Z" fill="#741104"/>
<path d="M65.6557 42.0109V61.9402C65.5001 62.0417 65.3512 62.1532 65.21 62.2739V41.1206L65.2543 41.2046C65.3873 41.4578 65.5215 41.7273 65.6557 42.0109Z" fill="#741104"/>
<path d="M66.0361 42.8486V61.7185C65.9906 61.7418 65.9463 61.7663 65.9031 61.7908V42.5476L65.9474 42.6456L66.0361 42.8486Z" fill="#741104"/>
<path d="M67.3851 46.314V61.2785C67.2299 61.3042 67.0806 61.3357 66.9394 61.373V45.0865L66.9838 45.2032C67.1183 45.5649 67.2521 45.9352 67.3851 46.314Z" fill="#741104"/>
<path d="M67.7654 47.4213V61.2295L67.6324 61.2435V47.0281L67.6767 47.1576C67.7059 47.2451 67.7363 47.3326 67.7654 47.4213Z" fill="#741104"/>
<path d="M68.6569 50.2405V61.2262C68.504 61.2145 68.3547 61.2098 68.2111 61.2098V48.7937C68.2263 48.8404 68.2403 48.887 68.2555 48.9337C68.3908 49.3631 68.5246 49.7987 68.6569 50.2405Z" fill="#741104"/>
<path d="M69.0373 51.538V61.2693L68.9043 61.2494V51.0782C68.9194 51.1284 68.9334 51.1786 68.9486 51.2287C68.9778 51.3314 69.0081 51.4341 69.0373 51.538Z" fill="#741104"/>
<path d="M70.4211 56.6767V61.8621C70.2808 61.7562 70.1317 61.6625 69.9754 61.582V54.826C70.131 55.4499 70.2796 56.0668 70.4211 56.6767Z" fill="#741104"/>
<path d="M51.7332 58.764V86.4387C51.6128 86.2243 51.4627 86.0279 51.2875 85.8553V59.0231C51.4427 58.9486 51.5917 58.862 51.7332 58.764Z" fill="#741104"/>
<path d="M52.1136 58.4691V87.3398C52.0716 87.2033 52.0273 87.0761 51.9806 86.9594V58.5799C52.0261 58.5438 52.0704 58.5076 52.1136 58.4691Z" fill="#741104"/>
<path d="M71.749 64.3125C71.4862 63.8569 71.1679 63.4356 70.8016 63.0581C70.7584 63.0138 70.7141 62.9718 70.6686 62.9298C70.5892 62.8551 70.5064 62.7839 70.4212 62.7163C70.2804 62.6032 70.1314 62.5006 69.9755 62.4094C69.6865 62.2391 69.371 62.1188 69.042 62.0535C68.9989 62.0442 68.9545 62.0372 68.909 62.0313C68.827 62.0194 68.7444 62.0116 68.6616 62.008C68.5656 62.0027 68.4694 62.0027 68.3734 62.008C68.3198 62.008 68.2672 62.008 68.2159 62.0197C68.0663 62.0308 67.9175 62.0506 67.7702 62.0792C67.7258 62.0873 67.6815 62.0955 67.6372 62.106C67.5532 62.1235 67.4703 62.1445 67.3898 62.1679C67.2386 62.2098 67.0898 62.26 66.9441 62.3184C66.6261 62.4455 66.3232 62.6075 66.041 62.8014L65.9989 62.8294C65.9674 62.8504 65.9371 62.8726 65.9079 62.8948C65.8788 62.917 65.8216 62.9578 65.7807 62.9905C65.7399 63.0231 65.7002 63.0546 65.6641 63.0873L65.5474 63.1888C65.4867 63.2413 65.4307 63.295 65.3747 63.3475L65.2965 63.4245L65.2207 63.5015C65.0958 63.631 64.9873 63.7547 64.8963 63.8679L64.8403 63.9379L64.7458 64.0639C64.6612 64.18 64.5833 64.3007 64.5124 64.4257V63.0861C64.7076 62.7782 64.9497 62.5026 65.23 62.2694C65.3712 62.1486 65.5201 62.0371 65.6757 61.9357C65.7539 61.8843 65.8368 61.8341 65.9231 61.7863C65.9663 61.7618 66.0106 61.7373 66.0561 61.714C66.3436 61.565 66.6464 61.4476 66.9592 61.3639C67.1004 61.3266 67.2498 61.2951 67.405 61.2694C67.4855 61.2566 67.5683 61.2449 67.6523 61.2356L67.7854 61.2216C67.9289 61.2099 68.0771 61.2029 68.2311 61.2017C68.3851 61.2006 68.524 61.2017 68.6768 61.2181L68.762 61.2239C68.8168 61.2239 68.8705 61.2344 68.9242 61.2414L69.0572 61.2612C69.3826 61.316 69.6975 61.4211 69.9907 61.5728C70.1469 61.6533 70.296 61.747 70.4364 61.8528C70.5227 61.917 70.6056 61.9847 70.6837 62.0558C70.7292 62.0978 70.7736 62.1399 70.8168 62.183C71.1931 62.5723 71.4991 63.024 71.721 63.5179C71.7366 63.7932 71.7459 64.0581 71.749 64.3125Z" fill="#FFBE3D"/>
<path d="M65.9032 71.8886L65.2101 72.0519L64.9149 69.5841C65.0386 69.5036 65.4878 69.2189 65.6558 69.073C65.7351 69.003 65.8192 68.926 65.9032 68.8397C65.9475 68.7965 65.9919 68.7498 66.0362 68.7008C66.4187 68.2836 66.7245 67.8021 66.9393 67.2785C67.2374 66.5353 67.3777 65.7382 67.3512 64.9378C67.3349 64.0814 67.175 63.5376 66.9393 63.2168C66.8415 63.0722 66.7048 62.9582 66.545 62.888C66.3852 62.8178 66.2088 62.7942 66.0362 62.82V62.7955C66.3184 62.6016 66.6213 62.4396 66.9393 62.3125C67.085 62.2541 67.2338 62.2039 67.385 62.1619C67.4655 62.1386 67.5484 62.1176 67.6324 62.1001C67.6767 62.0896 67.7211 62.0814 67.7654 62.0733C67.9127 62.0447 68.0615 62.0249 68.2111 62.0138C68.2625 62.0079 68.315 62.0044 68.3687 62.0021C68.4647 61.9968 68.5609 61.9968 68.6569 62.0021C68.7397 62.0057 68.8222 62.0134 68.9042 62.0254C68.9497 62.0313 68.9941 62.0383 69.0373 62.0476C69.3662 62.1129 69.6818 62.2332 69.9707 62.4035C70.1266 62.4947 70.2756 62.5973 70.4164 62.7104C70.5016 62.778 70.5845 62.8492 70.6638 62.9239C70.7093 62.9659 70.7536 63.0079 70.7968 63.0522C71.1632 63.4297 71.4814 63.851 71.7443 64.3066C71.7688 65.9063 71.3861 67.1875 70.7968 68.2108C70.7536 68.2866 70.7093 68.3601 70.6638 68.4336C70.5845 68.5596 70.5016 68.6822 70.4164 68.8012C70.2741 68.9972 70.1247 69.1816 69.9707 69.3566C69.685 69.6786 69.3728 69.976 69.0373 70.2457L68.9042 70.3495C68.8226 70.4125 68.7397 70.4744 68.6569 70.5327C68.5087 70.6389 68.3593 70.7381 68.2111 70.8303C68.063 70.9224 67.9124 71.0123 67.7654 71.0928L67.6324 71.1652C67.5484 71.2095 67.4667 71.2515 67.385 71.2912C67.2322 71.367 67.0828 71.437 66.9393 71.4989C66.6009 71.647 66.2917 71.7591 66.0362 71.8431L65.9032 71.8851V71.8886Z" fill="#360401"/>
<path d="M66.0361 78.7341V88.3849L65.9031 88.4444V77.5533L66.0361 78.7341Z" fill="#741104"/>
<path d="M36.2949 65.2564L36.2505 73.0041C29.6475 71.4604 29.008 66.4128 29.0034 64.8025C29.0535 64.7279 30.6859 62.2869 32.316 62.3697C34.0814 62.4596 35.0685 63.1865 35.6193 63.8924C35.6286 63.9053 35.6379 63.9169 35.6461 63.9298L35.6718 63.9671C35.8391 64.2112 35.9858 64.4688 36.1105 64.7372C36.1292 64.7792 36.2773 65.2133 36.2949 65.2564Z" fill="#360401"/>
<path d="M36.2948 64.7792L36.261 69.7708C36.261 69.7708 34.1502 69.6646 33.6275 66.6939C33.2506 64.5528 34.1036 63.1409 34.6076 62.519C34.8127 62.6685 35.003 62.8373 35.1759 63.0231C35.338 63.1978 35.487 63.3842 35.6216 63.5808C35.8785 63.9611 36.1037 64.3619 36.2948 64.7792Z" fill="#FFD1BC"/>
<path d="M36.3242 63.1458L36.2927 65.2858C36.2569 65.1459 36.2136 65.008 36.1631 64.8727C36.148 64.8295 36.1293 64.784 36.1095 64.7362C35.989 64.4482 35.8322 64.1769 35.6427 63.9287C35.6346 63.9159 35.6252 63.9042 35.6159 63.8914C35.0652 63.1831 34.078 62.4585 32.3126 62.3687C30.6791 62.2859 29.0455 64.7268 29 64.8015L29.3501 63.1155L29.3956 62.8973C29.7351 62.2077 30.8296 61.2486 33.1808 61.3454C35.5319 61.4422 36.3242 63.1458 36.3242 63.1458Z" fill="#FFBE3D"/>
<path d="M62.2114 25.9135C62.227 26.4674 62.148 27.0198 61.9781 27.5471C61.7564 28.176 61.418 28.5121 61.1333 28.6917C61.1333 28.6392 61.1333 28.6112 61.1333 28.6112L61.0633 28.3919C59.3235 23.0723 55.6597 20.7165 55.6597 20.7165C55.291 22.6103 56.7145 23.9323 56.7145 23.9323C56.7145 23.9323 54.2117 24.42 53.9468 22.6103C53.682 20.8005 53.2141 21.2661 53.2141 21.2661C52.2573 25.2753 45.2167 25.3978 46.2341 25.1936C47.2516 24.9894 47.4348 23.4644 47.5573 22.874C47.6798 22.2836 44.7488 22.8133 42.7733 24.5227C41.2413 25.8494 39.9415 27.6533 39.5832 28.7466C39.4794 29.0628 39.4537 29.3183 39.5249 29.4863C39.5377 29.5179 39.5541 29.5599 39.5739 29.6112C39.5681 29.6019 39.5424 29.5564 39.5051 29.4758C39.4677 29.3953 39.3989 29.2425 39.3289 29.0593C39.2892 28.9566 39.2483 28.8388 39.2052 28.7092C38.8376 27.5774 38.3756 25.364 38.7093 21.9172C38.7093 21.8682 38.7175 21.8203 38.7233 21.7713C38.7291 21.7223 38.7361 21.6441 38.7431 21.5811C38.7431 21.5811 41.7174 17.7504 49.8886 17.7504C49.8886 17.7504 60.2267 17.9733 62.2079 22.6033C62.2114 22.5963 62.2091 24.4737 62.2114 25.9135Z" fill="#561602"/>
<path d="M62.2114 22.5961C60.2278 17.9661 49.8921 17.7433 49.8921 17.7433C41.7244 17.7433 38.7466 21.574 38.7466 21.574C38.7396 21.637 38.7326 21.7011 38.7268 21.7641C38.721 21.8272 38.7175 21.861 38.7128 21.91C38.7035 21.8738 38.693 21.84 38.6836 21.8062C38.6603 21.721 38.6358 21.6416 38.6113 21.5728C38.6696 20.1913 38.9613 14.7784 39.931 12.3724C39.9928 12.2207 40.057 12.0807 40.1235 11.9547C40.1437 11.9173 40.1635 11.8823 40.183 11.8497C40.2551 11.7211 40.3412 11.601 40.4397 11.4914C40.4397 11.4914 43.68 8.96879 51.2912 9.00029C51.2912 9.00029 60.2629 9.89409 60.8416 12.9593C61.4203 16.0245 62.2126 20.9999 62.2114 22.5961Z" fill="#DB0101"/>
<path d="M40.1829 11.844C40.1635 11.8767 40.1437 11.9117 40.1234 11.949C40.0569 12.0751 39.9927 12.2151 39.9309 12.3668C38.5249 13.977 38.19 19.251 38.1223 20.7166C38.1223 20.7166 38.3755 20.8706 38.6101 21.5672C38.6346 21.6407 38.6591 21.72 38.6824 21.8005C38.6917 21.8344 38.7022 21.8682 38.7116 21.9044C38.3779 25.3512 38.8399 27.5646 39.2075 28.6965C39.2506 28.8295 39.2915 28.9473 39.3312 29.0465C39.2891 29.2169 39.2576 29.3767 39.2355 29.5261C39.1641 29.9084 39.1764 30.3017 39.2716 30.6789C39.2821 31.0149 39.288 31.2133 39.288 31.2133L37.148 31.1491C37.148 31.1491 36.8365 22.1856 37.8983 20.8566C37.7303 20.2312 37.7513 18.3654 38.4245 15.1391C39.0453 12.2011 39.7839 11.8055 40.1829 11.844Z" fill="#101010"/>
<path d="M52.8522 37.3645C52.6022 37.4409 52.3472 37.5001 52.0891 37.5418C51.6376 37.6153 50.3074 38.0879 50.3074 38.0879L48.7147 37.5815C48.815 37.5955 48.9177 37.606 49.0216 37.6165C49.4214 37.6548 49.8229 37.6716 50.2246 37.6667C50.3844 37.6667 50.5431 37.6667 50.6983 37.6527C51.1736 37.6321 51.6474 37.5838 52.1171 37.508C52.3692 37.4675 52.6142 37.4197 52.8522 37.3645Z" fill="#DB8B61"/>
<path d="M60.4142 31.095C59.8913 32.2719 59.1667 33.3483 58.2731 34.2757C57.9011 34.6669 57.501 35.0304 57.076 35.3632C56.7769 35.5988 56.4652 35.8181 56.1425 36.0201C55.8975 36.173 55.6419 36.3177 55.3724 36.4554C54.5755 36.8621 53.7307 37.1675 52.8579 37.3643C52.6199 37.4188 52.3748 37.4666 52.1228 37.5078C51.6531 37.5836 51.1793 37.6319 50.704 37.6525C50.5488 37.6607 50.3901 37.6654 50.2302 37.6665C49.8286 37.6714 49.427 37.6547 49.0272 37.6164C48.9234 37.6059 48.8207 37.5954 48.7204 37.5814C47.4425 37.4268 46.2078 37.0216 45.0869 36.3889C44.8232 36.2403 44.5704 36.0847 44.3284 35.9221C44.2409 35.8638 44.1546 35.8055 44.0694 35.7401C42.4358 34.5429 41.3157 32.9992 40.5958 31.7391C40.1979 31.6994 39.5118 31.5057 39.2796 30.7029C39.1844 30.3258 39.172 29.9325 39.2434 29.5501C39.2656 29.4008 39.2971 29.2409 39.3391 29.0705C39.4073 29.2602 39.4892 29.4446 39.5841 29.6225C39.5643 29.5711 39.548 29.5291 39.5351 29.4976C39.464 29.3296 39.4896 29.074 39.5935 28.7578C39.9517 27.6645 41.2515 25.8606 42.7836 24.5339C44.7567 22.8245 47.6842 22.296 47.5675 22.8852C47.4508 23.4745 47.2618 25.0018 46.2444 25.2049C45.2269 25.4079 52.2675 25.2865 53.2243 21.2773C53.2243 21.2773 53.691 20.8106 53.9559 22.6215C54.2208 24.4324 56.7143 23.9319 56.7143 23.9319C56.7143 23.9319 55.2896 22.6099 55.656 20.7173C55.656 20.7173 59.3198 23.0731 61.0595 28.3926L61.1295 28.612C61.1295 28.612 61.1295 28.64 61.1295 28.6925C61.4142 28.5128 61.7526 28.1768 61.9743 27.5478C62.511 29.8547 60.9358 30.8383 60.4142 31.095Z" fill="#FFD1BC"/>
<path d="M42.3322 36.5131C42.3317 36.5209 42.3317 36.5287 42.3322 36.5365L42.2435 36.519L42.3322 36.5131Z" fill="#741104"/>
<path d="M50.3098 38.7158L50.3856 38.7776L52.7006 40.6772L52.8395 40.4952L50.2958 38.4696L50.3098 38.7158Z" fill="#F3F3F3"/>
<path d="M50.2956 38.4696L47.9619 40.8849L48.0588 41.1136L50.4683 38.6143L50.2956 38.4696Z" fill="#F3F3F3"/>
<path d="M50.3612 55.9427L50.2713 38.6014" stroke="#F3F3F3" stroke-width="2" stroke-miterlimit="10"/>
<path d="M51.648 90.4711C50.9841 90.5388 49.4929 90.6858 48.7636 90.7278V90.68C48.8181 89.7267 48.9492 88.7793 49.1557 87.847C49.3704 86.9753 49.6889 86.2764 50.1603 86.2134C50.6912 86.1411 51.0471 86.9858 51.284 88.0243C51.4564 88.8315 51.578 89.6487 51.648 90.4711Z" fill="#DB0101"/>
</svg>
