<svg width="103" height="103" viewBox="0 0 103 103" fill="none" xmlns="http://www.w3.org/2000/svg">
<mask id="mask0_419_247" style="mask-type:luminance" maskUnits="userSpaceOnUse" x="3" y="0" width="100" height="100">
<path d="M103 0H3V100H103V0Z" fill="white"/>
</mask>
<g mask="url(#mask0_419_247)">
<path d="M95.0652 69.7615C90.6915 74.1633 85.1948 76.7357 79.5059 77.4975C77.2663 90.2847 66.1863 100 52.8417 100C39.4972 100 28.3861 90.2597 26.1652 77.4538C13.0626 75.5431 3 64.1982 3 50.487C3 36.7757 12.9882 25.5119 26.0163 23.5327C27.8216 10.246 39.1374 0 52.8417 0C66.5461 0 77.8309 10.221 79.661 23.489C85.2941 24.2757 90.7349 26.8481 95.0652 31.2125C105.643 41.8581 105.643 59.1158 95.0652 69.7615Z" fill="#121F99"/>
</g>
<path d="M69.4361 48.899C67.2463 46.8319 64.4861 45.7264 61.8096 44.5224C59.8327 43.6365 59.6502 43.3791 60.3878 41.2135C60.1749 40.002 59.1864 40.2064 58.3652 40.108C55.088 40.0852 52.2594 41.3649 49.6666 43.2125C48.3816 44.1287 47.1118 44.9995 45.5758 45.4386C44.6102 45.7794 44.1615 46.5441 43.8726 47.4528C43.6673 47.7784 43.3632 48.0131 43.1655 48.3463C39.3104 55.0399 36.2613 62.1046 35.5314 69.7977C34.8547 76.9305 34.9611 84.1466 37.1434 91.1356C37.4551 92.1426 37.9417 92.9301 38.9834 93.2709C39.2724 93.3617 39.5841 93.3693 39.797 93.1497C41.0897 91.7792 42.5648 90.5525 43.2491 88.7201C42.9602 88.2658 42.3747 88.5081 41.85 88.0613C43.9486 86.0623 45.8572 83.9195 48.2523 82.2688C48.374 81.2163 47.7809 80.3758 47.4159 79.4671C45.2565 74.091 43.6673 68.6089 43.9486 62.7179C44.1007 59.5755 45.112 56.8723 47.1498 54.4569C49.4385 51.7461 51.5903 48.9217 54.8447 46.6653C52.0541 51.3069 53.4532 55.2898 56.0004 59.1364C56.0993 59.2802 56.1981 59.4317 56.3122 59.5604C56.7 59.992 57.0802 60.6053 57.7189 60.4236C58.4792 60.2116 57.909 59.4165 58.0458 59.1136C59.711 61.6881 61.9085 63.9067 64.144 66.095C65.1477 67.0566 66.2122 67.9577 67.0258 69.1011C67.7937 70.1309 68.7062 71.0092 69.7479 71.7513C70.6831 72.4176 70.7135 73.1067 69.8771 73.8714C69.5806 74.144 69.3373 74.5075 68.9799 74.6892C65.8472 76.2415 63.8854 79.3384 60.7223 80.8528C60.2053 81.0951 59.7414 81.4737 59.4753 82.0189C59.3309 82.7004 59.6654 83.0487 60.3041 82.9881C62.3115 82.8139 63.1555 84.4798 64.4101 85.502C65.0564 86.032 63.9843 86.5242 64.3493 87.0618C65.0336 87.9477 65.7712 87.3723 66.3338 87.0013C69.3297 84.9947 72.8806 84.4192 76.1426 83.1017C77.1767 81.1178 79.2829 80.3 80.8264 78.8689C82.1418 77.6498 83.6778 76.6655 84.8335 75.2647C86.3086 73.4701 86.3847 72.1526 85.0616 70.2369C82.6209 66.7083 80.1269 63.2177 77.3972 59.8936C77.1006 59.5377 76.728 59.2348 76.7661 58.7048C76.0589 57.781 75.0476 57.1146 74.485 56.0697C73.0707 54.5326 72.029 52.7456 71.0177 50.9435C70.5995 50.1938 70.1433 49.4594 69.4437 48.9142L69.4361 48.899Z" fill="#F4F4F4"/>
<path d="M7.87903 63.696C7.38168 63.0128 6.83358 62.3603 6.28433 61.7102C6.26063 61.6822 6.23692 61.6541 6.21321 61.6261C5.68729 61.0037 5.16226 60.3825 4.67947 59.7354C3.67067 58.3833 2.84908 56.9223 2.596 55.1167L2.59599 55.1167C2.51815 54.5663 2.17563 54.0267 1.70801 53.8136L1.70751 53.8134C0.931189 53.4698 0.492791 52.9886 0.264321 52.4143C0.0388216 51.8474 0.0158096 51.1848 0.0834381 50.4639C1.88195 49.4598 3.44124 48.2139 4.30021 46.2677L32.2844 70.0632L32.3344 70.0633C32.3363 69.3295 32.3274 68.7659 32.2656 68.3431C32.2038 67.9209 32.088 67.6282 31.8665 67.4471C31.6453 67.2664 31.3298 67.206 30.8917 67.2202C30.4528 67.2344 29.88 67.3241 29.1355 67.4546L29.1352 67.4546C29.0477 67.4705 28.9611 67.498 28.8776 67.5254C28.87 67.5279 28.8625 67.5304 28.855 67.5329C28.7785 67.558 28.7048 67.5823 28.6312 67.5989L28.6312 67.599C25.7294 68.2571 22.8076 68.6422 19.8188 68.3778C18.0238 68.2188 16.2206 68.09 14.4171 68.0445L14.417 68.0445C12.8234 68.0069 11.4838 67.5187 10.3998 66.3417L10.3997 66.3416C10.0965 66.0147 9.77258 65.7026 9.4499 65.3917C9.33041 65.2765 9.21108 65.1615 9.09304 65.046C8.65534 64.6177 8.23388 64.1809 7.87903 63.696ZM7.87903 63.696C7.87904 63.696 7.87905 63.696 7.87906 63.696L7.83863 63.7254L7.87898 63.6959C7.879 63.6959 7.87901 63.6959 7.87903 63.696Z" fill="#F4F4F4" stroke="#121F99" stroke-width="0.1"/>
<path d="M39.3632 93.1121C37.8349 92.476 37.5839 91.0828 37.257 89.6895C33.957 75.6132 35.7971 62.2562 42.9217 49.6413C43.1726 49.1946 43.3551 48.7024 43.568 48.2329C41.0968 48.8992 39.5001 50.7695 37.8425 52.4959C35.7286 54.6994 34.6413 57.3874 34.2155 60.4238C33.6985 64.1038 33.2651 67.7989 33.3259 71.4865C33.3791 74.7424 32.4287 77.5138 30.695 80.1337C28.6192 83.276 26.5662 86.4411 24.2471 89.4094C23.9354 89.9242 23.54 90.3634 23.0762 90.7496C22.0116 91.8172 21.4414 92.741 23.502 93.3846C24.1787 93.5967 24.7109 94.2327 25.3116 94.6795C25.7374 95.1565 25.9275 95.8985 26.7487 95.9061C28.0261 96.6406 28.931 97.7915 30.0031 98.7607C32.748 101.244 35.9111 102.585 39.6902 102.198C41.0132 100.972 41.3401 99.4422 41.0816 97.731C40.9676 97.5341 40.9372 97.2539 40.7395 97.1479C39.0362 96.2166 38.6941 94.8385 39.3556 93.1121H39.3632Z" fill="#346200"/>
<path d="M45.5755 45.4311C46.6552 45.6886 47.522 45.4009 48.404 44.6891C51.2858 42.3721 54.4109 40.5699 58.2736 40.5321C58.1824 38.9192 56.9278 37.9197 56.1826 36.6628C55.8328 36.0722 55.1561 36.3145 54.5934 36.5114C53.795 36.7915 53.0499 37.3443 51.8865 37.0111C52.6621 36.3902 53.5213 36.2993 54.2133 35.8904C56.4107 34.5881 56.692 31.9682 54.7683 30.5143C54.4414 30.4159 54.1068 30.3932 53.7722 30.4159C52.1146 30.7036 50.7992 31.6426 49.2557 32.8692C49.6434 31.8394 50.1833 31.1958 50.1757 30.3705C50.1681 29.5073 49.7727 28.9469 48.9743 28.6516C48.1835 28.3639 47.4536 27.9626 46.7312 27.531C45.3702 26.8722 44.07 25.956 42.4276 26.6451C41.8497 28.8561 40.9981 30.8627 39.0591 32.324C38.2303 32.9449 37.8121 33.9217 39.0668 34.7319C39.6522 35.1105 39.7131 35.8526 39.5382 36.2993C38.8158 38.1015 39.675 39.896 39.4165 41.683C39.196 43.1974 40.2149 43.9395 41.4771 44.2575C42.42 44.4922 43.4313 44.4846 44.4197 44.5377C45.0432 44.5679 45.6211 44.5831 45.5679 45.4311H45.5755Z" fill="#FFC1A4"/>
<path d="M53.6815 30.7565C54.0313 30.7565 54.3887 30.7716 54.7384 30.7716C57.0423 31.703 59.4223 32.4375 61.787 33.2098C62.4333 33.4218 63.0949 33.7929 63.7716 33.2628C64.0301 30.0599 64.3115 26.8569 63.1177 23.76C62.6539 22.2077 61.1255 21.7686 60.0686 20.8296C58.9585 20.1027 57.6278 19.9058 56.4341 19.3607C54.5027 19.5424 52.617 19.0654 50.7009 19.0048C46.0322 18.8533 42.2988 22.3213 42.4357 26.6373C43.9564 26.7585 45.3783 27.2052 46.7014 27.9473C47.7127 28.0684 48.5643 28.6591 49.5299 28.9241C50.7693 29.6358 52.1076 30.128 53.5142 30.2946C54.2214 30.3779 53.3394 30.7262 53.6815 30.7565Z" fill="#AD0707"/>
<path d="M24.2477 89.712C27.4413 85.9563 30.3155 81.981 32.627 77.612C33.4026 76.143 33.7599 74.6286 33.7447 72.9552C33.6991 68.4499 34.0793 63.9597 34.8396 59.5225C35.7369 54.2903 39.2802 50.9434 43.5687 48.2327C43.85 48.0358 43.9032 47.7556 43.8804 47.4452C42.8387 47.7405 42.1848 48.7551 41.0899 48.9444C39.7516 50.1408 38.383 51.3069 37.0751 52.5336C34.0337 55.3655 33.5318 59.1818 33.0148 62.998C32.6802 65.4816 32.6574 67.9728 32.6422 70.464C32.6422 70.9789 32.7258 71.5165 32.3761 71.9784C32.6954 74.4696 31.7906 76.6276 30.65 78.7629C28.6275 82.5565 26.0802 86.0244 23.8524 89.6893C23.9816 89.8483 24.1185 89.8483 24.2553 89.7044L24.2477 89.712Z" fill="#FF7A00"/>
<path d="M24.2477 89.7119C24.1108 89.7119 23.9739 89.6968 23.8447 89.6892C23.5861 90.0451 23.3276 90.3934 23.0691 90.7493C23.647 90.613 23.9967 90.2117 24.2477 89.7119Z" fill="#DA2320"/>
<path d="M48.1079 82.3975C46.6936 82.7155 45.6139 83.397 44.7698 84.6691C44.154 85.5929 43.059 86.1987 42.2302 87.0013C41.7968 87.4253 40.968 87.8266 41.2341 88.4854C41.6143 89.4092 42.4659 88.546 43.097 88.6747C43.9943 89.235 44.7394 88.5384 45.553 88.3794C46.2754 88.2355 46.9217 87.7661 47.9026 87.9175C47.0738 89.5985 45.5302 90.6055 44.5874 92.0594C44.1311 92.756 43.3404 93.3315 43.8422 94.3385C44.3593 94.5733 44.8307 94.3688 45.3021 94.1947C46.1689 93.6268 47.3475 93.6041 48.0318 92.6803C48.0926 92.6046 48.1763 93.1194 48.4424 93.2179C49.1724 93.339 49.6362 92.809 50.1837 92.4985C51.0277 91.9306 51.7804 91.234 52.7689 90.8857C57.217 91.1659 60.844 89.023 64.4861 86.9483C65.6723 86.0699 65.0944 85.4036 64.2428 84.7297C63.5661 84.1997 62.9198 83.6242 62.2735 83.0638C61.7336 82.5944 61.3154 81.8826 60.4106 82.6171C60.0152 82.9351 59.6806 82.5641 59.6274 82.0643C57.8786 82.7307 56.0993 82.8064 54.2896 82.3218C52.6168 81.9129 50.9288 81.8372 49.218 81.9432C48.7922 81.9659 48.412 82.1174 48.1003 82.4127L48.1079 82.3975Z" fill="#FFC1A4"/>
<path d="M64.4858 86.9408C63.1171 86.5471 62.083 87.4633 61.239 88.1296C59.3609 89.6289 57.2927 90.1286 54.9888 90.2119C54.1676 90.2422 53.2551 90.1741 52.5556 90.8101C52.4948 90.9616 52.5404 91.0676 52.6849 91.1433C53.6581 92.6425 54.677 94.0888 56.1521 95.1792C58.6842 97.057 61.5127 96.9737 63.6265 94.5961C65.5959 92.3775 67.6489 90.3028 70.1201 88.6597C70.4774 88.5612 70.6903 88.2659 70.9261 88.0161C71.6712 87.3573 72.5456 86.9106 73.4429 86.4941C74.8952 85.8126 75.8836 84.7374 76.127 83.0943C76.0205 82.5037 75.7088 82.5794 75.2754 82.7914C72.0286 84.3815 68.2648 84.7828 65.3222 87.0847C65.0104 87.3346 64.6911 87.3649 64.4705 86.9484L64.4858 86.9408Z" fill="#346200"/>
<path d="M43.8951 94.2705C44.3361 92.4305 45.8112 91.3099 46.9517 89.9696C47.6056 89.1973 48.9135 88.3038 48.4497 87.5314C47.9706 86.7288 46.6704 87.6374 45.7503 87.8873C44.8607 88.1372 43.9787 88.4174 43.0967 88.6824C41.8497 90.1589 40.6027 91.6354 39.3633 93.112C38.3038 94.7122 38.8766 96.2518 41.0817 97.7309C41.9029 96.792 42.4808 95.641 43.5605 94.9217C43.743 94.74 44.0699 94.634 43.8951 94.2705Z" fill="#FF7A00"/>
<path d="M48.4423 93.2102C48.3282 92.8467 48.7084 91.9532 47.6971 92.6044C46.9367 93.0966 46.1003 93.4903 45.302 93.9219C45.2183 94.24 45.2791 94.4065 45.6517 94.2702C46.6174 93.9977 47.6135 93.8159 48.4423 93.2102Z" fill="#F8D5CF"/>
<path d="M52.693 91.1434C52.6474 91.0298 52.6094 90.9238 52.5638 90.8102C51.3168 90.7345 50.7921 91.6734 50.1838 92.4912C51.1495 92.2792 52.0543 91.9611 52.693 91.1434Z" fill="#F8D0C9"/>
<path d="M45.6441 94.2781C45.53 94.1645 45.4084 94.0434 45.2943 93.9298C44.8305 94.0434 44.3591 94.157 43.8952 94.2706C43.7812 94.4901 43.6747 94.7097 43.5607 94.9217C44.2526 94.6946 45.0282 94.7324 45.6441 94.2706V94.2781Z" fill="#F8BAA6"/>
<path d="M63.7716 33.2706C61.2928 32.4907 58.8216 31.6805 56.32 30.946C55.8334 30.8022 55.3239 30.2267 54.7384 30.7795C56.1147 32.309 55.8562 34.3686 54.153 35.4665C53.2101 36.0799 52.1076 36.2313 51.0355 36.4887C51.7198 37.882 52.4421 38.2 54.0313 37.2156C55.4912 36.307 56.0539 36.7689 56.6546 38.0864C57.0576 38.9648 57.7267 39.722 58.2818 40.5322C59.0193 40.6533 59.8861 40.3656 60.388 41.2137C61.1635 40.2444 61.0875 38.9269 61.711 37.8971C62.038 37.3595 62.2357 36.572 62.7223 36.3222C64.1214 35.5877 63.9845 34.4822 63.7716 33.2782V33.2706Z" fill="#080607"/>
<path d="M74.287 56.3574C74.9789 57.2736 75.3743 58.5003 76.7581 58.6971C78.3777 57.1373 79.9441 55.5169 81.6321 54.0328C82.8867 52.9349 82.0503 52.3064 81.3356 51.5038C80.598 50.6784 80.0353 50.2089 79.0545 51.3447C78.2865 52.2382 77.6174 53.2983 76.4464 53.8056C75.3895 54.3735 74.3326 54.9414 74.2794 56.3574H74.287Z" fill="#FF7A00"/>
<path d="M74.2871 56.3573C75.0094 55.5093 75.7318 54.6536 76.4541 53.8056C74.3859 51.7763 72.082 50.0953 69.4283 48.8989C70.8654 51.5037 72.0668 54.2523 74.2871 56.3573Z" fill="#346200"/>
<path d="M48.1077 82.3975C48.4498 82.3823 48.7844 82.3672 49.1266 82.352C50.6093 81.6857 51.5978 80.4287 52.6243 79.2778C56.1143 75.3252 59.9846 71.7437 63.4899 67.8138C63.9613 67.2838 64.7597 66.9128 64.5772 65.9814C62.2125 63.5887 59.9846 61.0748 57.7947 58.3791C57.2929 59.1136 58.0761 59.6739 57.6883 60.4766C55.833 58.4624 54.7913 56.1605 53.9701 53.7299C53.0501 51.0116 54.4567 48.6946 55.3768 46.158C54.1374 46.2337 53.4911 47.059 52.7763 47.6496C49.9706 49.9591 47.7351 52.8213 45.6289 55.7214C42.9524 59.4014 43.1577 63.725 43.6899 67.9804C44.3134 73.0309 46.2296 77.718 48.1153 82.405L48.1077 82.3975Z" fill="#346200"/>
<path d="M54.3732 82.7457C55.6887 83.3742 57.0877 82.9577 58.4488 83.094C59.27 83.1773 59.1711 82.3217 59.6273 82.0567C61.3154 80.936 63.3912 80.1258 64.6077 78.6266C66.2121 76.6427 68.5769 75.8628 70.2877 74.1591C71.2381 73.2126 71.4739 72.463 70.1888 71.5392C69.1167 70.7668 68.2347 69.7371 67.269 68.8284C66.1589 68.7906 65.6723 69.6916 65.0868 70.358C61.8552 74.0228 58.4868 77.5513 55.2172 81.1783C54.8142 81.6251 54.1527 81.9734 54.3808 82.7609L54.3732 82.7457Z" fill="#346200"/>
<path d="M54.3732 82.7461C58.654 78.0893 62.7828 73.2887 67.269 68.8136C66.4782 67.7611 65.5658 66.8222 64.5697 65.9666C62.2049 68.4956 59.8478 71.0322 57.4755 73.5461C54.7001 76.484 51.9096 79.4068 49.1266 82.3372C50.8907 82.3372 52.6395 82.4356 54.3808 82.7385L54.3732 82.7461Z" fill="#FF7A00"/>
<path d="M53.6813 30.7566C53.8257 30.5068 54.5405 30.2796 53.6204 30.0297C52.2213 29.6511 50.8527 29.1514 49.4764 28.7046C49.1343 28.538 48.7921 28.3715 48.8073 28.9999C50.579 29.8177 49.6741 30.9156 49.1571 32.0136C48.9746 32.4073 48.1762 32.7405 48.7921 33.263C49.332 33.7249 49.7578 33.1948 50.0999 32.8162C51.0732 31.7486 52.3506 31.211 53.6736 30.7566H53.6813Z" fill="#0B0709"/>
<path d="M48.8071 28.9999C49.0276 28.9015 49.2557 28.8031 49.4762 28.7046C48.6018 28.2579 47.773 27.6673 46.7009 27.955C47.3548 28.4018 48.0239 28.8106 48.8071 28.9999Z" fill="#AD0707"/>
<path d="M82.7806 48.9067C75.5724 48.4751 72.8427 40.6381 71.0938 30.8551C69.345 21.0645 61.0494 21.3901 61.0494 21.3901C61.0494 21.3901 69.1777 18.4824 72.4321 28.1216C75.6788 37.7607 73.892 47.5361 83.6399 47.8012" stroke="black" stroke-miterlimit="10"/>
<path d="M60.0605 20.8373C60.0605 20.8373 70.3026 17.4905 74.2793 28.2578C78.2561 39.0252 75.1386 46.4836 84.4911 46.8773" stroke="black" stroke-miterlimit="10"/>
<path d="M60.0912 22.0411C60.0912 22.0411 65.9917 21.6474 68.3108 27.4551C70.6299 33.2628 70.4322 48.1266 82.8338 49.5804" stroke="black" stroke-miterlimit="10"/>
</svg>
