<svg width="100" height="100" viewBox="0 0 100 100" fill="none" xmlns="http://www.w3.org/2000/svg">
<mask id="mask0_419_1068" style="mask-type:alpha" maskUnits="userSpaceOnUse" x="0" y="0" width="100" height="100">
<path d="M92.0669 69.7615C87.6931 74.1634 82.1965 76.7358 76.5074 77.4976C74.2677 90.2848 63.1875 100 49.8426 100C36.498 100 25.3867 90.2598 23.1657 77.4538C10.0629 75.5433 0 64.1983 0 50.487C0 36.7757 9.98842 25.512 23.0168 23.5327C24.822 10.246 36.1382 0 49.8426 0C63.5472 0 74.8323 10.221 76.6625 23.489C82.2957 24.2757 87.7365 26.8481 92.0669 31.2126C102.644 41.8581 102.644 59.1159 92.0669 69.7615Z" fill="#FFB500"/>
</mask>
<g mask="url(#mask0_419_1068)">
<path d="M92.0669 69.7615C87.6931 74.1634 82.1965 76.7358 76.5074 77.4976C74.2677 90.2848 63.1875 100 49.8427 100C36.498 100 25.3867 90.2598 23.1657 77.4538C10.0629 75.5433 0 64.1983 0 50.487C0 36.7757 9.98842 25.512 23.0168 23.5327C24.822 10.246 36.1382 0 49.8427 0C63.5472 0 74.8324 10.221 76.6625 23.489C82.2957 24.2757 87.7366 26.8481 92.0669 31.2126C102.644 41.8581 102.644 59.1159 92.0669 69.7615Z" fill="#FFB500"/>
<path d="M93.9709 138.503C93.8127 138.812 93.9709 138.812 93.5971 139.38C93.5396 139.465 93.4965 139.549 93.4606 139.619C93.2449 140.027 93.2737 140.244 93.2305 140.421C93.1803 140.61 92.4543 140.497 92.1884 140.441C92.1597 140.441 92.1309 140.427 92.1165 140.421C91.9585 140.371 91.4266 140.785 91.4266 140.785C91.1534 140.911 90.8803 141.046 90.6215 141.186C90.4347 141.284 90.2478 141.39 90.0682 141.487C89.7303 141.684 89.3997 141.881 89.0907 142.092C88.6307 142.393 88.2066 142.703 87.7969 143.033C86.8266 143.812 86.0001 144.641 85.3101 145.469C85.188 145.617 85.0729 145.757 84.9579 145.905C84.7423 146.179 84.3542 146.727 84.3542 146.727C83.1899 148.405 82.5214 149.986 82.1549 151.039C82.0974 151.193 82.0542 151.334 82.0111 151.467C81.9752 151.587 81.9393 151.692 81.9177 151.791C81.9033 151.847 81.889 151.888 81.8745 151.938C81.8027 152.198 81.774 152.345 81.774 152.345C81.774 152.345 81.6589 152.345 81.4577 152.345C81.1918 152.345 80.7605 152.331 80.2574 152.324C80.2 152.324 80.1424 152.324 80.0777 152.324C78.0653 152.289 74.9532 152.268 74.7806 152.409C74.5148 152.619 73.7744 152.668 73.7744 152.668C73.7744 152.668 69.7999 152.823 69.268 152.929C69.0668 152.97 68.5852 153.7 68.0749 154.593C67.2339 156.04 66.3068 157.9 66.3068 157.9C66.3068 157.9 60.1544 157.95 58.5732 156.706C57.6532 155.984 55.5833 155.962 53.8583 156.131C52.6077 156.25 51.5367 156.475 51.2061 156.601C50.4084 156.911 46.6494 160.126 46.3834 160.485C46.2972 160.598 45.9953 160.752 45.5928 160.864C44.7303 161.11 43.4007 161.18 42.7825 160.331C41.8841 159.087 35.7893 159.755 35.4658 159.755C35.1424 159.755 34.6752 157.788 34.5099 155.928C34.3518 154.059 30.8013 152.507 30.8013 152.507C30.8013 152.507 30.2406 151.327 30.8013 150.021C30.8803 149.831 30.9882 149.642 31.1247 149.452C31.175 149.381 31.2254 149.304 31.2684 149.234C32.1741 147.836 32.0734 146.755 32.0734 146.755L28.4726 144.374C28.4726 144.374 28.5804 145.512 28.6307 146.649C28.6882 147.787 28.5804 152.036 29.105 153.898C29.6369 155.759 27.8904 155.295 25.3964 155.19C22.9096 155.085 23.118 155.19 22.9096 154.726C22.7443 154.368 21.4937 154.256 20.5377 154.22C20.243 154.206 19.9843 154.206 19.783 154.206C18.935 154.206 18.935 153.223 18.935 152.029C18.935 150.835 18.6187 148.455 18.6187 148.455C17.5621 144.88 18.0366 140.637 18.0366 137.112C18.0366 133.586 19.0428 131.262 19.3087 128.776C19.4812 127.174 19.8694 125.348 20.2 123.902C20.3796 123.101 20.5377 122.42 20.6312 121.942C20.8971 120.593 21.4793 118.368 22.7515 116.506C24.0236 114.645 25.073 112.201 25.073 112.201L33.7481 88.1189L33.899 87.6975C33.899 87.6975 32.6916 86.3701 31.2828 85.0146C29.867 83.6592 30.3844 80.2741 30.715 79.4663C30.8588 79.1152 31.0601 78.5323 31.2397 77.9423C31.4769 77.1698 31.6781 76.3973 31.6925 76.1585C31.7213 75.7301 32.2819 71.8674 32.4903 69.7323C32.6987 67.5973 34.6753 67.4217 34.6753 67.4217C36.5081 66.881 38.4773 64.6405 39.8646 62.7444C40.9929 61.2203 41.7333 59.9211 41.7333 59.9211L44.8597 61.4943L49.0571 63.6082C49.0571 63.6082 50.89 60.6374 53.1755 60.1177C55.4539 59.598 54.9723 58.3619 54.9723 58.3619C54.7063 56.5499 55.0801 56.1355 55.3964 55.7212C55.7127 55.3068 55.7127 55.1031 55.9283 54.7871C56.1439 54.4781 56.1439 55.8757 58.3145 55.4613C60.485 55.0469 61.4409 55.9249 61.7069 56.29C61.9728 56.6553 62.7634 56.5499 62.7634 56.5499C66.2636 56.2409 65.6743 57.6385 65.6743 57.6385C64.244 57.2733 63.8774 57.9475 63.8774 57.9475L64.3015 60.7427L62.6628 63.0182C62.6628 63.0182 65.0993 66.9511 65.739 67.8361C66.3714 68.714 66.9033 72.1343 67.0615 72.6469C67.2195 73.1666 68.0174 80.6743 68.0174 80.6743L73.106 87.1497C73.106 87.1497 75.0178 87.7185 75.4922 88.5473C75.9665 89.376 76.0743 89.5305 76.0743 90.3592C76.0743 91.188 76.4984 92.9507 76.7141 93.8287C76.9297 94.7065 77.4543 97.2489 77.7706 98.3304C77.9072 98.801 78.0869 99.5173 78.36 100.192C78.4102 100.311 78.4605 100.43 78.5109 100.543C78.6258 100.775 78.7481 100.999 78.8989 101.196C79.2081 101.617 79.6034 101.919 80.0993 101.954C81.3427 102.039 81.3931 102.818 81.0984 103.254C81.0409 103.338 80.969 103.408 80.8899 103.457C80.4155 103.766 80.9402 104.335 81.1055 104.651C81.2637 104.96 81.7955 105.48 82.0039 106C82.083 106.203 82.1621 106.372 82.2195 106.54C82.2483 106.618 82.2699 106.702 82.2842 106.786C82.313 106.92 82.3345 107.06 82.3345 107.229C82.3345 107.229 82.3345 107.229 82.3345 107.243C82.3345 107.334 82.3345 107.44 82.3202 107.552C82.3202 107.601 82.3202 107.664 82.3202 107.748C82.3202 108.015 82.3418 108.437 82.3777 108.928C82.4423 109.855 82.5501 111.007 82.6365 111.773C82.6795 112.173 82.7227 112.468 82.7442 112.566C82.7442 112.566 82.7442 112.566 82.7442 112.573C82.852 112.939 83.1683 113.402 82.694 113.402C82.4136 113.402 82.2267 115.095 82.0974 116.717C82.0614 117.152 82.0327 117.588 82.0039 117.981C81.9609 118.606 81.9249 119.133 81.9033 119.407C81.7955 120.496 81.429 119.87 81.429 119.87C81.314 120.362 80.9977 120.896 80.5736 121.436C80.1927 121.907 79.7327 122.378 79.244 122.806C78.3024 123.635 77.2603 124.316 76.5559 124.583C75.5138 124.983 75.1544 125.51 75.0322 125.791C74.9819 125.91 74.9675 125.98 74.9675 125.98C74.9675 125.98 74.9675 125.98 74.9747 125.98C75.0394 125.98 75.0969 125.995 75.1544 126.002C81.7524 126.711 82.0111 129.71 82.3848 129.661C82.7586 129.604 84.2392 130.229 84.2392 130.229C85.5616 130.384 91.3403 134.731 92.5622 136.55C93.784 138.362 94.1505 138.208 93.9925 138.517L93.9709 138.503Z" fill="#E44400"/>
<path d="M57.8867 59.5854L54.3292 62.2138C54.3292 62.2138 50.3155 63.4687 50.2699 62.8076C50.2243 62.1467 49.8959 60.1534 49.8959 60.1534C51.2369 59.7506 52.5777 58 52.5777 58C52.7693 58.1188 52.9882 58.2324 53.2345 58.3357C54.2652 58.7952 55.6244 59.1361 56.6097 59.3427C57.3577 59.5028 57.8959 59.5854 57.8959 59.5854H57.8867Z" fill="#E6D2BB"/>
<path d="M45.8959 61.6729C45.8959 61.6729 44.5538 61.583 43.5162 60.025L42.8959 60L43.3075 61.9026C43.3075 61.9026 43.5387 61.9476 43.9278 61.9476C44.3169 61.9476 45.4279 61.8327 45.6365 61.9725C45.8452 62.1123 45.8959 61.6729 45.8959 61.6729Z" fill="#E6D2BB"/>
<path d="M35.8934 70C35.8934 70 35.6593 75.858 38.3259 78.2451L38.8959 78.5484L38.6109 79C38.6109 79 36.1072 78.1741 34.9876 72.7161L34.8959 70H35.8934Z" fill="#E6D2AF"/>
<path d="M65.8959 79.9469C65.8276 79.9469 62.9976 79.976 61.6698 80.8882C61.6698 80.8882 60.8959 81.3413 60.8959 80.4234C60.8959 79.5055 64.0749 78.7444 64.9703 79.0813C65.8656 79.4183 65.8959 79.9469 65.8959 79.9469Z" fill="#E6D2AF"/>
<path d="M63.6988 76.6795C63.6988 76.6795 62.3355 76.8067 61.6882 76.9613C61.041 77.1158 60.7718 76.7673 60.9494 76.6249C61.1269 76.4824 62.5475 76.0733 63.0687 76.0127C63.5899 75.9521 64.7011 76.1278 64.7011 76.1278L64.8959 76.8885L63.7044 76.6795H63.6988Z" fill="#E6D2AF"/>
<path d="M53.8959 63C54.1507 63.0631 56.6986 72.1744 54.8908 75.7558C54.8908 75.7558 54.4419 76.1424 54.6966 76.3711C54.9514 76.5999 55 76.7577 55.0971 76.9865C55.194 77.2153 57.2445 74.5173 56.8441 70.2812C56.4438 66.045 56.4437 65.1377 55.8492 64.6566C55.2547 64.1754 53.8959 63 53.8959 63Z" fill="#E6D2AF"/>
<path d="M57.889 75C57.889 75.171 52.2452 82.5224 47.7177 86.5366C47.4644 86.7623 44.8959 88 44.8959 88C44.8959 88 46.3616 85.8253 47.3274 85.2099C48.2931 84.5944 48.2041 84.3892 48.6014 83.8012C48.9986 83.213 50.8616 82.3377 51.6219 81.5991C52.3821 80.8606 54.0534 79.0894 54.0534 79.0894L57.8959 75H57.889Z" fill="#824D1C"/>
<path d="M42.828 77C42.828 77 43.0994 78.1012 42.5567 78.738C42.014 79.375 41.4666 80.2142 41.5789 80.9702L40.8959 81C40.8959 81 41.1485 79.8393 41.6257 79.2023C42.1029 78.5655 42.538 78.1905 42.5146 77.5833L42.8327 77.006L42.828 77Z" fill="#E6D2AF"/>
<path d="M51.5437 83C51.5437 83 51.5801 83.0678 51.6349 83.1808C51.936 83.7833 52.8485 85.7188 52.8941 87.0594C52.9488 88.6636 51.7079 87.7298 51.7079 87.7298C51.7079 87.7298 52.0821 86.3892 51.7079 85.3648C51.3338 84.3406 50.8959 83.6252 50.8959 83.6252L51.5437 83Z" fill="#E6D2AF"/>
<path d="M57.7171 90.0602L57.2422 89.0992H56.9181C56.7599 89.3295 50.2707 90.8704 47.8363 90.9816C47.8363 90.9816 47.4067 90.8068 46.9696 90.4653C46.5399 90.1237 45.8315 90.2349 45.0778 90.64C45.0778 90.64 42.3721 91.7758 40.8044 90.0125C40.8044 90.0125 40.6461 87.1611 37.9931 87.5583C36.5386 87.7807 35.2648 88.3288 34.3604 88.8291C33.3656 87.6298 31.5417 85.1915 31.9561 83.8808C32.5214 82.1018 32.5214 82.1971 33.2751 83.1819C34.0363 84.1668 34.3453 85.255 35.0614 85.5806C35.7773 85.9062 37.247 87.4153 37.247 86.0492C37.247 84.6831 36.531 84.4448 37.0661 83.738C37.6013 83.031 37.8725 81.7602 39.0332 82.1892C40.1939 82.61 41.5355 82.9437 41.5355 82.9437C42.2967 81.9985 45.3341 79.4092 45.7335 79.2662C46.1405 79.1233 47.4368 78.6547 47.1654 79.4568C46.9017 80.2511 45.6053 82.61 45.2436 83.46C44.8818 84.3098 43.5026 86.3749 44.2186 86.899C44.9345 87.4233 45.3792 86.5735 46.6756 86.5735C47.9719 86.5735 52.6599 86.4305 51.4087 87.5186C50.1576 88.5987 49.3135 89.0197 50.738 89.3057C52.1624 89.5837 52.6146 90.2508 52.7503 88.7417C52.8859 87.2326 54.0014 83.7062 54.8982 83.4202C55.7952 83.1422 56.1042 82.9993 55.7952 84.2224C55.4786 85.4455 55.8403 85.8268 56.4659 86.3431C57.0915 86.8594 58.6139 85.6362 58.6139 86.907C58.6139 88.1779 58.7043 87.9396 58.8777 88.98C59.0285 89.8697 58.2069 89.8538 57.7095 90.0681L57.7171 90.0602Z" fill="#824D1C"/>
<path d="M47.9044 78.7502C47.8363 78.6351 49.3696 76.9432 48.9607 76.126C48.5604 75.3089 48.8074 74.1465 48.1515 73.4329C47.4956 72.7193 48.7052 72 48.7052 72C48.7052 72 50.0682 74.6586 49.8126 75.447C49.5571 76.2354 50.0171 75.8555 49.8638 76.9489C49.7104 78.0423 48.3985 79.6076 47.8959 78.7559L47.9044 78.7502Z" fill="#E6D2AF"/>
<path d="M60.2959 64.9847L57.9016 64.8931C57.9016 64.8931 57.8659 63 57.9729 63C58.0798 63 60.4028 63.0916 60.581 63.4581C60.7592 63.8243 60.8959 63.6413 60.8959 63.6413L60.2959 65V64.9847Z" fill="#E6D2AF"/>
<path d="M40.8959 63.0153C40.8959 63.0153 38.2524 66.9519 35.7853 68.5877C33.3181 70.2312 33.5939 68.3813 33.5556 71.8365C33.5173 75.2916 33.5939 76.6599 32.866 78.3033C32.1458 79.9468 31.4256 80.8335 31.4945 83.57C31.5635 86.3066 31.5328 87.2698 32.5212 87.95C33.5173 88.638 35.226 89.9069 35.0573 90.0369C34.5977 90.4038 33.9234 90.8089 33.525 91L33.6858 90.5413C33.6858 90.5413 32.3986 89.0966 30.8969 87.6213C29.3874 86.146 29.9391 82.4617 30.2916 81.5826C30.6516 80.7035 31.3029 78.4409 31.3337 77.9746C31.3643 77.5083 31.9618 73.3041 32.1841 70.9804C32.4063 68.6565 34.5134 68.4654 34.5134 68.4654C36.4672 67.8769 38.5666 65.4384 40.0453 63.3746C40.4285 63.1605 40.7425 63.0229 40.8959 63V63.0153Z" fill="#824D1C"/>
<path d="M34.9225 88.1704C34.9225 88.1704 32.7188 85.6765 32.9073 84.3076C33.0958 82.9387 33.6829 85.0923 33.6829 85.0923C33.6829 85.0923 35.5677 87.4728 35.9229 87.5164C36.2781 87.56 37.7714 87.403 37.8366 86.81C37.9019 86.2172 37.5467 84.4646 38.0324 84.3163C38.5181 84.1681 38.6195 83.8454 38.9385 83.5751C39.2575 83.3049 39.5256 83.1828 39.8809 83.9675C40.2361 84.7523 39.9751 85.6853 40.8522 84.2379C41.7293 82.7904 44.2592 80.2181 44.165 81.2296C44.0707 82.2411 43.0632 84.0809 42.7732 85.2929C42.4832 86.505 41.6713 87.7867 42.3527 88.3797C43.0342 88.9725 44.0707 88.9289 44.8827 88.2663C45.6946 87.6036 50.1092 86.8624 49.812 87.6821C49.5148 88.5016 48.094 89.8271 48.8407 90.0277C49.5873 90.2281 51.3415 90.4984 50.7906 90.6903C50.2397 90.8821 48.1592 91.1612 47.6445 90.8821C47.1299 90.6031 45.1146 89.7922 44.4622 90.1409C43.8099 90.4897 42.5485 90.8821 41.9976 89.7486C41.4466 88.615 40.2795 87.56 39.4967 87.2897C38.721 87.0193 34.9225 88.1878 34.9225 88.1878V88.1704Z" fill="#E58614"/>
<path d="M42.3944 87.9344C42.3944 87.9344 40.6992 86.2004 40.1714 86.5487C39.6436 86.8971 39.9789 84.9232 40.308 84.8535C40.6371 84.7838 40.8359 84.7838 41.0593 85.6121C41.2829 86.4404 41.3078 86.2391 41.6431 85.7515C41.9785 85.2638 42.8105 84.1569 43.2266 83.7079C43.6426 83.2589 44.1146 82.3532 43.7854 83.7388C43.4502 85.1244 42.5932 86.2004 42.5622 86.75C42.5311 87.2997 43.0651 88.275 42.5062 87.9266C41.9473 87.5784 42.3944 87.9266 42.3944 87.9266V87.9344Z" fill="#F68919"/>
<path d="M46.8556 90C46.8556 90 47.744 89.0167 47.876 88.5013C48.0082 87.9857 47.4438 87.8139 47.2578 88.2435C47.0717 88.6731 46.5855 88.8448 46.3995 88.7972C46.2134 88.7495 45.6731 88.7972 45.9973 89.093C46.3214 89.389 46.8556 89.9905 46.8556 89.9905V90Z" fill="#F68919"/>
<path d="M56.0594 89.7601C55.382 89.6761 57.0196 89.0679 57.1512 88.6603C57.2828 88.2528 57.2828 87.8193 57.4777 88.0781C57.6727 88.3369 58.0237 88.9773 57.8482 89.5273C57.6727 90.0771 57.7166 90.1095 57.4973 89.8183C57.2779 89.5273 56.2983 89.7924 56.0594 89.7601Z" fill="#375E2C"/>
<path d="M58.13 86.9901C58.2468 86.9681 57.6092 83.9016 57.8915 83.0139C58.1738 82.1262 58.9379 80.6517 58.8941 79.6612C58.8503 78.6709 58.8941 78.6415 58.8308 77.4311C58.7675 76.2206 58.7237 73.0954 58.5923 73C58.5923 73 58.3976 74.0491 58.2857 75.8244C58.1738 77.5998 58.0229 78.7443 57.8477 79.5659C57.6724 80.3876 57.0836 82.7865 56.996 83.9309C56.9084 85.0827 56.8451 86.4912 56.9522 86.7553C57.0592 87.0195 57.9304 87.0195 58.13 86.9828V86.9901Z" fill="#F68919"/>
<path d="M59.0318 88C59.1503 87.2695 59.8959 86.8581 59.8959 86.8581L59.8169 86C59.3257 86.0922 58.8959 86.8581 58.8959 86.8581L59.0318 88Z" fill="#E6D2AF"/>
<path d="M60.8959 82.0223C60.8959 82.0223 58.0793 82.7387 57.9431 83L57.9012 81.0024C57.9012 81.0024 57.807 80.9687 58.4143 81.1541C59.0215 81.3396 59.1159 81.1878 59.6813 81.23C60.2466 81.2721 60.8959 81.23 60.8959 81.23V82.0223Z" fill="#E6D2AF"/>
<path d="M62.6409 71C62.6409 71 62.59 71 62.5446 70.9934C62.165 70.9605 60.8959 70.8092 60.8959 70.7039C60.8959 70.5855 60.9468 70 60.9468 70L62.6183 70.3224C62.6183 70.3224 62.8959 70.796 62.8959 70.9671L62.6409 70.9934V71Z" fill="#E6D2AF"/>
<path d="M58.9213 70L59.8045 70.3847L59.8959 71L58.8959 70.6924L58.9213 70Z" fill="#E6D2AF"/>
<path d="M42.0666 59C42.0666 59.1892 40.1821 64.0626 40.1821 64.0626C40.1821 64.0626 41.321 64.3497 40.6295 65.4001C39.9381 66.4504 38.8942 68.4598 39.7348 69.0274C40.5753 69.6015 41.6735 69.8886 40.4804 70.1756C39.2874 70.4627 38.8942 71.9894 39.389 72.7526C39.8839 73.5159 39.5381 74.2336 39.1924 74.9512C38.8467 75.6689 38.6976 76.7193 39.3416 75.9037C39.9855 75.0882 40.9821 72.5569 40.833 73.803C40.6838 75.0491 40.3855 75.0426 40.8804 75.2383C41.3752 75.434 41.4294 73.9009 41.7209 73.5681C42.0124 73.2354 42.2158 73.4702 42.0192 74.1423C41.8226 74.8142 41.4226 75.8646 41.9718 75.6232C42.5208 75.3818 43.2597 74.9512 43.2123 74.7163C43.1648 74.4815 43.463 73.2811 43.463 73.2811C43.463 73.2811 43.5106 73.5224 43.5106 74.3771C43.5106 75.2318 43.3139 76.5757 43.8563 75.8124C44.3985 75.0491 44.9477 74.2858 44.9477 73.8552C44.9477 73.4246 45.2934 72.2763 45.2934 72.4199C45.2934 72.5634 45.0425 73.3725 45.2934 74.0444C45.5441 74.7163 45.4899 74.9055 45.3408 75.6232C45.1917 76.3408 45.4425 77.4369 46.283 76.8171C47.1236 76.1973 48.2693 75.7668 48.1676 74.7163C48.0658 73.666 48.3641 73.6203 48.5675 73.4246C48.7709 73.2289 48.6692 71.6566 49.2115 71.1347C49.7538 70.6128 50.0521 69.7516 50.7028 69.321C51.3535 68.8904 51.8959 68.7925 51.8959 67.7422C51.8959 66.6918 51.0553 66.1633 50.9537 64.9238C50.8519 63.6842 50.9537 62.7709 50.9537 62.7709C50.9537 62.7709 50.5062 61.2899 50.3571 60.8593C50.208 60.4288 49.7605 59.4763 49.7605 59.4763L46.7305 60.1482L42.0666 59Z" fill="#EBAD57"/>
<path d="M52.9753 77.6543C52.9753 77.6543 52.9753 77.7531 51.9355 78.3765L50.8959 79V78.0494C50.8959 78.0494 51.9898 77.0617 53.8959 77L52.9753 77.6543Z" fill="#E6D2AF"/>
<path d="M60.8847 59.4344C60.9247 59.9395 60.8446 61 60.8446 61C60.8446 61 58.5164 60.9596 58.2456 60.9596C57.9747 60.9596 57.9345 60.3738 57.9345 60.3738C57.9345 60.3738 57.6636 60.1819 58.5567 59.7475C59.4497 59.3132 59.1789 59 59.8411 59C60.5034 59 60.8847 59.4344 60.8847 59.4344Z" fill="#E6D2AF"/>
<path d="M56.8959 60.0234C56.8959 60.0234 55.8032 61.0994 55.672 61.152C55.5409 61.2094 52.416 61.9459 51.99 61.9841C51.5638 62.0224 51.3562 62.0224 51.0612 61.6159C50.7661 61.2094 50.9302 61.3386 51.0612 61.0229C51.1815 60.7073 52.4598 59.3396 52.4598 59.3396L52.7766 59C54.0113 59.4257 55.6393 59.7413 56.8193 59.9325L56.8959 60.0234Z" fill="#D7C29F"/>
<path d="M32.6347 87.9929C32.0955 87.5334 31.5958 86.9891 31.2706 86.3459C30.9376 85.7167 30.7631 84.9463 31.0169 84.2181C31.1517 83.8647 31.3976 83.5396 31.6434 83.2851C31.8893 83.0376 32.1192 82.7761 32.3175 82.4934C32.722 81.9349 33.0312 81.327 33.2692 80.705C33.7133 79.4609 34.1811 78.1602 34.0225 76.9797C33.8243 75.6791 33.5942 74.3643 33.4595 73.0212L33.5388 73C34.1574 74.237 34.5855 75.5306 34.8552 76.8666C34.9742 77.6159 34.8156 78.3228 34.5935 78.9872C34.3794 79.6517 34.0463 80.2737 33.6657 80.8605L32.5316 82.6136L32.0003 83.5113C31.8178 83.8082 31.7069 84.0697 31.6513 84.3666C31.4055 85.5329 32.0557 86.7488 32.6982 87.9717L32.6268 88L32.6347 87.9929Z" fill="#F68919"/>
<path d="M53.3011 67C53.741 68.4622 53.9318 69.9522 53.8903 71.4422C53.8489 72.1871 53.7161 72.9322 53.6497 73.6771C53.5667 74.4222 53.5501 75.1671 53.4257 75.9261C53.3925 76.1141 53.3344 76.309 53.2929 76.497C53.2349 76.685 53.127 76.8869 53.0191 77.0679C52.795 77.3952 52.5627 77.7224 52.3138 78.0288C51.8161 78.6554 51.31 79.2681 50.7457 79.846C49.6007 80.9879 48.4142 82.1158 46.9539 83L46.8959 82.9513L50.0487 79.3865L51.6749 77.6458L52.4632 76.7685C52.5627 76.6223 52.6624 76.49 52.7536 76.3368C52.8283 76.1697 52.9113 76.0097 52.9776 75.8356C53.2349 75.1393 53.351 74.4013 53.3759 73.6632C53.3759 72.9252 53.2764 72.1801 53.2016 71.4491C53.1104 69.973 53.0855 68.497 53.2182 67H53.3011Z" fill="#F68919"/>
<path d="M36.5989 44C36.5989 44 33.8959 45.1341 33.8959 48.1681C33.8959 51.2022 34.6317 51.7223 34.6317 51.7223C34.6317 51.7223 34.5791 50.2559 34.5341 49.7357C34.5341 49.7357 35.4727 51.2022 35.5703 51.7223C35.6679 52.2424 35.863 52.3363 36.2611 52.004C36.659 51.6717 37.0645 51.7223 37.3422 51.9534C37.6201 52.1846 47.7715 55.6448 49.3032 56.0277C50.8349 56.4105 54.8294 59.6251 54.9796 59.9069C55.1297 60.1886 55.0096 59.8635 55.6552 58.4838C56.2935 57.1113 55.4601 56.3094 55.4601 56.3094C55.4601 56.3094 53.643 47.2652 36.6139 44H36.5989Z" fill="#482A17"/>
<path d="M41.1268 39.74C41.1268 39.74 39.33 41.248 38.4538 41.493C37.5777 41.7382 34.9491 43.053 34.9046 43.9742C34.86 44.8953 35.0011 44.3604 35.0011 44.3604C35.0011 44.3604 37.5777 46.1582 38.0158 45.965C38.4538 45.7719 43.1762 48.2531 44.0524 47.9633C44.9286 47.6736 45.5597 48.3497 46.8294 49.3302C48.0991 50.3107 49.5025 51.0314 49.7995 51.1279C50.0965 51.2245 50.4827 54.5821 51.5518 55.7558C52.6211 56.9222 55.8808 60.4804 58.7543 59.9456C61.6279 59.4107 64.5905 56.5879 64.8355 56.2462C65.0805 55.9044 64.494 53.9582 64.5905 53.5719C64.687 53.1856 63.7143 52.1085 63.5213 51.477C63.3283 50.8456 63.4693 49.969 61.0858 48.4611C58.7023 46.9531 56.6084 46.2696 55.3907 43.8851C54.173 41.5005 53.6383 41.649 52.5692 40.9137C51.4999 40.1856 50.4752 39.1605 48.0471 38.7222C45.6117 38.284 46.1983 37.7937 45.0771 38.0908C43.9559 38.388 41.1343 39.7474 41.1343 39.7474L41.1268 39.74Z" fill="#E44400"/>
<path d="M57.8273 46.3819C57.8273 46.3819 52.9145 45.0025 52.4176 45.127C51.9206 45.2516 50.3924 47.3207 49.5954 47.7614C48.7986 48.2021 48.6111 48.0776 49.4079 47.0047C50.2049 45.9412 50.2049 44.5522 50.88 44.4947C51.555 44.4372 51.4332 44.8684 52.1081 44.1785C52.7832 43.4889 57.2084 44.9929 57.6397 45.3761C58.071 45.7592 57.8273 46.3819 57.8273 46.3819Z" fill="#ECD4AC"/>
<path d="M61.8897 52C61.6502 51.9417 57.6211 50.8507 57.2218 51.0173C56.8226 51.1838 56.9024 51.5669 56.9024 51.5669L61.8959 52H61.8897Z" fill="#ECD4AC"/>
<path d="M47.8959 45.6889C47.8959 45.6889 47.842 44.0139 47.2889 42.9212C46.7356 41.8286 46.3821 40.6242 46.6818 39.8345C46.9814 39.0449 47.2889 38.5265 47.235 38.3669C47.1812 38.2074 46.4282 38 46.4282 38C46.4282 38 45.5753 40.6641 46.0287 41.9721C46.482 43.2802 47.189 46 47.189 46L47.8959 45.6889Z" fill="#ECD4AC"/>
<path d="M43.3261 40C43.3261 40.345 43.8277 42.3099 43.8909 42.46C43.9542 42.61 43.3894 43 43.3894 43C43.3894 43 43.2719 42.3625 42.9737 41.2825C42.6754 40.2025 43.3307 40.0075 43.3307 40.0075L43.3261 40Z" fill="#ECD4AC"/>
<path d="M48.2735 52.3813C48.0492 52.7159 45.6474 54.091 43.8791 52.9633C42.1108 51.8356 42.19 51.8065 41.8337 52.1994C41.4774 52.5924 40.9231 52.5632 40.4481 52.0757C39.973 51.5882 39.6761 50.7006 39.0624 51.1008C38.4488 51.5009 39.0096 51.5882 38.4554 51.4936C38.2904 51.4645 38.2904 53.4727 38.0661 54.0256C37.8418 54.5786 37.7626 55.0588 38.3169 55.2116C38.8711 55.3644 38.7589 55.2698 38.7589 55.2698L38.6468 55.7281C38.6468 55.7281 38.6731 56.5794 39.3924 56.5794C39.5045 56.5794 39.6431 56.6085 39.6431 56.6085C39.6431 56.6085 39.4782 58.3182 40.3095 57.9181C40.3095 57.9181 41.2465 59.5334 41.4708 59.5625C41.6951 59.5916 42.1636 60.2318 44.044 59.1332C44.044 59.1332 45.014 62.0289 46.2809 61.9998C47.5543 61.9707 50.4839 62.1817 51.8959 57.4525L48.2735 52.3595V52.3813Z" fill="#FFC1A4"/>
<path d="M35.8097 44.619C36.1388 44.3636 35.4807 42.7919 34.5948 42.2344C33.7088 41.6769 32.8819 42.1802 33.4304 43.0473C33.9872 43.9067 34.755 44.9209 34.755 44.9209C34.755 44.9209 32.266 45.1222 31.9369 45.3236C31.6079 45.5249 33.3207 46.2913 34.8142 45.881C36.3075 45.4784 35.8097 44.6112 35.8097 44.6112V44.619Z" fill="#F68919"/>
<path d="M63.8884 53.6367C63.1185 55.2292 62.1783 56.7605 60.8605 58.0161C60.5273 58.3224 60.1571 58.6133 59.7129 58.8047C59.2909 59.0115 58.6986 59.0804 58.2174 58.8813C57.4401 58.598 56.6034 58.4142 55.7595 58.1692C54.9229 57.9165 54.064 57.6104 53.3015 57.0897C52.5464 56.569 51.88 55.8417 51.5247 54.9689C51.1693 54.0961 50.962 53.2539 50.7398 52.3811C50.6436 51.9447 50.5696 51.5006 50.4955 51.0642C50.4215 50.6431 50.3327 50.1685 49.8959 50C50.1032 50.0536 50.3105 50.1838 50.4289 50.3828C50.5473 50.5818 50.614 50.8039 50.6806 51.0183C50.8139 51.447 50.9398 51.8682 51.0878 52.2815C51.3617 53.1008 51.6579 53.9736 52.0355 54.7086C52.8054 56.2246 54.3453 57.0055 55.9668 57.4419C56.7737 57.6946 57.6251 57.8784 58.4691 58.2075C59.091 58.5061 59.8684 58.0697 60.5125 57.5644C61.1714 57.0438 61.7562 56.4007 62.3041 55.7269C62.8742 55.0684 63.385 54.3564 63.8959 53.6367H63.8884Z" fill="#F68919"/>
<path d="M40.5841 42.0058C39.8507 42.2783 39.1253 42.5509 38.4241 42.8352C38.0776 42.9802 37.731 43.1252 37.4006 43.2876C37.0781 43.4441 36.7558 43.6239 36.5704 43.7979L36.6349 43.7051C36.6107 43.8501 36.7397 44.0241 36.9975 44.1228C37.2635 44.2272 37.6342 44.2794 38.005 44.2968C38.7787 44.3316 39.6653 44.3548 40.4793 44.5171C41.3094 44.6621 42.0992 44.9637 42.744 45.3465C43.0584 45.538 43.3485 45.6887 43.7193 45.7873C44.0819 45.8917 44.4848 45.8917 44.8959 45.8975C44.1303 46.1005 43.1469 45.9961 42.462 45.6365C41.7769 45.3407 41.0676 45.1377 40.31 45.0275C39.5363 44.9173 38.7867 44.8941 37.9405 44.8767C37.5053 44.8477 37.0459 44.7897 36.6027 44.6099C36.1512 44.436 35.7725 44.0125 35.9337 43.5659L35.9579 43.5079L35.9982 43.4731C36.3366 43.2006 36.6994 43.0382 37.0781 42.8932C37.4569 42.7482 37.8358 42.6206 38.2226 42.5161C38.9963 42.2957 39.7862 42.1276 40.5922 42L40.5841 42.0058Z" fill="#F68919"/>
<path d="M48.2564 40.0013C48.2564 40.0013 47.5342 39.9019 48.1342 41.4353C48.7341 42.9687 49.0952 44.8713 48.7786 46" stroke="#F68919" stroke-miterlimit="10"/>
<path d="M57.8959 46.7297C57.0125 46.5704 56.1292 46.4724 55.2792 46.4908C54.4292 46.5214 53.6542 46.6868 53.0291 47.0849C52.3209 47.4952 51.5792 47.8688 50.9792 48.2975C50.6876 48.5179 50.4459 48.7568 50.3043 49.0446C50.1543 49.3325 50.1292 49.6631 50.1292 50C49.9542 49.6876 49.8542 49.3447 49.9125 48.9834C49.9708 48.622 50.1959 48.2791 50.4875 47.9913C51.0792 47.4217 51.8208 47.0236 52.5126 46.6072C53.2625 46.1356 54.3542 45.9335 55.2959 46.0192C56.2458 46.0927 57.1458 46.3438 57.8959 46.7297Z" fill="#F68919"/>
<path d="M39.4835 67C39.4835 67 37.9188 72.1873 39.8959 78" stroke="#F68919" stroke-miterlimit="10"/>
<path d="M44.7931 77C44.7931 77 45.2349 79.2763 44.2863 81.017C43.3377 82.7576 43.2121 82.1551 42.8959 84" stroke="#F68919" stroke-miterlimit="10"/>
<path d="M88.2381 69.6468C88.2381 69.6468 88.1591 69.998 88.0226 70.6019C83.2429 72.3999 82.4524 69.0919 82.4452 66.6479L82.6751 65.3838C82.7398 65.2011 83.9401 64.1196 84.0983 64.6744C84.2563 65.2292 84.3211 68.9093 87.7997 69.3097L88.2381 69.6468Z" fill="#3F6732"/>
<path d="M88.0226 70.602C87.2464 74.0503 84.623 85.6666 84.5368 85.7438C84.4433 85.8351 81.8199 87.1976 81.6618 87.1976C81.5037 87.1976 79.0672 82.2252 79.0672 82.2252L80.9647 74.8088L82.4452 66.6479C82.4452 69.092 83.243 72.3999 88.0226 70.602Z" fill="#3E2C2E"/>
<path d="M45.718 61.7385L44.5321 63.4381L41.4056 61.8649C41.4056 61.8649 40.6582 63.1642 39.5369 64.6883C38.1497 66.5845 36.1804 68.8249 34.3477 69.3657C34.3477 69.3657 32.3711 69.5413 32.1627 71.6763C31.9542 73.8113 31.3937 77.6741 31.3648 78.1024C31.3505 78.3412 31.142 79.1208 30.9121 79.8863L29.8986 80.2867L29.8411 80.4061L29.3668 80.5184C28.8924 80.6377 28.8565 81.1013 27.3687 80.083C27.0237 79.8442 26.5924 79.8512 26.1397 80.0127C25.1981 80.3428 24.1416 81.3261 23.4085 82.0986C22.9844 82.5481 22.6754 82.9203 22.5603 83.0538C22.1722 83.5172 22.2657 83.8403 21.281 83.5172C20.2964 83.1942 15.5311 85.6102 14.3668 86.4038C13.2024 87.1904 13.2958 86.0526 13.2958 86.0526C12.6705 84.1564 8.58817 80.9257 8.58817 80.9257L7.1866 80.8133C4.50575 77.5195 5.4257 74.1695 5.4257 74.1695C5.74919 74.1905 6.01507 74.1905 6.23789 74.1695C7.46693 74.0711 7.38784 73.4461 7.63947 73.109C7.88377 72.7789 9.04817 71.3883 10.1694 71.5358C10.2484 71.5428 10.3204 71.5639 10.3922 71.585C10.536 71.6271 10.6725 71.7044 10.8091 71.8097C12.0813 72.814 11.0247 72.4979 14.6758 69.4921C16.1852 68.249 18.4205 67.631 20.5551 67.3641C22.1147 67.1674 23.6241 67.1674 24.7741 67.2517L24.8028 67.1112C25.0759 66.5775 26.111 66.4862 26.111 66.4862C27.728 66.4581 27.4621 66.2544 29.6183 64.5548C31.7817 62.8552 34.7716 60.4673 37.0716 60.2637C39.3716 60.0601 40.5 59.5 40.5 59.5L42.5 60H44L45.7037 61.7175L45.718 61.7385Z" fill="#E6D2AF"/>
<path d="M27.3904 69.8294C28.6553 68.7408 29.0146 70.0962 30.2509 69.2113C31.4871 68.3265 33.5642 68.1228 33.5642 68.1228C33.5642 68.1228 33.9308 67.589 34.0602 67.28C34.1896 66.971 30.6534 67.4977 29.5249 68.2562C28.3966 69.0147 27.9797 68.3194 27.3688 69.7311C26.7578 71.1427 27.3904 69.8294 27.3904 69.8294Z" fill="#D7C29F"/>
<path opacity="0.63" d="M21.094 81.0102C12.2679 82.2182 10.3417 77.5338 10.3417 77.5338C11.6066 76.6488 14.1079 76.712 14.1079 76.712C14.1079 76.712 12.4332 77.5268 12.311 77.7514C12.1889 77.9762 13.5113 80.8206 20.9862 80.5677C20.9862 80.5677 21.6977 80.8416 21.3455 80.94C20.9934 81.0383 21.1012 81.0102 21.1012 81.0102H21.094Z" fill="#C9B496"/>
<path d="M24.0767 71.0304C24.0767 71.0304 22.7183 72.9125 23.5017 75.799C23.5017 75.799 23.6742 71.838 24.0767 71.0304Z" fill="#D7C29F"/>
<path d="M20.9716 75.5673C20.9716 75.5673 21.8125 70.4756 25.0109 68.7408C25.0109 68.7408 20.8566 69.7802 20.9716 75.5673Z" fill="#D7C29F"/>
<path d="M31.9323 75.3007C31.9323 75.3007 30.4876 75.2445 28.7124 76.5087C28.7124 76.5087 29.4239 74.2473 31.9323 75.3007Z" fill="#D7C29F"/>
<path d="M27.5698 79.6265C27.5698 79.6265 28.0513 79.2472 29.496 78.7135C30.9407 78.1797 30.9119 76.9788 30.9119 76.9788C30.9119 76.9788 31.6954 79.0646 27.5698 79.6265Z" fill="#D7C29F"/>
<path d="M88.4469 76.7121C87.9006 77.3512 86.535 81.4106 86.6931 83.658C86.6931 83.6791 86.6931 83.7002 86.6931 83.7142C86.8513 85.9054 86.6356 86.1653 86.6356 86.1653C86.6356 86.1653 84.7238 86.6429 83.9548 87.2328C83.3007 87.7314 81.3385 90.5266 79.1465 90.639C78.8302 90.6601 78.5139 90.618 78.1905 90.5126C78.1258 90.4915 78.0611 90.4634 77.9964 90.4353C77.9964 90.4353 77.2202 90.4845 76.3003 90.5266C75.1215 90.5828 73.7128 90.6109 73.4038 90.4915C73.375 90.4845 73.3462 90.4775 73.3174 90.4705C72.6563 90.3862 70.6294 91.4256 69.846 89.6346C69.846 89.6346 67.6826 89.2414 67.5604 86.6288C67.5604 86.6288 67.5892 85.2663 67.2083 84.1004C67.1292 83.8687 67.043 83.651 66.9351 83.4473C66.2667 82.2253 65.8929 80.1043 65.8929 80.1043C65.8929 80.1043 64.3908 79.6127 64.3908 78.7207C64.3908 77.8288 64.3477 77.295 64.3477 77.295L63.3414 76.073C63.3414 76.073 63.5499 74.8931 63.6361 74.7737C63.7152 74.6543 64.053 74.2049 64.053 73.1795C64.053 72.1541 62.8455 68.3265 61.595 67.9613C61.595 67.9613 61.0127 65.6367 61.4727 64.8642C61.9327 64.0916 61.9327 63.8809 61.9327 63.8809C61.9327 63.8809 61.099 64.2531 61.3506 63.2699C61.6021 62.2936 61.9327 60.5379 62.7233 60.0884C63.514 59.6389 65.397 59.4353 66.1014 60.0111C66.1805 60.0743 66.2524 60.1305 66.3242 60.1867C66.8991 60.6152 67.2657 60.7627 67.5604 60.868C67.8982 60.9873 68.3151 61.6405 68.9763 61.5984C69.2064 61.5843 69.7885 61.5984 70.4641 61.781C71.7004 62.1111 73.2241 62.9679 73.3894 65.131C73.3894 65.2152 73.4038 65.3066 73.4038 65.3908C73.4038 65.3908 73.1953 66.1986 73.4109 66.5918C73.5187 66.7884 73.7271 66.8797 74.1081 66.7323C74.4962 66.5848 74.8197 66.4513 75.1144 66.367C75.7036 66.2056 76.1636 66.2407 76.7746 66.7323C76.7746 66.7323 77.0693 67.266 77.9461 67.0202C78.823 66.7744 78.9452 67.4276 78.9452 67.4276C78.9452 67.4276 79.6999 67.7155 79.7789 67.3433C79.7789 67.3433 82.0932 64.527 82.9126 65.0537C82.9629 65.0888 82.9629 65.2082 82.9341 65.3979C82.7761 66.5215 81.662 70.0964 83.2936 73.011C83.2936 73.011 84.0554 76.0028 83.1858 78.2432C82.3161 80.4835 80.1814 83.6931 80.8929 84.4375C80.8929 84.4375 82.1508 86.1512 82.697 85.2944C82.697 85.2944 83.8469 78.4047 84.3357 76.9088C84.8316 75.4129 87.1244 72.7933 87.5053 70.9813C87.8862 69.1693 87.8359 68.9516 87.8862 69.1622C87.9437 69.38 88.8134 68.5232 88.7056 70.4966C88.5977 72.4702 88.5403 74.3454 88.5977 74.4998C88.6553 74.6613 88.9788 76.0519 88.4325 76.6911L88.4469 76.7121Z" fill="#E6D2AF"/>
<path d="M83.4659 66.2831C83.4659 66.2831 84.0337 69.2608 86.2187 69.7033C86.2187 69.7033 82.8765 70.5251 83.4659 66.2831Z" fill="#E6D2AF"/>
<path d="M63.8517 64.6888C63.8085 64.5976 64.6279 66.55 64.6423 67.9054C64.6639 69.2609 65.4976 71.8384 66.547 74.0999C67.5963 76.3613 67.5748 76.867 67.5748 76.867C67.5748 76.867 67.4382 75.4343 67.4957 74.9918C67.5532 74.5493 67.8551 73.8681 67.7113 73.4396C67.5675 73.0112 67.51 72.4354 67.51 71.8875C67.51 71.3398 67.7688 71.0729 68.0635 71.0939C68.3581 71.115 68.8397 69.9351 68.4013 69.3873C67.9629 68.8395 68.2216 69.1906 67.8838 68.5937C67.5459 67.9967 67.0141 67.2383 66.3169 66.9082C65.6197 66.578 64.5705 66.2339 63.8374 64.6818L63.8517 64.6888Z" fill="#D7C29F"/>
<path d="M69.2209 84.0232C69.2209 84.0232 70.6296 88.7709 72.8432 89.726C72.8432 89.726 71.0105 86.9378 69.2209 84.0232Z" fill="#DAC49F"/>
<path d="M77.867 71.6974C77.8024 71.8028 76.8465 72.7791 76.5877 73.9449C76.329 75.1107 74.7118 78.6082 73.7774 76.2766C72.8431 73.9449 77.0118 70.2437 77.9102 70.2437C78.8086 70.2437 80.6341 71.1989 80.3826 72.1189C80.1311 73.0389 80.2964 74.1555 80.3826 75.4479C80.4688 76.7401 78.5067 81.8108 78.5067 79.0718C78.5067 78.8189 77.7808 77.4494 78.1689 76.6558C78.5571 75.8622 79.5776 73.4111 79.3189 72.744C79.0601 72.0767 78.2983 71.0373 77.867 71.7045V71.6974Z" fill="#DAC49F"/>
<path d="M4.67828 74.9142C4.67828 74.9142 1.68115 75.2373 0.933673 74.7737C0.186184 74.3102 -0.705046 71.6625 -0.84161 70.7495C-0.985351 69.8365 -2.48032 69.6047 -3.36436 69.3308C-4.25559 69.0569 -4.62934 69.7452 -4.25559 69.9277C-3.88185 70.1103 -4.25559 70.6582 -4.44247 70.6582C-4.62934 70.6582 -5.14683 71.2551 -4.95996 71.529C-4.77309 71.8029 -3.13437 71.6695 -2.53063 71.9856C-1.9269 72.3016 -2.06346 75.5041 -1.73284 76.1924C-1.73284 76.1924 -2.90437 73.9099 -3.7453 73.5868C-3.7453 73.5868 -5.05339 73.3129 -4.8234 73.7695C-4.5934 74.2259 -1.51003 79.8655 0.509618 79.2967C0.840228 79.2054 1.21398 78.2923 1.86802 78.4749C2.52208 78.6575 4.81486 78.6575 4.81486 78.6575L4.67109 74.9072L4.67828 74.9142Z" fill="#FFC1A4"/>
<path d="M14.2947 75.1742C14.2947 75.1742 11.4772 74.2542 8.75328 76.2277C8.75328 76.2277 7.38051 76.333 8.58797 75.2515C9.80265 74.177 10.4423 74.3455 10.4854 74.5632C10.5285 74.7809 10.1117 74.8862 10.6651 74.823C11.2185 74.7598 13.5976 74.0716 14.5463 74.9073C14.5463 74.9073 15.0565 75.4341 14.2947 75.1672V75.1742Z" fill="#D7C29F"/>
<path d="M6.28084 74.1627C6.28084 74.1627 7.40208 78.496 8.62389 79.6969C8.62389 79.6969 11.0963 81.5932 11.736 82.0919C12.3757 82.5905 13.0082 84.9573 13.4682 85.182C13.9282 85.4068 14.1797 85.5824 14.1797 85.5824C14.1797 85.5824 13.7197 85.6807 11.7289 83.8406C9.7379 82.0006 7.67519 80.5538 6.98514 79.2827C6.29519 78.0115 5.27463 74.5209 5.41113 74.1838L6.26649 74.1697L6.28084 74.1627Z" fill="#D7C29F"/>
<path d="M9.95382 77.9763C10.0832 78.2503 10.0832 78.5242 9.77416 78.3767C9.46512 78.2292 8.55235 77.4778 8.2145 77.8079C7.88388 78.1309 7.52456 77.9835 7.50298 77.8851C7.4814 77.8149 6.71236 75.5674 6.23801 74.1839C7.46704 74.0855 7.38795 73.4605 7.63948 73.1234C7.90546 72.7652 9.21359 71.2131 10.3922 71.5994C9.91076 71.8101 8.14986 72.6317 7.89111 73.6432C7.89111 73.6432 7.61077 73.889 8.07077 73.917C8.53077 73.9451 8.04919 74.6404 8.09948 74.8933C8.14986 75.1391 7.53891 75.0197 7.79766 76.038C8.04919 77.0563 8.078 77.4075 8.76795 77.4356C9.45789 77.4637 9.8389 77.7095 9.96828 77.9835L9.95382 77.9763Z" fill="#D7C29F"/>
<path d="M20.4831 76.1361C20.4831 76.1361 18.1976 76.8244 18.5209 77.4564C18.8444 78.0886 19.326 77.8638 19.6494 78.4327C19.9728 79.0015 19.9728 79.725 19.9728 79.725C19.9728 79.725 18.3629 77.8357 17.7519 77.8989C17.1411 77.9621 15.0495 77.7725 14.532 77.9902C14.0145 78.208 14.0504 78.2712 15.3011 78.6222C16.5588 78.9664 17.3566 79.2544 17.5866 79.8163C17.8166 80.3781 17.9101 80.8205 17.9101 80.8205C17.9101 80.8205 11.6355 80.1322 11.8584 77.5828C11.8584 77.5828 12.9508 76.9859 14.8842 77.0772C16.8176 77.1685 16.6882 76.698 17.0692 76.4451C17.4501 76.1923 19.4194 75.785 20.476 76.1291L20.4831 76.1361Z" fill="#D7C29F"/>
<path d="M21.3458 82.1409C21.3458 82.1409 15.6534 83.9949 15.0712 84.6551C15.0712 84.6551 20.2173 83.1171 21.3458 82.1409Z" fill="#D7C29F"/>
<path d="M29.2663 77.3933C29.2663 77.3933 27.8504 79.0578 27.2683 79.2826C27.0814 79.3528 26.6501 79.6478 26.1398 80.027C25.1983 80.3571 24.1417 81.3403 23.4086 82.1129L23.308 81.9935C23.308 81.9935 23.5667 80.7012 26.6214 78.9735C26.6214 78.9735 26.7795 79.1281 27.7138 78.4117C28.6482 77.6883 29.2591 77.4074 29.2591 77.4074L29.2663 77.3933Z" fill="#D7C29F"/>
<path d="M27.5916 76.045C27.5916 76.045 26.0462 77.7728 23.7319 78.6576C23.7319 78.6576 23.1209 79.065 22.8622 79.7602C22.6034 80.4556 22.8335 79.8867 22.8335 79.8867C22.8335 79.8867 24.3141 78.6576 24.7956 78.6576C25.2772 78.6576 25.2772 78.6295 25.3131 78.8473C25.3491 79.065 25.3418 78.5031 25.8594 78.1238C26.3769 77.7447 27.6275 77.1477 27.6921 76.6771C27.7569 76.2066 27.5987 76.045 27.5987 76.045H27.5916Z" fill="#D7C29F"/>
<path d="M24.3065 73.0601C24.3065 73.0601 27.8427 72.6808 28.4896 71.8661C29.1365 71.0514 29.4239 70.9882 29.7474 71.4236C30.0708 71.8591 30.0995 71.8029 30.617 71.5501C31.1345 71.2972 31.5083 71.4728 31.5443 71.6554C31.5443 71.6554 29.0143 73.5657 24.3425 73.3059L24.3065 73.0671V73.0601Z" fill="#D7C29F"/>
<path opacity="0.63" d="M38.9761 60.2292C38.9761 60.2292 35.8209 63.8461 34.9225 65.9531C34.0241 68.06 33.4131 68.4392 33.1543 69.5348C33.1543 69.5348 36.0508 66.4236 37.3662 65.0049C38.6887 63.5932 39.9751 62.2729 40.3921 61.676C40.8089 61.079 40.5861 60.6366 40.2627 60.9877C39.9392 61.3318 37.5602 63.2211 37.5602 63.2211C37.5602 63.2211 39.2636 61.0228 39.4289 60.454C39.5942 59.885 38.9761 60.2362 38.9761 60.2362V60.2292Z" fill="#C9B496"/>
<path d="M12.951 72.3366C12.951 72.3366 14.4315 72.463 14.6903 73.2776C14.949 74.0923 15.3659 73.9659 15.8188 73.4041C16.2715 72.8352 16.1422 72.5262 18.169 71.9924C20.1958 71.4586 20.8427 70.7002 20.8427 70.7002C20.8427 70.7002 21.0367 70.356 19.973 70.637C18.9093 70.9179 19.7502 70.9179 18.3343 71.1075C16.9184 71.2971 16.5662 71.1075 15.8547 71.7045C15.1432 72.3015 15.3731 72.6174 14.7262 72.3366C14.0794 72.0556 13.5691 71.5218 12.9582 72.3366H12.951Z" fill="#D7C29F"/>
<path d="M13.6624 81.5162C13.6408 81.8533 14.4674 83.279 14.8843 83.0894C15.3012 82.8998 15.4305 82.4012 15.9767 82.4574C16.523 82.5206 17.3279 82.2396 16.4943 82.05C15.6605 81.8604 14.8196 82.3029 14.6902 81.8955C14.5608 81.4881 13.6912 81.0176 13.6624 81.5162Z" fill="#D7C29F"/>
<path d="M30.9337 72.4912C30.9337 72.4912 28.6841 73.4955 28.102 74.254C27.5197 75.0054 27.1029 74.9142 27.1676 74.4436C27.2322 73.973 27.1963 73.5307 27.3616 73.4674C27.5269 73.4042 28.0372 73.341 28.5188 73.2146C29.0004 73.0882 30.7684 72.0488 30.9337 72.4912Z" fill="#D7C29F"/>
<path d="M82.9485 65.4123C82.2872 65.8406 80.6844 66.8028 80.3754 67.484C80.0088 68.3057 81.0582 68.6639 79.8004 69.5419C78.5354 70.4127 77.3279 69.7454 77.1123 70.1037C76.8967 70.4619 76.3792 70.0053 76.8536 69.3873C77.3279 68.7693 78.1688 68.1513 77.6442 67.6877C77.1196 67.2242 76.9111 67.2803 76.063 67.0205C75.2221 66.7677 74.6974 66.6624 74.5895 67.2242C74.4817 67.7931 73.3821 67.7931 73.0659 67.0205C72.8934 66.5992 73.1378 65.7844 73.4037 65.1313C73.4037 65.2156 73.418 65.3069 73.418 65.3912C73.418 65.3912 72.958 67.182 74.1224 66.7326C75.2939 66.2831 75.8761 66.0021 76.7961 66.7326C76.7961 66.7326 77.0908 67.2663 77.9676 67.0205C78.8444 66.7747 78.9667 67.4278 78.9667 67.4278C78.9667 67.4278 79.7214 67.7158 79.8004 67.3436C79.8004 67.3436 82.1147 64.5273 82.934 65.0541C82.9844 65.0892 82.9844 65.2086 82.9556 65.3982L82.9485 65.4123Z" fill="#D7C29F"/>
<path d="M86.6428 86.1724C86.6428 86.1724 84.7309 86.65 83.9619 87.2399C83.3079 87.7386 81.3457 90.5338 79.1535 90.6462C79.247 90.4495 79.4123 90.1826 79.6926 89.8034C80.2675 89.0309 80.9576 88.8272 81.3241 87.6403C81.6907 86.4604 82.4813 85.9407 82.8479 85.5824C83.2144 85.2243 83.2144 85.7861 84.2134 85.119C85.2125 84.4517 86.1109 84.8661 86.1109 84.4517C86.1109 84.234 86.3984 83.8899 86.7003 83.7144C86.8584 85.9055 86.6428 86.1654 86.6428 86.1654V86.1724Z" fill="#D7C29F"/>
<path d="M78.1974 90.5194C78.1326 90.4983 78.068 90.4702 78.0032 90.4421C78.0032 90.4421 77.2271 90.4913 76.3071 90.5334C75.3368 89.9295 73.4177 88.4054 73.5327 85.8982C73.5327 85.8982 73.9496 87.9559 74.3234 87.9559C74.6971 87.9559 75.0062 87.8997 75.5883 88.574C76.1705 89.2411 77.0114 89.9646 77.3779 89.9646C77.7445 89.9646 77.5361 89.7047 78.0105 90.2173C78.1039 90.3157 78.1614 90.421 78.2045 90.5194H78.1974Z" fill="#DAC49F"/>
<path d="M76.005 87.8013C76.005 87.8013 74.1651 85.28 75.4804 82.3022C76.7957 79.3174 76.7957 78.6502 76.7957 78.6502C76.7957 78.6502 76.005 78.9593 75.7967 79.6756C75.5882 80.392 74.848 80.7571 75.4804 78.9522C76.1129 77.1543 74.2154 76.487 74.2729 77.976C74.3232 79.4649 74.431 81.4735 73.8489 82.6042C73.2667 83.7349 73.3242 85.9964 76.005 87.8013Z" fill="#DAC49F"/>
<path d="M75.1645 67.4347C75.0567 68.6708 74.532 68.6146 73.8995 69.6961C73.267 70.7777 73.1592 70.9322 72.6346 71.3958C72.1098 71.8592 71.3193 71.5994 72.002 70.3142C72.4477 69.4714 73.0514 67.7226 73.4179 66.5989C73.5257 66.7956 73.7342 66.8869 74.1151 66.7394C74.5033 66.5919 74.8266 66.4584 75.1213 66.3741C75.1717 66.6832 75.1932 67.0414 75.1573 67.4277L75.1645 67.4347Z" fill="#D7C29F"/>
<path d="M70.4712 61.7881C70.4712 61.7881 70.3993 61.8302 70.3706 61.8302C70.1622 61.8302 69.7381 62.2937 69.3213 62.7572C68.9044 63.2208 68.5882 63.6842 68.1138 63.0101C67.6395 62.3428 67.2729 62.0338 66.7985 61.7248C66.4464 61.4931 66.36 60.8188 66.3313 60.1868C66.9064 60.6151 67.2729 60.7626 67.5676 60.868C67.9053 60.9874 68.3222 61.6406 68.9834 61.5984C69.2135 61.5844 69.7956 61.5984 70.4712 61.781V61.7881Z" fill="#D7C29F"/>
<path d="M71.9515 82.5064C71.9012 82.3027 70.7943 79.1634 71.0602 78.0326C71.3262 76.9019 71.9012 77.6745 72.1096 79.0089C72.318 80.3433 72.4258 80.554 72.1599 81.2703C71.894 81.9867 71.9515 82.5064 71.9515 82.5064Z" fill="#DAC49F"/>
<path d="M5.39665 74.8303L4.18919 74.3878C4.18919 74.3878 3.82982 77.3867 4.21793 78.5385C4.60606 79.6903 4.87914 81.3337 5.00139 81.3618C5.12354 81.3899 5.42545 81.1581 5.78478 81.2705C6.1441 81.3829 6.87008 81.5936 7.02104 81.3899C7.1719 81.1862 7.1719 80.3925 7.1719 80.3925C7.1719 80.3925 5.24569 77.9485 5.39665 74.8303Z" fill="#3F6732"/>
<path d="M5.64131 75.2165C6.00064 75.6941 6.25216 76.1436 6.49657 76.586C6.73374 77.0355 6.94221 77.471 7.14346 77.9064L7.7256 79.2197C7.91249 79.6762 8.12809 80.1187 8.32221 80.6875C7.73283 80.5681 7.21532 80.2521 6.79848 79.8588C6.38877 79.4585 6.05092 78.988 5.8282 78.4753C5.59815 77.9696 5.45442 77.4288 5.41126 76.874C5.37533 76.3262 5.41126 75.7573 5.64131 75.2095V75.2165Z" fill="#C9B496"/>
<path opacity="0.63" d="M20.5624 67.3784C20.5264 67.4767 20.4114 67.5819 20.4114 67.5819C15.6031 68.1228 11.7435 72.8845 11.3697 73.2286C10.9959 73.5727 10.2198 73.6359 9.63041 73.5516C9.0338 73.4674 9.32137 73.1443 9.40758 72.8845C9.4938 72.6246 10.2701 72.5193 10.5575 72.4069C10.8451 72.3015 10.2701 71.7607 10.1838 71.7186C10.1838 71.7186 10.1838 71.6483 10.1838 71.5431C10.2628 71.5501 10.3347 71.5711 10.4067 71.5921C10.5504 71.6343 10.6869 71.7115 10.8235 71.8169C12.0956 72.8213 11.0391 72.5052 14.6903 69.4993C16.1997 68.2562 18.4349 67.6381 20.5695 67.3713L20.5624 67.3784Z" fill="#C9B496"/>
</g>
<path d="M91.597 68.3506C91.597 68.3506 91.5193 68.6956 91.3852 69.2889C86.6897 71.0552 85.9131 67.8055 85.906 65.4045L86.1319 64.1626C86.1955 63.9832 87.3746 62.9207 87.53 63.4657C87.6853 64.0108 87.7489 67.6261 91.1663 68.0194L91.597 68.3506Z" fill="#3F6732"/>
<path d="M91.3853 69.289C90.6227 72.6766 88.0455 84.0884 87.9608 84.1643C87.869 84.254 85.2918 85.5925 85.1365 85.5925C84.9811 85.5925 82.5874 80.7076 82.5874 80.7076L84.4516 73.4218L85.9061 65.4045C85.9061 67.8055 86.6898 71.0553 91.3853 69.289Z" fill="#3E2C2E"/>
<path d="M41 63.5356L40.091 64.9983L37.6946 63.6444C37.6946 63.6444 37.1217 64.7625 36.2623 66.074C35.199 67.7059 33.6896 69.6338 32.2849 70.0993C32.2849 70.0993 30.7698 70.2504 30.6101 72.0876C30.4503 73.9249 30.0207 77.2491 29.9986 77.6177C29.9876 77.8232 29.8278 78.4941 29.6516 79.1529L28.8748 79.4974L28.8307 79.6001L28.4671 79.6968C28.1035 79.7995 28.076 80.1984 26.9356 79.3221C26.6712 79.1166 26.3406 79.1226 25.9936 79.2616C25.2719 79.5457 24.4621 80.3918 23.9002 81.0566C23.5752 81.4435 23.3383 81.7638 23.2501 81.8786C22.9526 82.2775 23.0243 82.5555 22.2696 82.2775C21.5149 81.9995 17.8624 84.0786 16.97 84.7615C16.0775 85.4384 16.1491 84.4593 16.1491 84.4593C15.6698 82.8275 12.5408 80.0473 12.5408 80.0473L11.4665 79.9506C9.41168 77.1161 10.1168 74.2332 10.1168 74.2332C10.3647 74.2513 10.5685 74.2513 10.7393 74.2332C11.6814 74.1486 11.6207 73.6107 11.8136 73.3206C12.0009 73.0365 12.8933 71.8398 13.7527 71.9668C13.8133 71.9728 13.8685 71.9909 13.9235 72.0091C14.0337 72.0453 14.1383 72.1118 14.243 72.2025C15.2181 73.0667 14.4083 72.7947 17.2068 70.2081C18.3637 69.1383 20.077 68.6064 21.7132 68.3767C22.9086 68.2075 24.0655 68.2075 24.9469 68.28L24.9689 68.1591C25.1783 67.6999 25.9716 67.6213 25.9716 67.6213C27.211 67.5971 27.0073 67.4218 28.6599 65.9592C30.3181 64.4966 32.6098 62.4417 34.3727 62.2664C36.1356 62.0912 37.0942 61.2692 37.0942 61.2692L39.9478 60L40.989 63.5175L41 63.5356Z" fill="#E6D2AF"/>
<path d="M31.8202 68.53C33.0629 67.4605 33.4159 68.7921 34.6304 67.9228C35.8448 67.0535 37.8854 66.8534 37.8854 66.8534C37.8854 66.8534 38.2455 66.329 38.3726 66.0255C38.4997 65.7219 35.0258 66.2393 33.9172 66.9845C32.8087 67.7296 32.3992 67.0466 31.799 68.4334C31.1988 69.8202 31.8202 68.53 31.8202 68.53Z" fill="#D7C29F"/>
<path opacity="0.63" d="M25.6347 79.514C16.9639 80.7007 15.0716 76.0988 15.0716 76.0988C16.3143 75.2294 18.7715 75.2915 18.7715 75.2915C18.7715 75.2915 17.1263 76.0919 17.0063 76.3126C16.8863 76.5334 18.1854 79.3277 25.5288 79.0793C25.5288 79.0793 26.2278 79.3484 25.8818 79.445C25.5359 79.5416 25.6418 79.514 25.6418 79.514H25.6347Z" fill="#C9B496"/>
<path d="M28.5649 69.7098C28.5649 69.7098 27.2304 71.5588 28 74.3946C28 74.3946 28.1695 70.5032 28.5649 69.7098Z" fill="#D7C29F"/>
<path d="M25.5145 74.1669C25.5145 74.1669 26.3406 69.1648 29.4827 67.4606C29.4827 67.4606 25.4015 68.4817 25.5145 74.1669Z" fill="#D7C29F"/>
<path d="M91.8021 75.2916C91.2654 75.9194 89.9239 79.9073 90.0792 82.1152C90.0792 82.1359 90.0792 82.1566 90.0792 82.1704C90.2346 84.323 90.0227 84.5783 90.0227 84.5783C90.0227 84.5783 88.1446 85.0475 87.3891 85.627C86.7464 86.1169 84.8188 88.8629 82.6653 88.9733C82.3546 88.994 82.0439 88.9526 81.7262 88.8491C81.6626 88.8284 81.5991 88.8009 81.5355 88.7733C81.5355 88.7733 80.773 88.8215 79.8692 88.8629C78.7112 88.9182 77.3273 88.9458 77.0237 88.8284C76.9954 88.8215 76.9672 88.8147 76.9389 88.8078C76.2894 88.725 74.2982 89.746 73.5286 87.9866C73.5286 87.9866 71.4033 87.6003 71.2832 85.0337C71.2832 85.0337 71.3115 83.6952 70.9373 82.5498C70.8596 82.3222 70.7749 82.1083 70.6689 81.9082C70.0123 80.7077 69.6451 78.624 69.6451 78.624C69.6451 78.624 68.1694 78.1411 68.1694 77.2648C68.1694 76.3886 68.1271 75.8642 68.1271 75.8642L67.1385 74.6637C67.1385 74.6637 67.3433 73.5046 67.428 73.3873C67.5057 73.27 67.8376 72.8285 67.8376 71.8211C67.8376 70.8138 66.6513 67.0536 65.4228 66.6948C65.4228 66.6948 64.8508 64.4111 65.3027 63.6522C65.7546 62.8932 65.7546 62.6862 65.7546 62.6862C65.7546 62.6862 64.9356 63.0519 65.1827 62.086C65.4298 61.1269 65.7546 59.4021 66.5313 58.9605C67.308 58.5189 69.1579 58.3189 69.8499 58.8846C69.9276 58.9467 69.9982 59.0019 70.0688 59.0571C70.6336 59.478 70.9937 59.6229 71.2832 59.7264C71.6151 59.8436 72.0246 60.4853 72.6742 60.4439C72.9002 60.4301 73.4721 60.4439 74.1358 60.6233C75.3503 60.9476 76.8472 61.7893 77.0096 63.9143C77.0096 63.9971 77.0237 64.0868 77.0237 64.1696C77.0237 64.1696 76.8189 64.9631 77.0307 65.3494C77.1366 65.5426 77.3414 65.6323 77.7156 65.4874C78.0969 65.3425 78.4147 65.2114 78.7042 65.1286C79.2831 64.97 79.735 65.0045 80.3352 65.4874C80.3352 65.4874 80.6247 66.0118 81.4861 65.7703C82.3475 65.5288 82.4676 66.1705 82.4676 66.1705C82.4676 66.1705 83.209 66.4533 83.2866 66.0877C83.2866 66.0877 85.5603 63.321 86.3652 63.8384C86.4147 63.8729 86.4146 63.9902 86.3863 64.1765C86.231 65.2804 85.1366 68.7923 86.7395 71.6556C86.7395 71.6556 87.4879 74.5947 86.6335 76.7957C85.7791 78.9966 83.682 82.1497 84.381 82.881C84.381 82.881 85.6168 84.5645 86.1534 83.7228C86.1534 83.7228 87.2831 76.9544 87.7633 75.4848C88.2505 74.0152 90.5029 71.4417 90.8771 69.6616C91.2513 67.8815 91.2019 67.6677 91.2513 67.8746C91.3078 68.0885 92.1622 67.2468 92.0563 69.1855C91.9503 71.1243 91.8939 72.9665 91.9503 73.1182C92.0068 73.2769 92.3246 74.643 91.788 75.2709L91.8021 75.2916Z" fill="#E6D2AF"/>
<path d="M86.9088 65.046C86.9088 65.046 87.4666 67.9713 89.6131 68.406C89.6131 68.406 86.3298 69.2133 86.9088 65.046Z" fill="#E6D2AF"/>
<path d="M67.6398 63.4798C67.5974 63.3902 68.4023 65.3082 68.4165 66.6398C68.4377 67.9714 69.2567 70.5035 70.2876 72.7252C71.3185 74.9468 71.2973 75.4436 71.2973 75.4436C71.2973 75.4436 71.1631 74.0361 71.2196 73.6014C71.2761 73.1667 71.5727 72.4975 71.4314 72.0766C71.2902 71.6557 71.2337 71.09 71.2337 70.5518C71.2337 70.0137 71.4879 69.7515 71.7774 69.7722C72.0669 69.7929 72.54 68.6338 72.1093 68.0956C71.6786 67.5574 71.9328 67.9024 71.6009 67.316C71.269 66.7295 70.7465 65.9844 70.0616 65.6601C69.3767 65.3358 68.3459 64.9977 67.6257 63.4729L67.6398 63.4798Z" fill="#D7C29F"/>
<path d="M72.9144 82.474C72.9144 82.474 74.2983 87.1381 76.4731 88.0764C76.4731 88.0764 74.6725 85.3373 72.9144 82.474Z" fill="#DAC49F"/>
<path d="M81.4084 70.3651C81.3449 70.4686 80.4058 71.4277 80.1516 72.573C79.8974 73.7183 78.3087 77.1542 77.3908 74.8636C76.4729 72.573 80.5682 68.9369 81.4508 68.9369C82.3334 68.9369 84.1268 69.8753 83.8797 70.7791C83.6326 71.6829 83.795 72.7799 83.8797 74.0495C83.9644 75.319 82.0368 80.3004 82.0368 77.6096C82.0368 77.3612 81.3237 76.0158 81.705 75.2362C82.0863 74.4565 83.0889 72.0486 82.8347 71.3932C82.5805 70.7377 81.8321 69.7166 81.4084 70.372V70.3651Z" fill="#DAC49F"/>
<path d="M91.0179 68.1922C91.1591 68.0197 91.5688 61.1893 93.9694 60.3268C96.3701 59.4644 98.3118 59.4644 99.1521 58.3122C99.1521 58.3122 100.204 56.953 99.4486 56.8702C99.4486 56.8702 98.1847 57.6084 97.8035 57.7326C97.4222 57.8568 97.6764 57.4428 98.1848 56.953C98.6931 56.4631 100.042 55.3868 99.999 55.0556C99.957 54.7244 99.576 54.276 99.1591 54.6417C98.7355 55.0142 98.9473 54.7244 98.9473 54.7244L98.3542 55.304C98.3542 55.304 99.0674 53.862 99.0674 53.1652C99.0674 52.4683 98.4742 52.5097 98.2271 52.9582C97.9729 53.4135 96.2854 56.332 96.0806 55.2212C96.0806 55.2212 97.1751 52.1302 96.7938 51.5576C96.7938 51.5576 95.7417 50.8193 95.4452 52.5028C95.1486 54.1932 94.6473 55.3454 94.3931 55.511C94.1389 55.6766 94.2236 55.5938 93.7223 55.9664C93.2139 56.3389 91.1521 56.5045 91.6606 56.0905C92.1689 55.6766 93.6446 54.1932 93.6023 53.8689C93.5599 53.5446 93.3057 52.9651 92.762 53.2135C92.2113 53.4618 91.6253 54.1587 90.905 54.3243C90.1848 54.4899 89.0903 55.7249 89.1751 56.1802C89.2598 56.6356 88.4619 57.8706 88.9209 58.6503C89.3798 59.4299 87.191 64.4596 87.191 64.4596C87.191 64.4596 87.9888 67.2608 89.1327 67.8335C90.2695 68.413 91.032 68.206 91.032 68.206L91.0179 68.1922Z" fill="#FFC1A4"/>
<path d="M9.50792 73.5253C9.50792 73.5253 6.56355 73.8427 5.82923 73.3873C5.0949 72.9319 4.21936 70.3308 4.08519 69.4339C3.94398 68.537 2.47533 68.3093 1.60685 68.0402C0.731305 67.771 0.364137 68.4473 0.731305 68.6266C1.09847 68.806 0.731305 69.3442 0.547714 69.3442C0.364137 69.3442 -0.144244 69.9306 0.0393376 70.1997C0.222919 70.4688 1.83279 70.3377 2.4259 70.6482C3.01901 70.9587 2.88485 74.1048 3.20965 74.781C3.20965 74.781 2.05874 72.5387 1.23262 72.2213C1.23262 72.2213 -0.0524526 71.9522 0.173494 72.4007C0.399441 72.8491 3.42854 78.3894 5.41264 77.8306C5.73743 77.7409 6.1046 76.8439 6.74713 77.0233C7.38968 77.2027 9.6421 77.2027 9.6421 77.2027L9.50086 73.5184L9.50792 73.5253Z" fill="#FFC1A4"/>
<path d="M18.9551 73.7807C18.9551 73.7807 16.1872 72.8769 13.5112 74.8156C13.5112 74.8156 12.1626 74.9191 13.3488 73.8566C14.5421 72.801 15.1705 72.9666 15.2128 73.1804C15.2552 73.3943 14.8457 73.4978 15.3894 73.4357C15.933 73.3736 18.2702 72.6975 19.2022 73.5185C19.2022 73.5185 19.7035 74.036 18.9551 73.7738V73.7807Z" fill="#D7C29F"/>
<path d="M11.0823 72.787C11.0823 72.787 12.1838 77.044 13.3841 78.2238C13.3841 78.2238 15.813 80.0867 16.4414 80.5766C17.0699 81.0664 17.6912 83.3915 18.1431 83.6123C18.595 83.8331 18.8421 84.0056 18.8421 84.0056C18.8421 84.0056 18.3902 84.1022 16.4344 82.2945C14.4785 80.4869 12.4521 79.0656 11.7742 77.8168C11.0964 76.568 10.0938 73.1389 10.2279 72.8077L11.0682 72.7939L11.0823 72.787Z" fill="#D7C29F"/>
<path d="M14.6906 76.5335C14.8177 76.8026 14.8177 77.0717 14.5141 76.9268C14.2105 76.7819 13.3138 76.0437 12.9819 76.368C12.6571 76.6853 12.3041 76.5405 12.2829 76.4439C12.2617 76.3749 11.5062 74.167 11.0402 72.8078C12.2476 72.7112 12.1699 72.0972 12.417 71.766C12.6783 71.4141 13.9634 69.8893 15.1213 70.2688C14.6483 70.4758 12.9184 71.283 12.6642 72.2766C12.6642 72.2766 12.3888 72.5181 12.8407 72.5456C13.2926 72.5732 12.8195 73.2563 12.8689 73.5047C12.9184 73.7462 12.3182 73.6289 12.5724 74.6293C12.8195 75.6297 12.8478 75.9747 13.5256 76.0023C14.2034 76.0299 14.5777 76.2714 14.7048 76.5405L14.6906 76.5335Z" fill="#D7C29F"/>
<path d="M25.0345 74.7257C25.0345 74.7257 22.7892 75.4019 23.1069 76.0228C23.4247 76.6438 23.8978 76.423 24.2155 76.9819C24.5332 77.5407 24.5332 78.2514 24.5332 78.2514C24.5332 78.2514 22.9516 76.3954 22.3514 76.4575C21.7513 76.5196 19.6966 76.3333 19.1882 76.5472C18.6798 76.7611 18.7151 76.8232 19.9437 77.1681C21.1793 77.5062 21.9631 77.7891 22.189 78.3411C22.415 78.893 22.5068 79.3277 22.5068 79.3277C22.5068 79.3277 16.3427 78.6515 16.5616 76.147C16.5616 76.147 17.6348 75.5606 19.5342 75.6503C21.4335 75.7399 21.3064 75.2777 21.6807 75.0293C22.0549 74.7809 23.9895 74.3808 25.0275 74.7188L25.0345 74.7257Z" fill="#D7C29F"/>
<path d="M25.8821 80.6248C25.8821 80.6248 20.2899 82.4462 19.718 83.0948C19.718 83.0948 24.7735 81.5838 25.8821 80.6248Z" fill="#D7C29F"/>
<path d="M32.0179 74.6362C32.0179 74.6362 30.4998 76.3335 28.2262 77.2028C28.2262 77.2028 27.626 77.603 27.3718 78.286C27.1176 78.9691 27.3436 78.4102 27.3436 78.4102C27.3436 78.4102 28.7981 77.2028 29.2712 77.2028C29.7443 77.2028 29.7443 77.1752 29.7796 77.3891C29.8149 77.603 29.8078 77.051 30.3162 76.6784C30.8246 76.3059 32.0532 75.7194 32.1167 75.2571C32.1803 74.7949 32.0249 74.6362 32.0249 74.6362H32.0179Z" fill="#D7C29F"/>
<path opacity="0.63" d="M41.6789 63.0533C41.6789 63.0533 39.1431 64.9759 38.421 66.096C37.699 67.216 37.208 67.4176 37 68C37 68 39.3279 66.3461 40.385 65.5919C41.4479 64.8415 42.4818 64.1396 42.8169 63.8223C43.1519 63.505 42.9728 63.2698 42.7129 63.4564C42.4529 63.6394 40.541 64.6437 40.541 64.6437C40.541 64.6437 41.91 63.4751 42.0428 63.1727C42.1757 62.8703 41.6789 63.057 41.6789 63.057V63.0533Z" fill="#C9B496"/>
<path d="M17.635 70.9931C17.635 70.9931 19.0895 71.1173 19.3437 71.9176C19.5979 72.7179 20.0074 72.5937 20.4523 72.0418C20.8971 71.4829 20.77 71.1794 22.7612 70.655C24.7523 70.1306 25.3878 69.3855 25.3878 69.3855C25.3878 69.3855 25.5784 69.0474 24.5334 69.3234C23.4884 69.5994 24.3145 69.5994 22.9236 69.7857C21.5326 69.9719 21.1866 69.7857 20.4876 70.3721C19.7886 70.9586 20.0145 71.269 19.379 70.9931C18.7436 70.7171 18.2422 70.1927 17.6421 70.9931H17.635Z" fill="#D7C29F"/>
<path d="M18.3339 80.0111C18.3127 80.3423 19.1247 81.7429 19.5343 81.5566C19.9438 81.3703 20.0709 80.8805 20.6075 80.9357C21.1441 80.9978 21.9349 80.7218 21.1159 80.5355C20.2968 80.3492 19.4707 80.7839 19.3436 80.3837C19.2165 79.9835 18.3622 79.5213 18.3339 80.0111Z" fill="#D7C29F"/>
<path d="M86.4004 64.1906C85.7508 64.6114 84.1762 65.5567 83.8726 66.2259C83.5125 67.0331 84.5434 67.385 83.3077 68.2475C82.065 69.103 80.8788 68.4475 80.667 68.7994C80.4552 69.1513 79.9468 68.7028 80.4128 68.0957C80.8788 67.4885 81.7049 66.8814 81.1895 66.426C80.6741 65.9706 80.4693 66.0258 79.6361 65.7705C78.81 65.5222 78.2946 65.4187 78.1886 65.9706C78.0827 66.5295 77.0024 66.5295 76.6918 65.7705C76.5223 65.3566 76.7624 64.5562 77.0236 63.9146C77.0236 63.9974 77.0377 64.0871 77.0377 64.1699C77.0377 64.1699 76.5858 65.9292 77.7297 65.4877C78.8806 65.0461 79.4525 64.7701 80.3563 65.4877C80.3563 65.4877 80.6458 66.012 81.5072 65.7705C82.3686 65.5291 82.4887 66.1707 82.4887 66.1707C82.4887 66.1707 83.2301 66.4536 83.3077 66.0879C83.3077 66.0879 85.5813 63.3212 86.3862 63.8387C86.4357 63.8732 86.4357 63.9905 86.4074 64.1768L86.4004 64.1906Z" fill="#D7C29F"/>
<path d="M90.0297 84.5853C90.0297 84.5853 88.1515 85.0545 87.396 85.634C86.7535 86.1239 84.8259 88.87 82.6723 88.9804C82.7641 88.7872 82.9265 88.525 83.2019 88.1524C83.7667 87.3934 84.4446 87.1933 84.8047 86.0273C85.1648 84.8682 85.9415 84.3576 86.3016 84.0057C86.6617 83.6539 86.6617 84.2058 87.6431 83.5504C88.6246 82.8949 89.5072 83.302 89.5072 82.8949C89.5072 82.681 89.7896 82.343 90.0862 82.1705C90.2415 84.3231 90.0297 84.5784 90.0297 84.5784V84.5853Z" fill="#D7C29F"/>
<path d="M81.7329 88.8557C81.6693 88.835 81.6058 88.8074 81.5422 88.7798C81.5422 88.7798 80.7797 88.8281 79.8759 88.8695C78.9227 88.2762 77.0374 86.779 77.1504 84.3159C77.1504 84.3159 77.5599 86.3374 77.9271 86.3374C78.2943 86.3374 78.5979 86.2822 79.1698 86.9446C79.7417 87.6 80.5678 88.3107 80.9279 88.3107C81.288 88.3107 81.0833 88.0554 81.5493 88.559C81.6411 88.6556 81.6976 88.7591 81.7399 88.8557H81.7329Z" fill="#DAC49F"/>
<path d="M79.5792 86.1856C79.5792 86.1856 77.7717 83.7087 79.0638 80.7833C80.3559 77.851 80.3559 77.1956 80.3559 77.1956C80.3559 77.1956 79.5792 77.4992 79.3745 78.2029C79.1697 78.9067 78.4425 79.2654 79.0638 77.4923C79.6852 75.726 77.8211 75.0705 77.8776 76.5332C77.927 77.9959 78.0329 79.9692 77.461 81.08C76.8891 82.1908 76.9456 84.4124 79.5792 86.1856Z" fill="#DAC49F"/>
<path d="M78.7535 66.1774C78.6476 67.3917 78.1321 67.3365 77.5108 68.399C76.8894 69.4615 76.7835 69.6133 76.2681 70.0687C75.7526 70.524 74.9759 70.2688 75.6467 69.0062C76.0845 68.1782 76.6776 66.4602 77.0377 65.3563C77.1436 65.5495 77.3484 65.6392 77.7226 65.4943C78.1039 65.3494 78.4216 65.2183 78.7111 65.1355C78.7606 65.4391 78.7817 65.791 78.7464 66.1705L78.7535 66.1774Z" fill="#D7C29F"/>
<path d="M74.1428 60.6301C74.1428 60.6301 74.0722 60.6715 74.044 60.6715C73.8392 60.6715 73.4226 61.1268 73.0131 61.5822C72.6036 62.0376 72.2929 62.4929 71.8269 61.8306C71.3609 61.1751 71.0008 60.8715 70.5347 60.568C70.1888 60.3403 70.104 59.6779 70.0758 59.057C70.6407 59.4778 71.0008 59.6227 71.2903 59.7262C71.6221 59.8435 72.0316 60.4852 72.6812 60.4438C72.9072 60.43 73.4791 60.4438 74.1428 60.6232V60.6301Z" fill="#D7C29F"/>
<path d="M75.597 80.9838C75.5476 80.7837 74.4602 77.6997 74.7214 76.5888C74.9827 75.478 75.5476 76.237 75.7523 77.5479C75.9571 78.8588 76.063 79.0658 75.8018 79.7695C75.5405 80.4733 75.597 80.9838 75.597 80.9838Z" fill="#DAC49F"/>
<path d="M10.2137 73.4429L9.02745 73.0082C9.02745 73.0082 8.67441 75.9543 9.05569 77.0858C9.43698 78.2173 9.70525 79.8318 9.82535 79.8594C9.94535 79.887 10.242 79.6593 10.595 79.7697C10.948 79.8801 11.6612 80.0871 11.8095 79.887C11.9577 79.6869 11.9577 78.9072 11.9577 78.9072C11.9577 78.9072 10.0654 76.5062 10.2137 73.4429Z" fill="#3F6732"/>
<path d="M10.454 73.8222C10.807 74.2914 11.0541 74.733 11.2942 75.1676C11.5272 75.6092 11.732 76.037 11.9297 76.4647L12.5016 77.7549C12.6852 78.2034 12.897 78.6381 13.0877 79.1969C12.5087 79.0796 12.0003 78.7692 11.5908 78.3828C11.1883 77.9895 10.8564 77.5273 10.6376 77.0236C10.4116 76.5268 10.2704 75.9956 10.228 75.4505C10.1927 74.9124 10.228 74.3535 10.454 73.8153V73.8222Z" fill="#C9B496"/>
<path opacity="0.63" d="M25.1124 66.122C25.0771 66.2186 24.9641 66.322 24.9641 66.322C20.2404 66.8533 16.4488 71.5312 16.0816 71.8692C15.7144 72.2073 14.9519 72.2694 14.3729 72.1866C13.7868 72.1038 14.0693 71.7864 14.154 71.5312C14.2387 71.2759 15.0013 71.1724 15.2837 71.062C15.5662 70.9585 15.0013 70.4272 14.9166 70.3858C14.9166 70.3858 14.9166 70.3168 14.9166 70.2134C14.9942 70.2203 15.0648 70.2409 15.1355 70.2616C15.2767 70.303 15.4108 70.3789 15.545 70.4824C16.7947 71.4691 15.7568 71.1586 19.3437 68.2056C20.8265 66.9844 23.0224 66.3772 25.1194 66.1151L25.1124 66.122Z" fill="#C9B496"/>
</svg>
